<svg width="102" height="58" viewBox="0 0 102 58" fill="none" xmlns="http://www.w3.org/2000/svg">
    <g clip-path="url(#clip0_252_330)">
        <path d="M23.5029 26.1372C22.7804 26.8592 22.3469 27.87 22.3469 28.8809C22.3469 30.0361 22.7804 30.9025 23.5029 31.6245C24.2254 32.3466 25.2369 32.7798 26.3929 32.7798C27.5489 32.7798 28.5604 32.3466 29.2829 31.6245C30.0054 30.9025 30.4389 29.8917 30.4389 28.8809C30.4389 27.7256 30.0054 26.8592 29.2829 26.1372C28.5604 25.4152 27.5489 24.9819 26.3929 24.9819C25.2369 24.9819 24.2254 25.4152 23.5029 26.1372ZM78.5573 28.8809C78.5573 27.7256 78.1239 26.8592 77.4013 26.1372C76.6788 25.4152 75.6673 24.9819 74.5114 24.9819C73.3553 24.9819 72.3438 25.4152 71.6214 26.1372C70.8988 26.8592 70.4653 27.87 70.4653 28.8809C70.4653 30.0361 70.8988 30.9025 71.6214 31.6245C72.3438 32.3466 73.3553 32.7798 74.5114 32.7798C75.6673 32.7798 76.6788 32.3466 77.4013 31.6245C78.1239 31.0469 78.5573 30.0361 78.5573 28.8809ZM66.4193 7.36462C66.1303 6.35379 65.5523 5.48736 64.5409 4.90975L64.3964 4.76534C63.5293 4.33213 62.3733 4.18772 61.5064 4.47653C60.4948 4.76534 59.6278 5.34296 59.0498 6.35379C58.4719 7.22022 58.4719 8.37545 58.7609 9.24187C59.0498 10.2527 59.6278 11.1191 60.6393 11.6967C61.6509 12.2744 62.6623 12.4188 63.6738 12.13C64.6854 11.8412 65.5523 11.2635 66.1303 10.2527C66.5638 9.38628 66.7083 8.37545 66.4193 7.36462ZM46.3338 24.8375C45.3224 25.8484 44.5999 27.2924 44.5999 28.8809C44.5999 30.4693 45.3224 31.9134 46.3338 32.9242C47.3454 33.935 48.7904 34.657 50.3798 34.657C51.9694 34.657 53.4143 34.0794 54.5704 32.9242C55.5819 31.9134 56.3043 30.4693 56.3043 28.8809C56.3043 27.2924 55.5819 25.8484 54.5704 24.8375C53.5588 23.8267 52.1139 23.1047 50.3798 23.1047C48.6459 23.1047 47.4899 23.8267 46.3338 24.8375ZM39.5423 27.148C39.9758 24.8375 40.9874 22.8159 42.7213 21.2274C43.0103 20.9386 43.2993 20.7942 43.5883 20.5054L41.2764 16.6065C39.6868 17.1841 37.9529 17.1841 36.3633 16.7509C34.1959 16.1733 32.3174 14.8736 31.1614 12.7076C30.0053 10.6859 29.7163 8.37545 30.2944 6.35379C30.8724 4.18773 32.3174 2.31047 34.3404 1.15523C36.3633 7.15256e-07 38.8199 -0.288809 40.9874 0.288809C43.1548 0.866426 45.0334 2.16607 46.1893 4.33213L46.4783 4.90975C47.3454 6.787 47.4899 8.80866 47.0563 10.8303C46.6228 12.4188 45.7559 13.8628 44.4554 15.018L46.7673 18.917C47.9234 18.4838 49.3683 18.1949 50.6689 18.1949C52.1139 18.1949 53.4143 18.4838 54.5704 18.917L56.8823 15.018C55.5819 13.8628 54.7149 12.4188 54.2814 10.8303C53.7033 8.66426 53.9924 6.35379 55.1484 4.33213V4.18773C56.3043 2.16607 58.1829 0.866426 60.3503 0.288809C62.5178 -0.288809 64.8299 7.15256e-07 66.8528 1.15523H66.9973C69.0203 2.31047 70.3208 4.18773 70.8988 6.20939C71.4769 8.37545 71.1879 10.6859 70.0318 12.7076C68.8758 14.7292 66.8528 16.1733 64.8299 16.7509C63.2403 17.1841 61.5064 17.1841 59.9168 16.6065L57.6049 20.5054C57.8939 20.7942 58.1829 20.9386 58.4719 21.2274C60.0613 22.8159 61.2174 24.8375 61.6509 27.148H66.2748C66.5638 25.5596 67.4308 23.9711 68.5868 22.9603C70.1763 21.3718 72.3438 20.5054 74.6559 20.5054C76.9678 20.5054 79.1353 21.5162 80.7248 22.9603C82.3143 24.5487 83.3258 26.5704 83.3258 29.0253C83.3258 31.3357 82.3143 33.5018 80.7248 35.0903C79.1353 36.6787 76.9678 37.5451 74.6559 37.5451C72.1993 37.5451 70.0318 36.5343 68.5868 35.0903C67.4308 33.935 66.5638 32.491 66.2748 30.9025H61.6509C61.2174 33.213 60.2058 35.2347 58.4719 36.8231C56.4488 38.8448 53.7033 40 50.6689 40C47.6344 40 44.8889 38.7004 42.8658 36.8231C41.2764 35.2347 40.1203 33.213 39.6868 30.9025H35.0629C34.7739 32.491 33.9069 33.935 32.7508 35.0903C31.1614 36.6787 28.9939 37.5451 26.6819 37.5451C24.3699 37.5451 22.0579 36.5343 20.6129 35.0903C19.0234 33.5018 18.0119 31.4801 18.0119 29.0253C18.0119 26.7148 19.0234 24.5487 20.6129 22.9603C22.2024 21.3718 24.3699 20.5054 26.6819 20.5054C29.1384 20.5054 31.3059 21.5162 32.7508 22.9603C33.9069 24.1155 34.7739 25.5596 35.0629 27.148C34.9184 27.148 39.5423 27.148 39.5423 27.148ZM36.3633 4.90975C35.3519 5.48736 34.7739 6.35379 34.4849 7.36462C34.1959 8.37545 34.3404 9.38628 34.9184 10.3971C35.4964 11.4079 36.3633 11.9856 37.3749 12.2744C38.3864 12.5632 39.5423 12.4188 40.4094 11.8412C41.4209 11.2635 41.9989 10.3971 42.2879 9.38628C42.5768 8.37545 42.4324 7.36462 41.8544 6.35379C41.2764 5.48736 40.4094 4.76534 39.3978 4.62094C38.5309 4.33213 37.3749 4.47653 36.3633 4.90975Z"
              fill="#007DFF"/>
        <path d="M0 45.2655H2.61111L4.26063 50.1796C4.31275 50.3358 4.35705 50.4948 4.39353 50.6562C4.43001 50.8177 4.46128 50.9844 4.48735 51.1562C4.5134 51.3281 4.53425 51.5078 4.54989 51.6953H4.59679C4.62806 51.4141 4.66976 51.151 4.72187 50.9062C4.7792 50.6615 4.84956 50.4192 4.93295 50.1796L6.55121 45.2655H9.10758L5.40983 55.1171C5.18572 55.7213 4.89386 56.224 4.53425 56.625C4.17464 57.0312 3.7603 57.3359 3.29124 57.5391C2.82739 57.7422 2.31663 57.8438 1.75897 57.8438C1.48796 57.8438 1.25343 57.8281 1.05539 57.7969C0.857338 57.7708 0.687955 57.7421 0.547237 57.7108V55.8203C0.656684 55.8464 0.794797 55.8697 0.961574 55.8905C1.12835 55.9114 1.30294 55.9219 1.48536 55.9219C1.81891 55.9219 2.10556 55.8515 2.3453 55.7108C2.58504 55.5702 2.78569 55.3801 2.94726 55.1405C3.10883 54.9061 3.23652 54.6483 3.33032 54.3671L3.47105 53.9375L0 45.2655ZM18.309 49.6171C18.309 50.3463 18.2099 50.9921 18.0119 51.5546C17.8191 52.1171 17.535 52.5938 17.1597 52.9844C16.7897 53.3698 16.3415 53.6615 15.8152 53.8594C15.294 54.0573 14.705 54.1562 14.0484 54.1562C13.4334 54.1562 12.8679 54.0573 12.352 53.8594C11.8411 53.6615 11.3955 53.3698 11.0151 52.9844C10.6398 52.5938 10.3479 52.1171 10.1395 51.5546C9.93626 50.9921 9.83462 50.3463 9.83462 49.6171C9.83462 48.6483 10.0066 47.8281 10.3506 47.1562C10.6946 46.4844 11.1845 45.974 11.8203 45.625C12.4561 45.276 13.2144 45.1016 14.0952 45.1016C14.9135 45.1016 15.6379 45.276 16.2686 45.625C16.9044 45.974 17.4021 46.4844 17.7617 47.1562C18.1266 47.8281 18.309 48.6483 18.309 49.6171ZM12.2659 49.6171C12.2659 50.19 12.3285 50.6719 12.4535 51.0625C12.5786 51.4531 12.774 51.7474 13.0398 51.9453C13.3057 52.1432 13.6522 52.2421 14.0796 52.2421C14.5018 52.2421 14.8431 52.1432 15.1038 51.9453C15.3696 51.7474 15.5624 51.4531 15.6823 51.0625C15.8074 50.6719 15.8699 50.19 15.8699 49.6171C15.8699 49.039 15.8074 48.5598 15.6823 48.1796C15.5624 47.7942 15.3696 47.5052 15.1038 47.3125C14.8379 47.1198 14.4914 47.0233 14.064 47.0233C13.4334 47.0233 12.9747 47.2396 12.6881 47.6719C12.4066 48.1042 12.2659 48.7525 12.2659 49.6171ZM28.2999 45.2655V54H26.4706L26.1501 52.8828H26.025C25.8374 53.1797 25.6028 53.4219 25.3214 53.6094C25.04 53.7969 24.7299 53.9348 24.3911 54.0233C24.0524 54.1119 23.7006 54.1562 23.3357 54.1562C22.7103 54.1562 22.1657 54.0468 21.7019 53.828C21.238 53.6041 20.8758 53.2578 20.6152 52.7891C20.3599 52.3203 20.2322 51.7108 20.2322 50.9608V45.2655H22.6166V50.3671C22.6166 50.9921 22.7285 51.4635 22.9527 51.7812C23.1768 52.099 23.5338 52.2578 24.0237 52.2578C24.5084 52.2578 24.8889 52.1483 25.165 51.9296C25.4413 51.7056 25.6342 51.3801 25.7436 50.953C25.8582 50.5207 25.9155 49.9948 25.9155 49.375V45.2655H28.2999ZM34.4837 52.2578C34.7444 52.2578 34.9971 52.2317 35.2421 52.1796C35.4923 52.1275 35.7397 52.0625 35.9847 51.9844V53.7578C35.7293 53.8724 35.4114 53.9661 35.031 54.0391C34.6557 54.1172 34.244 54.1562 33.7957 54.1562C33.2746 54.1562 32.8056 54.0729 32.3886 53.9062C31.9768 53.7344 31.6511 53.44 31.4114 53.0233C31.1768 52.6015 31.0596 52.0155 31.0596 51.2655V47.0546H29.9182V46.0469L31.2316 45.25L31.9195 43.4062H33.444V45.2655H35.8909V47.0546H33.444V51.2655C33.444 51.5989 33.5378 51.8489 33.7254 52.0155C33.9182 52.177 34.171 52.2578 34.4837 52.2578ZM45.7021 49.6171C45.7021 50.3463 45.6031 50.9921 45.405 51.5546C45.2122 52.1171 44.9281 52.5938 44.5529 52.9844C44.1828 53.3698 43.7346 53.6615 43.2083 53.8594C42.6871 54.0573 42.0981 54.1562 41.4415 54.1562C40.8265 54.1562 40.261 54.0573 39.7451 53.8594C39.2342 53.6615 38.7887 53.3698 38.4082 52.9844C38.033 52.5938 37.7411 52.1171 37.5326 51.5546C37.3294 50.9921 37.2277 50.3463 37.2277 49.6171C37.2277 48.6483 37.3997 47.8281 37.7438 47.1562C38.0877 46.4844 38.5776 45.974 39.2134 45.625C39.8493 45.276 40.6076 45.1016 41.4883 45.1016C42.3066 45.1016 43.0311 45.276 43.6617 45.625C44.2975 45.974 44.7952 46.4844 45.1549 47.1562C45.5197 47.8281 45.7021 48.6483 45.7021 49.6171ZM39.659 49.6171C39.659 50.19 39.7216 50.6719 39.8467 51.0625C39.9717 51.4531 40.1672 51.7474 40.4329 51.9453C40.6988 52.1432 41.0453 52.2421 41.4727 52.2421C41.8949 52.2421 42.2362 52.1432 42.4969 51.9453C42.7627 51.7474 42.9555 51.4531 43.0754 51.0625C43.2005 50.6719 43.263 50.19 43.263 49.6171C43.263 49.039 43.2005 48.5598 43.0754 48.1796C42.9555 47.7942 42.7627 47.5052 42.4969 47.3125C42.231 47.1198 41.8845 47.0233 41.4571 47.0233C40.8265 47.0233 40.3678 47.2396 40.0812 47.6719C39.7997 48.1042 39.659 48.7525 39.659 49.6171ZM50.2285 57.8438C49.009 57.8438 48.0761 57.6301 47.4298 57.203C46.7887 56.7811 46.4682 56.1875 46.4682 55.4219C46.4682 54.8958 46.6324 54.4557 46.9608 54.1016C47.2891 53.7474 47.7712 53.4947 48.407 53.3438C48.162 53.2396 47.9484 53.0702 47.766 52.8358C47.5836 52.5963 47.4923 52.3437 47.4923 52.078C47.4923 51.7447 47.5888 51.4688 47.7816 51.25C47.9744 51.026 48.2533 50.8072 48.6181 50.5938C48.1594 50.3958 47.7946 50.078 47.5236 49.6405C47.2579 49.203 47.125 48.6874 47.125 48.0938C47.125 47.4582 47.2631 46.9193 47.5392 46.4766C47.8207 46.0286 48.2272 45.6874 48.7588 45.453C49.2956 45.2187 49.9471 45.1016 50.7132 45.1016C50.8747 45.1016 51.0624 45.112 51.2761 45.1328C51.4897 45.1536 51.6852 45.177 51.8624 45.203C52.0448 45.2291 52.1673 45.2499 52.2298 45.2655H55.2788V46.4766L53.9107 46.828C54.0357 47.0207 54.1296 47.2266 54.192 47.4453C54.2547 47.6641 54.2859 47.8957 54.2859 48.1405C54.2859 49.078 53.9576 49.8098 53.3008 50.3358C52.6494 50.8567 51.7425 51.1171 50.5804 51.1171C50.3041 51.1015 50.0435 51.0806 49.7985 51.0546C49.6787 51.1483 49.5875 51.2474 49.5249 51.3516C49.4624 51.4557 49.4311 51.565 49.4311 51.6796C49.4311 51.7942 49.478 51.8906 49.5719 51.9688C49.6708 52.0416 49.8168 52.0989 50.0097 52.1405C50.2077 52.177 50.4527 52.1953 50.7445 52.1953H52.2298C53.1888 52.1953 53.9185 52.401 54.4188 52.8125C54.9243 53.224 55.1771 53.8281 55.1771 54.625C55.1771 55.6458 54.7497 56.4375 53.895 57C53.0455 57.5625 51.8234 57.8438 50.2285 57.8438ZM50.3302 56.2891C50.8983 56.2891 51.3856 56.2344 51.7921 56.125C52.2038 56.0208 52.5191 55.8698 52.738 55.6719C52.9569 55.4792 53.0663 55.2474 53.0663 54.9766C53.0663 54.7578 53.0011 54.5832 52.8709 54.453C52.7458 54.328 52.553 54.2396 52.2924 54.1875C52.037 54.1354 51.7087 54.1094 51.3073 54.1094H50.0722C49.7803 54.1094 49.5171 54.1562 49.2826 54.25C49.0532 54.3438 48.8708 54.4739 48.7353 54.6405C48.5998 54.8124 48.5321 55.0104 48.5321 55.2344C48.5321 55.5625 48.6884 55.8203 49.0012 56.0078C49.3191 56.1953 49.7621 56.2891 50.3302 56.2891ZM50.7132 49.6641C51.1614 49.6641 51.4898 49.526 51.6983 49.25C51.9067 48.974 52.011 48.599 52.011 48.125C52.011 47.599 51.9015 47.2057 51.6826 46.9453C51.4689 46.6797 51.1458 46.5469 50.7132 46.5469C50.2754 46.5469 49.9471 46.6797 49.7282 46.9453C49.5093 47.2057 49.3999 47.599 49.3999 48.125C49.3999 48.599 49.5067 48.974 49.7204 49.25C49.9392 49.526 50.2702 49.6641 50.7132 49.6641ZM60.329 45.1016C61.1368 45.1016 61.8326 45.2578 62.4163 45.5703C63 45.8776 63.4509 46.3255 63.7688 46.9141C64.0867 47.5026 64.2456 48.2214 64.2456 49.0703V50.2266H58.6091C58.6352 50.8984 58.8358 51.4271 59.2111 51.8125C59.5915 52.1927 60.1179 52.3828 60.7902 52.3828C61.3479 52.3828 61.8586 52.3254 62.3224 52.2108C62.7863 52.0963 63.2632 51.9245 63.7531 51.6953V53.5391C63.3205 53.7526 62.8671 53.9089 62.3929 54.0078C61.9238 54.1068 61.3531 54.1562 60.6807 54.1562C59.8051 54.1562 59.0286 53.9948 58.3511 53.6719C57.6787 53.349 57.1498 52.8568 56.7641 52.1953C56.3837 51.5339 56.1934 50.7005 56.1934 49.6953C56.1934 48.6745 56.3654 47.8254 56.7094 47.1483C57.0585 46.466 57.5433 45.9556 58.1635 45.6171C58.7837 45.2733 59.5055 45.1016 60.329 45.1016ZM60.3446 46.7969C59.8807 46.7969 59.495 46.9452 59.1875 47.2421C58.8853 47.539 58.7107 48.0051 58.6638 48.6405H62.0098C62.0045 48.2864 61.9394 47.9714 61.8143 47.6953C61.6944 47.4193 61.5121 47.2005 61.2671 47.0391C61.0274 46.8776 60.7199 46.7969 60.3446 46.7969ZM69.8665 52.2578C70.1271 52.2578 70.3798 52.2317 70.6248 52.1796C70.875 52.1275 71.1225 52.0625 71.3675 51.9844V53.7578C71.1121 53.8724 70.7942 53.9661 70.4138 54.0391C70.0385 54.1172 69.6267 54.1562 69.1785 54.1562C68.6574 54.1562 68.1883 54.0729 67.7714 53.9062C67.3596 53.7344 67.0339 53.44 66.7942 53.0233C66.5596 52.6015 66.4423 52.0155 66.4423 51.2655V47.0546H65.301V46.0469L66.6143 45.25L67.3023 43.4062H68.8267V45.2655H71.2737V47.0546H68.8267V51.2655C68.8267 51.5989 68.9206 51.8489 69.1082 52.0155C69.301 52.177 69.5538 52.2578 69.8665 52.2578ZM75.5265 41.8438V44.3203C75.5265 44.7526 75.5108 45.164 75.4796 45.5546C75.4535 45.9452 75.4327 46.2214 75.4171 46.3828H75.5422C75.7298 46.0807 75.9512 45.8358 76.2066 45.6483C76.4673 45.4608 76.7539 45.3229 77.0666 45.2344C77.3793 45.1458 77.7155 45.1016 78.075 45.1016C78.7056 45.1016 79.2555 45.2135 79.7246 45.4375C80.1936 45.6562 80.5585 46.0026 80.819 46.4766C81.0796 46.9453 81.2099 47.5546 81.2099 48.3046V54H78.8255V48.8983C78.8255 48.2733 78.711 47.8021 78.4816 47.4844C78.2523 47.1667 77.8979 47.0078 77.4184 47.0078C76.9389 47.0078 76.561 47.1197 76.2848 47.3438C76.0086 47.5625 75.8131 47.888 75.6985 48.3203C75.5839 48.7474 75.5265 49.2707 75.5265 49.8905V54H73.1422V41.8438H75.5265ZM87.2686 45.1016C88.0764 45.1016 88.7722 45.2578 89.356 45.5703C89.9397 45.8776 90.3905 46.3255 90.7084 46.9141C91.0263 47.5026 91.1853 48.2214 91.1853 49.0703V50.2266H85.5488C85.5748 50.8984 85.7755 51.4271 86.1508 51.8125C86.5312 52.1927 87.0576 52.3828 87.7299 52.3828C88.2876 52.3828 88.7983 52.3254 89.2621 52.2108C89.726 52.0963 90.2028 51.9245 90.6928 51.6953V53.5391C90.2602 53.7526 89.8068 53.9089 89.3325 54.0078C88.8635 54.1068 88.2928 54.1562 87.6204 54.1562C86.7449 54.1562 85.9683 53.9948 85.2908 53.6719C84.6185 53.349 84.0895 52.8568 83.7038 52.1953C83.3233 51.5339 83.1331 50.7005 83.1331 49.6953C83.1331 48.6745 83.3051 47.8254 83.6491 47.1483C83.9983 46.466 84.483 45.9556 85.1032 45.6171C85.7234 45.2733 86.4452 45.1016 87.2686 45.1016ZM87.2843 46.7969C86.8204 46.7969 86.4348 46.9452 86.1273 47.2421C85.825 47.539 85.6504 48.0051 85.6035 48.6405H88.9494C88.9442 48.2864 88.8791 47.9714 88.754 47.6953C88.6341 47.4193 88.4517 47.2005 88.2067 47.0391C87.9671 46.8776 87.6596 46.7969 87.2843 46.7969ZM98.0023 45.1016C98.1222 45.1016 98.2603 45.1094 98.4167 45.125C98.5782 45.1354 98.7085 45.151 98.8075 45.1719L98.6277 47.4062C98.5496 47.3802 98.4375 47.362 98.2916 47.3516C98.1508 47.3359 98.0283 47.328 97.9242 47.328C97.6167 47.328 97.317 47.3672 97.0251 47.4453C96.7385 47.5234 96.4805 47.6509 96.2512 47.828C96.0218 47.9999 95.8394 48.2291 95.7039 48.5155C95.5736 48.7968 95.5085 49.1431 95.5085 49.5546V54H93.1241V45.2655H94.93L95.2818 46.7344H95.399C95.571 46.4375 95.7847 46.1667 96.0401 45.9219C96.3007 45.6719 96.5951 45.4739 96.9235 45.328C97.257 45.177 97.6167 45.1016 98.0023 45.1016Z"
              fill="white" fill-opacity="1"/>
    </g>
    <defs>
        <clipPath id="clip0_252_330">
            <rect width="101.067" height="58" fill="white"/>
        </clipPath>
    </defs>
</svg>
