<svg width="0" height="0" class="hidden"><symbol viewBox="0 0 179 40" fill="currentColor" xmlns="http://www.w3.org/2000/svg" id="youtogether-horizontal"><path d="M5.67214 26.1372C4.92581 26.8592 4.47801 27.87 4.47801 28.8809C4.47801 30.0361 4.92581 30.9025 5.67214 31.6245C6.41847 32.3466 7.46334 32.7798 8.65748 32.7798C9.85161 32.7798 10.8965 32.3466 11.6428 31.6245C12.3892 30.9025 12.837 29.8917 12.837 28.8809C12.837 27.7256 12.3892 26.8592 11.6428 26.1372C10.8965 25.4152 9.85161 24.9819 8.65748 24.9819C7.46334 24.9819 6.41847 25.4152 5.67214 26.1372ZM62.5428 28.8809C62.5428 27.7256 62.095 26.8592 61.3486 26.1372C60.6023 25.4152 59.5575 24.9819 58.3634 24.9819C57.1692 24.9819 56.1243 25.4152 55.378 26.1372C54.6316 26.8592 54.1838 27.87 54.1838 28.8809C54.1838 30.0361 54.6316 30.9025 55.378 31.6245C56.1243 32.3466 57.1692 32.7798 58.3634 32.7798C59.5575 32.7798 60.6023 32.3466 61.3486 31.6245C62.095 31.0469 62.5428 30.0361 62.5428 28.8809ZM50.0044 7.36462C49.7058 6.35379 49.1088 5.48736 48.064 4.90975L47.9147 4.76534C47.019 4.33213 45.8249 4.18772 44.9293 4.47653C43.8844 4.76534 42.9888 5.34296 42.3918 6.35379C41.7947 7.22022 41.7947 8.37545 42.0933 9.24187C42.3918 10.2527 42.9888 11.1191 44.0337 11.6967C45.0786 12.2744 46.1234 12.4188 47.1683 12.13C48.2132 11.8412 49.1088 11.2635 49.7058 10.2527C50.1536 9.38628 50.3029 8.37545 50.0044 7.36462ZM29.2563 24.8375C28.2114 25.8484 27.4651 27.2924 27.4651 28.8809C27.4651 30.4693 28.2114 31.9134 29.2563 32.9242C30.3012 33.935 31.7938 34.657 33.4357 34.657C35.0777 34.657 36.5703 34.0794 37.7645 32.9242C38.8094 31.9134 39.5557 30.4693 39.5557 28.8809C39.5557 27.2924 38.8094 25.8484 37.7645 24.8375C36.7196 23.8267 35.227 23.1047 33.4357 23.1047C31.6446 23.1047 30.4505 23.8267 29.2563 24.8375ZM22.2407 27.148C22.6885 24.8375 23.7335 22.8159 25.5246 21.2274C25.8231 20.9386 26.1217 20.7942 26.4202 20.5054L24.032 16.6065C22.39 17.1841 20.5988 17.1841 18.9568 16.7509C16.7179 16.1733 14.7774 14.8736 13.5833 12.7076C12.3891 10.6859 12.0906 8.37545 12.6877 6.35379C13.2848 4.18773 14.7774 2.31047 16.8672 1.15523C18.9568 7.15256e-07 21.4944 -0.288809 23.7335 0.288809C25.9724 0.866426 27.9129 2.16607 29.107 4.33213L29.4055 4.90975C30.3012 6.787 30.4505 8.80866 30.0026 10.8303C29.5548 12.4188 28.6592 13.8628 27.3159 15.018L29.7041 18.917C30.8983 18.4838 32.3909 18.1949 33.7343 18.1949C35.227 18.1949 36.5703 18.4838 37.7645 18.917L40.1527 15.018C38.8094 13.8628 37.9138 12.4188 37.466 10.8303C36.8689 8.66426 37.1675 6.35379 38.3616 4.33213V4.18773C39.5557 2.16607 41.4962 0.866426 43.7351 0.288809C45.9742 -0.288809 48.3625 7.15256e-07 50.4522 1.15523H50.6014C52.6912 2.31047 54.0346 4.18773 54.6316 6.20939C55.2288 8.37545 54.9302 10.6859 53.736 12.7076C52.5419 14.7292 50.4522 16.1733 48.3625 16.7509C46.7205 17.1841 44.9293 17.1841 43.2874 16.6065L40.8992 20.5054C41.1977 20.7942 41.4962 20.9386 41.7947 21.2274C43.4366 22.8159 44.6308 24.8375 45.0786 27.148H49.8551C50.1536 25.5596 51.0492 23.9711 52.2434 22.9603C53.8853 21.3718 56.1243 20.5054 58.5126 20.5054C60.9008 20.5054 63.1399 21.5162 64.7818 22.9603C66.4238 24.5487 67.4686 26.5704 67.4686 29.0253C67.4686 31.3357 66.4238 33.5018 64.7818 35.0903C63.1399 36.6787 60.9008 37.5451 58.5126 37.5451C55.9751 37.5451 53.736 36.5343 52.2434 35.0903C51.0492 33.935 50.1536 32.491 49.8551 30.9025H45.0786C44.6308 33.213 43.5859 35.2347 41.7947 36.8231C39.705 38.8448 36.8689 40 33.7343 40C30.5997 40 27.7636 38.7004 25.6739 36.8231C24.032 35.2347 22.8378 33.213 22.39 30.9025H17.6135C17.315 32.491 16.4194 33.935 15.2252 35.0903C13.5833 36.6787 11.3443 37.5451 8.95601 37.5451C6.56774 37.5451 4.17947 36.5343 2.68681 35.0903C1.04487 33.5018 0 31.4801 0 29.0253C0 26.7148 1.04487 24.5487 2.68681 22.9603C4.32874 21.3718 6.56774 20.5054 8.95601 20.5054C11.4935 20.5054 13.7326 21.5162 15.2252 22.9603C16.4194 24.1155 17.315 25.5596 17.6135 27.148C17.4642 27.148 22.2407 27.148 22.2407 27.148ZM18.9568 4.90975C17.912 5.48736 17.315 6.35379 17.0164 7.36462C16.7179 8.37545 16.8672 9.38628 17.4642 10.3971C18.0613 11.4079 18.9569 11.9856 20.0018 12.2744C21.0466 12.5632 22.2407 12.4188 23.1364 11.8412C24.1812 11.2635 24.7783 10.3971 25.0768 9.38628C25.3753 8.37545 25.2261 7.36462 24.629 6.35379C24.032 5.48736 23.1364 4.76534 22.0915 4.62094C21.1959 4.33213 20.0018 4.47653 18.9568 4.90975Z" fill="var(--header-logo)"></path><path d="M72.4686 18.2656H75.1658L76.8697 23.1797C76.9236 23.3359 76.9694 23.4948 77.007 23.6562C77.0447 23.8177 77.077 23.9844 77.104 24.1562C77.1308 24.3281 77.1523 24.5078 77.1686 24.6953H77.2171C77.2493 24.4141 77.2924 24.151 77.3463 23.9062C77.4054 23.6615 77.4782 23.4193 77.5643 23.1797L79.2359 18.2656H81.8767L78.0568 28.1172C77.8254 28.7214 77.5238 29.224 77.1523 29.625C76.7809 30.0312 76.3529 30.3359 75.8684 30.5391C75.3892 30.7422 74.8616 30.8438 74.2856 30.8438C74.0056 30.8438 73.7633 30.8281 73.5588 30.7969C73.3542 30.7708 73.1792 30.7422 73.0339 30.7109V28.8203C73.1469 28.8464 73.2896 28.8698 73.4618 28.8906C73.6341 28.9115 73.8145 28.9219 74.0029 28.9219C74.3475 28.9219 74.6436 28.8516 74.8913 28.7109C75.1389 28.5703 75.3462 28.3802 75.513 28.1406C75.68 27.9062 75.8119 27.6484 75.9087 27.3672L76.0542 26.9375L72.4686 18.2656ZM91.3816 22.6172C91.3816 23.3464 91.2793 23.9922 91.0747 24.5547C90.8755 25.1172 90.582 25.5938 90.1944 25.9844C89.8122 26.3698 89.3492 26.6615 88.8055 26.8594C88.2671 27.0573 87.6587 27.1562 86.9804 27.1562C86.3451 27.1562 85.761 27.0573 85.228 26.8594C84.7003 26.6615 84.24 26.3698 83.847 25.9844C83.4594 25.5938 83.1579 25.1172 82.9426 24.5547C82.7326 23.9922 82.6276 23.3464 82.6276 22.6172C82.6276 21.6484 82.8053 20.8281 83.1607 20.1562C83.516 19.4844 84.022 18.974 84.6788 18.625C85.3356 18.276 86.1189 18.1016 87.0288 18.1016C87.874 18.1016 88.6224 18.276 89.2738 18.625C89.9306 18.974 90.4448 19.4844 90.8163 20.1562C91.1931 20.8281 91.3816 21.6484 91.3816 22.6172ZM85.1391 22.6172C85.1391 23.1901 85.2037 23.6719 85.3329 24.0625C85.4622 24.4531 85.664 24.7474 85.9386 24.9453C86.2132 25.1432 86.5712 25.2422 87.0127 25.2422C87.4488 25.2422 87.8014 25.1432 88.0706 24.9453C88.3452 24.7474 88.5444 24.4531 88.6682 24.0625C88.7974 23.6719 88.862 23.1901 88.862 22.6172C88.862 22.0391 88.7974 21.5599 88.6682 21.1797C88.5444 20.7943 88.3452 20.5052 88.0706 20.3125C87.796 20.1198 87.438 20.0234 86.9965 20.0234C86.3451 20.0234 85.8713 20.2396 85.5752 20.6719C85.2845 21.1042 85.1391 21.7526 85.1391 22.6172ZM101.702 18.2656V27H99.8124L99.4813 25.8828H99.3521C99.1583 26.1797 98.916 26.4219 98.6254 26.6094C98.3346 26.7969 98.0143 26.9349 97.6644 27.0234C97.3145 27.112 96.951 27.1562 96.5741 27.1562C95.9281 27.1562 95.3655 27.0469 94.8864 26.8281C94.4073 26.6042 94.0331 26.2578 93.7639 25.7891C93.5001 25.3203 93.3682 24.7109 93.3682 23.9609V18.2656H95.8312V23.3672C95.8312 23.9922 95.9469 24.4635 96.1785 24.7812C96.41 25.099 96.7787 25.2578 97.2848 25.2578C97.7855 25.2578 98.1785 25.1484 98.4638 24.9297C98.7492 24.7057 98.9484 24.3802 99.0615 23.9531C99.1798 23.5208 99.2391 22.9948 99.2391 22.375V18.2656H101.702ZM108.09 25.2578C108.359 25.2578 108.62 25.2318 108.874 25.1797C109.132 25.1276 109.387 25.0625 109.64 24.9844V26.7578C109.377 26.8724 109.048 26.9661 108.655 27.0391C108.268 27.1172 107.842 27.1562 107.379 27.1562C106.841 27.1562 106.357 27.0729 105.925 26.9062C105.501 26.7344 105.164 26.4401 104.917 26.0234C104.674 25.6016 104.553 25.0156 104.553 24.2656V20.0547H103.373V19.0469L104.731 18.25L105.441 16.4062H107.016V18.2656H109.543V20.0547H107.016V24.2656C107.016 24.599 107.113 24.849 107.306 25.0156C107.506 25.1771 107.766 25.2578 108.09 25.2578ZM119.679 22.6172C119.679 23.3464 119.576 23.9922 119.372 24.5547C119.172 25.1172 118.878 25.5938 118.491 25.9844C118.109 26.3698 117.646 26.6615 117.103 26.8594C116.564 27.0573 115.955 27.1562 115.277 27.1562C114.641 27.1562 114.057 27.0573 113.525 26.8594C112.997 26.6615 112.537 26.3698 112.144 25.9844C111.756 25.5938 111.455 25.1172 111.24 24.5547C111.03 23.9922 110.924 23.3464 110.924 22.6172C110.924 21.6484 111.102 20.8281 111.458 20.1562C111.812 19.4844 112.319 18.974 112.976 18.625C113.633 18.276 114.416 18.1016 115.326 18.1016C116.171 18.1016 116.92 18.276 117.571 18.625C118.227 18.974 118.742 19.4844 119.113 20.1562C119.49 20.8281 119.679 21.6484 119.679 22.6172ZM113.436 22.6172C113.436 23.1901 113.5 23.6719 113.629 24.0625C113.759 24.4531 113.961 24.7474 114.235 24.9453C114.51 25.1432 114.868 25.2422 115.309 25.2422C115.745 25.2422 116.098 25.1432 116.368 24.9453C116.642 24.7474 116.841 24.4531 116.965 24.0625C117.094 23.6719 117.158 23.1901 117.158 22.6172C117.158 22.0391 117.094 21.5599 116.965 21.1797C116.841 20.7943 116.642 20.5052 116.368 20.3125C116.093 20.1198 115.735 20.0234 115.294 20.0234C114.641 20.0234 114.168 20.2396 113.872 20.6719C113.581 21.1042 113.436 21.7526 113.436 22.6172ZM124.354 30.8438C123.095 30.8438 122.13 30.6302 121.463 30.2031C120.801 29.7812 120.47 29.1875 120.47 28.4219C120.47 27.8958 120.64 27.4557 120.979 27.1016C121.318 26.7474 121.816 26.4948 122.473 26.3438C122.219 26.2396 121.999 26.0703 121.81 25.8359C121.622 25.5964 121.528 25.3438 121.528 25.0781C121.528 24.7448 121.627 24.4688 121.826 24.25C122.026 24.026 122.313 23.8073 122.691 23.5938C122.217 23.3958 121.84 23.0781 121.56 22.6406C121.286 22.2031 121.148 21.6875 121.148 21.0938C121.148 20.4583 121.291 19.9193 121.576 19.4766C121.867 19.0286 122.286 18.6875 122.836 18.4531C123.39 18.2188 124.063 18.1016 124.855 18.1016C125.022 18.1016 125.216 18.112 125.436 18.1328C125.657 18.1536 125.859 18.1771 126.042 18.2031C126.23 18.2292 126.357 18.25 126.421 18.2656H129.571V19.4766L128.158 19.8281C128.287 20.0208 128.384 20.2266 128.448 20.4453C128.513 20.6641 128.545 20.8958 128.545 21.1406C128.545 22.0781 128.206 22.8099 127.528 23.3359C126.855 23.8568 125.918 24.1172 124.718 24.1172C124.432 24.1016 124.163 24.0807 123.91 24.0547C123.786 24.1484 123.692 24.2474 123.627 24.3516C123.563 24.4557 123.53 24.5651 123.53 24.6797C123.53 24.7943 123.579 24.8906 123.676 24.9688C123.778 25.0417 123.929 25.099 124.128 25.1406C124.332 25.1771 124.585 25.1953 124.887 25.1953H126.421C127.412 25.1953 128.166 25.401 128.683 25.8125C129.205 26.224 129.466 26.8281 129.466 27.625C129.466 28.6458 129.025 29.4375 128.141 30C127.264 30.5625 126.001 30.8438 124.354 30.8438ZM124.459 29.2891C125.046 29.2891 125.55 29.2344 125.969 29.125C126.394 29.0208 126.72 28.8698 126.946 28.6719C127.173 28.4792 127.285 28.2474 127.285 27.9766C127.285 27.7578 127.218 27.5833 127.084 27.4531C126.955 27.3281 126.755 27.2396 126.486 27.1875C126.223 27.1354 125.883 27.1094 125.468 27.1094H124.193C123.891 27.1094 123.619 27.1562 123.377 27.25C123.14 27.3438 122.952 27.474 122.812 27.6406C122.672 27.8125 122.602 28.0104 122.602 28.2344C122.602 28.5625 122.763 28.8203 123.087 29.0078C123.414 29.1953 123.872 29.2891 124.459 29.2891ZM124.855 22.6641C125.318 22.6641 125.657 22.526 125.872 22.25C126.087 21.974 126.196 21.599 126.196 21.125C126.196 20.599 126.082 20.2057 125.856 19.9453C125.636 19.6797 125.302 19.5469 124.855 19.5469C124.402 19.5469 124.063 19.6797 123.837 19.9453C123.612 20.2057 123.498 20.599 123.498 21.125C123.498 21.599 123.609 21.974 123.83 22.25C124.055 22.526 124.397 22.6641 124.855 22.6641ZM134.788 18.1016C135.622 18.1016 136.341 18.2578 136.944 18.5703C137.547 18.8776 138.013 19.3255 138.341 19.9141C138.669 20.5026 138.834 21.2214 138.834 22.0703V23.2266H133.011C133.038 23.8984 133.245 24.4271 133.633 24.8125C134.026 25.1927 134.57 25.3828 135.264 25.3828C135.84 25.3828 136.368 25.3255 136.847 25.2109C137.326 25.0964 137.818 24.9245 138.325 24.6953V26.5391C137.878 26.7526 137.41 26.9089 136.92 27.0078C136.435 27.1068 135.845 27.1562 135.152 27.1562C134.247 27.1562 133.445 26.9948 132.744 26.6719C132.051 26.349 131.504 25.8568 131.106 25.1953C130.712 24.5339 130.516 23.7005 130.516 22.6953C130.516 21.6745 130.693 20.8255 131.049 20.1484C131.41 19.4661 131.91 18.9557 132.551 18.6172C133.192 18.2734 133.937 18.1016 134.788 18.1016ZM134.804 19.7969C134.325 19.7969 133.927 19.9453 133.608 20.2422C133.296 20.5391 133.116 21.0052 133.068 21.6406H136.524C136.519 21.2865 136.451 20.9714 136.322 20.6953C136.199 20.4193 136.01 20.2005 135.757 20.0391C135.509 19.8776 135.192 19.7969 134.804 19.7969ZM144.64 25.2578C144.909 25.2578 145.17 25.2318 145.423 25.1797C145.682 25.1276 145.938 25.0625 146.19 24.9844V26.7578C145.927 26.8724 145.598 26.9661 145.205 27.0391C144.817 27.1172 144.393 27.1562 143.93 27.1562C143.391 27.1562 142.906 27.0729 142.476 26.9062C142.05 26.7344 141.714 26.4401 141.466 26.0234C141.224 25.6016 141.102 25.0156 141.102 24.2656V20.0547H139.924V19.0469L141.28 18.25L141.991 16.4062H143.566V18.2656H146.094V20.0547H143.566V24.2656C143.566 24.599 143.663 24.849 143.856 25.0156C144.056 25.1771 144.317 25.2578 144.64 25.2578ZM150.487 14.8438V17.3203C150.487 17.7526 150.471 18.1641 150.439 18.5547C150.412 18.9453 150.39 19.2214 150.373 19.3828H150.503C150.697 19.0807 150.925 18.8359 151.189 18.6484C151.459 18.4609 151.754 18.3229 152.078 18.2344C152.4 18.1458 152.748 18.1016 153.119 18.1016C153.771 18.1016 154.339 18.2135 154.823 18.4375C155.308 18.6562 155.684 19.0026 155.954 19.4766C156.223 19.9453 156.357 20.5547 156.357 21.3047V27H153.894V21.8984C153.894 21.2734 153.776 20.8021 153.54 20.4844C153.303 20.1667 152.936 20.0078 152.441 20.0078C151.946 20.0078 151.555 20.1198 151.27 20.3438C150.984 20.5625 150.783 20.888 150.664 21.3203C150.546 21.7474 150.487 22.2708 150.487 22.8906V27H148.024V14.8438H150.487ZM162.616 18.1016C163.45 18.1016 164.17 18.2578 164.773 18.5703C165.375 18.8776 165.841 19.3255 166.169 19.9141C166.498 20.5026 166.662 21.2214 166.662 22.0703V23.2266H160.839C160.866 23.8984 161.074 24.4271 161.462 24.8125C161.854 25.1927 162.398 25.3828 163.093 25.3828C163.669 25.3828 164.197 25.3255 164.675 25.2109C165.155 25.0964 165.647 24.9245 166.153 24.6953V26.5391C165.707 26.7526 165.238 26.9089 164.748 27.0078C164.264 27.1068 163.674 27.1562 162.979 27.1562C162.076 27.1562 161.272 26.9948 160.573 26.6719C159.878 26.349 159.332 25.8568 158.933 25.1953C158.54 24.5339 158.344 23.7005 158.344 22.6953C158.344 21.6745 158.522 20.8255 158.877 20.1484C159.238 19.4661 159.739 18.9557 160.379 18.6172C161.02 18.2734 161.766 18.1016 162.616 18.1016ZM162.633 19.7969C162.153 19.7969 161.755 19.9453 161.437 20.2422C161.125 20.5391 160.945 21.0052 160.896 21.6406H164.353C164.347 21.2865 164.279 20.9714 164.15 20.6953C164.027 20.4193 163.838 20.2005 163.585 20.0391C163.338 19.8776 163.02 19.7969 162.633 19.7969ZM173.704 18.1016C173.827 18.1016 173.97 18.1094 174.132 18.125C174.299 18.1354 174.433 18.151 174.536 18.1719L174.349 20.4062C174.269 20.3802 174.153 20.362 174.003 20.3516C173.857 20.3359 173.731 20.3281 173.623 20.3281C173.305 20.3281 172.996 20.3672 172.695 20.4453C172.398 20.5234 172.132 20.651 171.896 20.8281C171.658 21 171.47 21.2292 171.33 21.5156C171.195 21.7969 171.128 22.1432 171.128 22.5547V27H168.664V18.2656H170.53L170.894 19.7344H171.015C171.193 19.4375 171.413 19.1667 171.677 18.9219C171.946 18.6719 172.25 18.474 172.589 18.3281C172.934 18.1771 173.305 18.1016 173.704 18.1016Z" fill="currentColor"></path></symbol><symbol viewBox="0 0 102 58" fill="currentColor" xmlns="http://www.w3.org/2000/svg" id="youtogether-vertical"><g clip-path="url(#clip0_252_330)"><path d="M23.5029 26.1372C22.7804 26.8592 22.3469 27.87 22.3469 28.8809C22.3469 30.0361 22.7804 30.9025 23.5029 31.6245C24.2254 32.3466 25.2369 32.7798 26.3929 32.7798C27.5489 32.7798 28.5604 32.3466 29.2829 31.6245C30.0054 30.9025 30.4389 29.8917 30.4389 28.8809C30.4389 27.7256 30.0054 26.8592 29.2829 26.1372C28.5604 25.4152 27.5489 24.9819 26.3929 24.9819C25.2369 24.9819 24.2254 25.4152 23.5029 26.1372ZM78.5573 28.8809C78.5573 27.7256 78.1239 26.8592 77.4013 26.1372C76.6788 25.4152 75.6673 24.9819 74.5114 24.9819C73.3553 24.9819 72.3438 25.4152 71.6214 26.1372C70.8988 26.8592 70.4653 27.87 70.4653 28.8809C70.4653 30.0361 70.8988 30.9025 71.6214 31.6245C72.3438 32.3466 73.3553 32.7798 74.5114 32.7798C75.6673 32.7798 76.6788 32.3466 77.4013 31.6245C78.1239 31.0469 78.5573 30.0361 78.5573 28.8809ZM66.4193 7.36462C66.1303 6.35379 65.5523 5.48736 64.5409 4.90975L64.3964 4.76534C63.5293 4.33213 62.3733 4.18772 61.5064 4.47653C60.4948 4.76534 59.6278 5.34296 59.0498 6.35379C58.4719 7.22022 58.4719 8.37545 58.7609 9.24187C59.0498 10.2527 59.6278 11.1191 60.6393 11.6967C61.6509 12.2744 62.6623 12.4188 63.6738 12.13C64.6854 11.8412 65.5523 11.2635 66.1303 10.2527C66.5638 9.38628 66.7083 8.37545 66.4193 7.36462ZM46.3338 24.8375C45.3224 25.8484 44.5999 27.2924 44.5999 28.8809C44.5999 30.4693 45.3224 31.9134 46.3338 32.9242C47.3454 33.935 48.7904 34.657 50.3798 34.657C51.9694 34.657 53.4143 34.0794 54.5704 32.9242C55.5819 31.9134 56.3043 30.4693 56.3043 28.8809C56.3043 27.2924 55.5819 25.8484 54.5704 24.8375C53.5588 23.8267 52.1139 23.1047 50.3798 23.1047C48.6459 23.1047 47.4899 23.8267 46.3338 24.8375ZM39.5423 27.148C39.9758 24.8375 40.9874 22.8159 42.7213 21.2274C43.0103 20.9386 43.2993 20.7942 43.5883 20.5054L41.2764 16.6065C39.6868 17.1841 37.9529 17.1841 36.3633 16.7509C34.1959 16.1733 32.3174 14.8736 31.1614 12.7076C30.0053 10.6859 29.7163 8.37545 30.2944 6.35379C30.8724 4.18773 32.3174 2.31047 34.3404 1.15523C36.3633 7.15256e-07 38.8199 -0.288809 40.9874 0.288809C43.1548 0.866426 45.0334 2.16607 46.1893 4.33213L46.4783 4.90975C47.3454 6.787 47.4899 8.80866 47.0563 10.8303C46.6228 12.4188 45.7559 13.8628 44.4554 15.018L46.7673 18.917C47.9234 18.4838 49.3683 18.1949 50.6689 18.1949C52.1139 18.1949 53.4143 18.4838 54.5704 18.917L56.8823 15.018C55.5819 13.8628 54.7149 12.4188 54.2814 10.8303C53.7033 8.66426 53.9924 6.35379 55.1484 4.33213V4.18773C56.3043 2.16607 58.1829 0.866426 60.3503 0.288809C62.5178 -0.288809 64.8299 7.15256e-07 66.8528 1.15523H66.9973C69.0203 2.31047 70.3208 4.18773 70.8988 6.20939C71.4769 8.37545 71.1879 10.6859 70.0318 12.7076C68.8758 14.7292 66.8528 16.1733 64.8299 16.7509C63.2403 17.1841 61.5064 17.1841 59.9168 16.6065L57.6049 20.5054C57.8939 20.7942 58.1829 20.9386 58.4719 21.2274C60.0613 22.8159 61.2174 24.8375 61.6509 27.148H66.2748C66.5638 25.5596 67.4308 23.9711 68.5868 22.9603C70.1763 21.3718 72.3438 20.5054 74.6559 20.5054C76.9678 20.5054 79.1353 21.5162 80.7248 22.9603C82.3143 24.5487 83.3258 26.5704 83.3258 29.0253C83.3258 31.3357 82.3143 33.5018 80.7248 35.0903C79.1353 36.6787 76.9678 37.5451 74.6559 37.5451C72.1993 37.5451 70.0318 36.5343 68.5868 35.0903C67.4308 33.935 66.5638 32.491 66.2748 30.9025H61.6509C61.2174 33.213 60.2058 35.2347 58.4719 36.8231C56.4488 38.8448 53.7033 40 50.6689 40C47.6344 40 44.8889 38.7004 42.8658 36.8231C41.2764 35.2347 40.1203 33.213 39.6868 30.9025H35.0629C34.7739 32.491 33.9069 33.935 32.7508 35.0903C31.1614 36.6787 28.9939 37.5451 26.6819 37.5451C24.3699 37.5451 22.0579 36.5343 20.6129 35.0903C19.0234 33.5018 18.0119 31.4801 18.0119 29.0253C18.0119 26.7148 19.0234 24.5487 20.6129 22.9603C22.2024 21.3718 24.3699 20.5054 26.6819 20.5054C29.1384 20.5054 31.3059 21.5162 32.7508 22.9603C33.9069 24.1155 34.7739 25.5596 35.0629 27.148C34.9184 27.148 39.5423 27.148 39.5423 27.148ZM36.3633 4.90975C35.3519 5.48736 34.7739 6.35379 34.4849 7.36462C34.1959 8.37545 34.3404 9.38628 34.9184 10.3971C35.4964 11.4079 36.3633 11.9856 37.3749 12.2744C38.3864 12.5632 39.5423 12.4188 40.4094 11.8412C41.4209 11.2635 41.9989 10.3971 42.2879 9.38628C42.5768 8.37545 42.4324 7.36462 41.8544 6.35379C41.2764 5.48736 40.4094 4.76534 39.3978 4.62094C38.5309 4.33213 37.3749 4.47653 36.3633 4.90975Z" fill="var(--header-logo)"></path><path d="M0 45.2655H2.61111L4.26063 50.1796C4.31275 50.3358 4.35705 50.4948 4.39353 50.6562C4.43001 50.8177 4.46128 50.9844 4.48735 51.1562C4.5134 51.3281 4.53425 51.5078 4.54989 51.6953H4.59679C4.62806 51.4141 4.66976 51.151 4.72187 50.9062C4.7792 50.6615 4.84956 50.4192 4.93295 50.1796L6.55121 45.2655H9.10758L5.40983 55.1171C5.18572 55.7213 4.89386 56.224 4.53425 56.625C4.17464 57.0312 3.7603 57.3359 3.29124 57.5391C2.82739 57.7422 2.31663 57.8438 1.75897 57.8438C1.48796 57.8438 1.25343 57.8281 1.05539 57.7969C0.857338 57.7708 0.687955 57.7421 0.547237 57.7108V55.8203C0.656684 55.8464 0.794797 55.8697 0.961574 55.8905C1.12835 55.9114 1.30294 55.9219 1.48536 55.9219C1.81891 55.9219 2.10556 55.8515 2.3453 55.7108C2.58504 55.5702 2.78569 55.3801 2.94726 55.1405C3.10883 54.9061 3.23652 54.6483 3.33032 54.3671L3.47105 53.9375L0 45.2655ZM18.309 49.6171C18.309 50.3463 18.2099 50.9921 18.0119 51.5546C17.8191 52.1171 17.535 52.5938 17.1597 52.9844C16.7897 53.3698 16.3415 53.6615 15.8152 53.8594C15.294 54.0573 14.705 54.1562 14.0484 54.1562C13.4334 54.1562 12.8679 54.0573 12.352 53.8594C11.8411 53.6615 11.3955 53.3698 11.0151 52.9844C10.6398 52.5938 10.3479 52.1171 10.1395 51.5546C9.93626 50.9921 9.83462 50.3463 9.83462 49.6171C9.83462 48.6483 10.0066 47.8281 10.3506 47.1562C10.6946 46.4844 11.1845 45.974 11.8203 45.625C12.4561 45.276 13.2144 45.1016 14.0952 45.1016C14.9135 45.1016 15.6379 45.276 16.2686 45.625C16.9044 45.974 17.4021 46.4844 17.7617 47.1562C18.1266 47.8281 18.309 48.6483 18.309 49.6171ZM12.2659 49.6171C12.2659 50.19 12.3285 50.6719 12.4535 51.0625C12.5786 51.4531 12.774 51.7474 13.0398 51.9453C13.3057 52.1432 13.6522 52.2421 14.0796 52.2421C14.5018 52.2421 14.8431 52.1432 15.1038 51.9453C15.3696 51.7474 15.5624 51.4531 15.6823 51.0625C15.8074 50.6719 15.8699 50.19 15.8699 49.6171C15.8699 49.039 15.8074 48.5598 15.6823 48.1796C15.5624 47.7942 15.3696 47.5052 15.1038 47.3125C14.8379 47.1198 14.4914 47.0233 14.064 47.0233C13.4334 47.0233 12.9747 47.2396 12.6881 47.6719C12.4066 48.1042 12.2659 48.7525 12.2659 49.6171ZM28.2999 45.2655V54H26.4706L26.1501 52.8828H26.025C25.8374 53.1797 25.6028 53.4219 25.3214 53.6094C25.04 53.7969 24.7299 53.9348 24.3911 54.0233C24.0524 54.1119 23.7006 54.1562 23.3357 54.1562C22.7103 54.1562 22.1657 54.0468 21.7019 53.828C21.238 53.6041 20.8758 53.2578 20.6152 52.7891C20.3599 52.3203 20.2322 51.7108 20.2322 50.9608V45.2655H22.6166V50.3671C22.6166 50.9921 22.7285 51.4635 22.9527 51.7812C23.1768 52.099 23.5338 52.2578 24.0237 52.2578C24.5084 52.2578 24.8889 52.1483 25.165 51.9296C25.4413 51.7056 25.6342 51.3801 25.7436 50.953C25.8582 50.5207 25.9155 49.9948 25.9155 49.375V45.2655H28.2999ZM34.4837 52.2578C34.7444 52.2578 34.9971 52.2317 35.2421 52.1796C35.4923 52.1275 35.7397 52.0625 35.9847 51.9844V53.7578C35.7293 53.8724 35.4114 53.9661 35.031 54.0391C34.6557 54.1172 34.244 54.1562 33.7957 54.1562C33.2746 54.1562 32.8056 54.0729 32.3886 53.9062C31.9768 53.7344 31.6511 53.44 31.4114 53.0233C31.1768 52.6015 31.0596 52.0155 31.0596 51.2655V47.0546H29.9182V46.0469L31.2316 45.25L31.9195 43.4062H33.444V45.2655H35.8909V47.0546H33.444V51.2655C33.444 51.5989 33.5378 51.8489 33.7254 52.0155C33.9182 52.177 34.171 52.2578 34.4837 52.2578ZM45.7021 49.6171C45.7021 50.3463 45.6031 50.9921 45.405 51.5546C45.2122 52.1171 44.9281 52.5938 44.5529 52.9844C44.1828 53.3698 43.7346 53.6615 43.2083 53.8594C42.6871 54.0573 42.0981 54.1562 41.4415 54.1562C40.8265 54.1562 40.261 54.0573 39.7451 53.8594C39.2342 53.6615 38.7887 53.3698 38.4082 52.9844C38.033 52.5938 37.7411 52.1171 37.5326 51.5546C37.3294 50.9921 37.2277 50.3463 37.2277 49.6171C37.2277 48.6483 37.3997 47.8281 37.7438 47.1562C38.0877 46.4844 38.5776 45.974 39.2134 45.625C39.8493 45.276 40.6076 45.1016 41.4883 45.1016C42.3066 45.1016 43.0311 45.276 43.6617 45.625C44.2975 45.974 44.7952 46.4844 45.1549 47.1562C45.5197 47.8281 45.7021 48.6483 45.7021 49.6171ZM39.659 49.6171C39.659 50.19 39.7216 50.6719 39.8467 51.0625C39.9717 51.4531 40.1672 51.7474 40.4329 51.9453C40.6988 52.1432 41.0453 52.2421 41.4727 52.2421C41.8949 52.2421 42.2362 52.1432 42.4969 51.9453C42.7627 51.7474 42.9555 51.4531 43.0754 51.0625C43.2005 50.6719 43.263 50.19 43.263 49.6171C43.263 49.039 43.2005 48.5598 43.0754 48.1796C42.9555 47.7942 42.7627 47.5052 42.4969 47.3125C42.231 47.1198 41.8845 47.0233 41.4571 47.0233C40.8265 47.0233 40.3678 47.2396 40.0812 47.6719C39.7997 48.1042 39.659 48.7525 39.659 49.6171ZM50.2285 57.8438C49.009 57.8438 48.0761 57.6301 47.4298 57.203C46.7887 56.7811 46.4682 56.1875 46.4682 55.4219C46.4682 54.8958 46.6324 54.4557 46.9608 54.1016C47.2891 53.7474 47.7712 53.4947 48.407 53.3438C48.162 53.2396 47.9484 53.0702 47.766 52.8358C47.5836 52.5963 47.4923 52.3437 47.4923 52.078C47.4923 51.7447 47.5888 51.4688 47.7816 51.25C47.9744 51.026 48.2533 50.8072 48.6181 50.5938C48.1594 50.3958 47.7946 50.078 47.5236 49.6405C47.2579 49.203 47.125 48.6874 47.125 48.0938C47.125 47.4582 47.2631 46.9193 47.5392 46.4766C47.8207 46.0286 48.2272 45.6874 48.7588 45.453C49.2956 45.2187 49.9471 45.1016 50.7132 45.1016C50.8747 45.1016 51.0624 45.112 51.2761 45.1328C51.4897 45.1536 51.6852 45.177 51.8624 45.203C52.0448 45.2291 52.1673 45.2499 52.2298 45.2655H55.2788V46.4766L53.9107 46.828C54.0357 47.0207 54.1296 47.2266 54.192 47.4453C54.2547 47.6641 54.2859 47.8957 54.2859 48.1405C54.2859 49.078 53.9576 49.8098 53.3008 50.3358C52.6494 50.8567 51.7425 51.1171 50.5804 51.1171C50.3041 51.1015 50.0435 51.0806 49.7985 51.0546C49.6787 51.1483 49.5875 51.2474 49.5249 51.3516C49.4624 51.4557 49.4311 51.565 49.4311 51.6796C49.4311 51.7942 49.478 51.8906 49.5719 51.9688C49.6708 52.0416 49.8168 52.0989 50.0097 52.1405C50.2077 52.177 50.4527 52.1953 50.7445 52.1953H52.2298C53.1888 52.1953 53.9185 52.401 54.4188 52.8125C54.9243 53.224 55.1771 53.8281 55.1771 54.625C55.1771 55.6458 54.7497 56.4375 53.895 57C53.0455 57.5625 51.8234 57.8438 50.2285 57.8438ZM50.3302 56.2891C50.8983 56.2891 51.3856 56.2344 51.7921 56.125C52.2038 56.0208 52.5191 55.8698 52.738 55.6719C52.9569 55.4792 53.0663 55.2474 53.0663 54.9766C53.0663 54.7578 53.0011 54.5832 52.8709 54.453C52.7458 54.328 52.553 54.2396 52.2924 54.1875C52.037 54.1354 51.7087 54.1094 51.3073 54.1094H50.0722C49.7803 54.1094 49.5171 54.1562 49.2826 54.25C49.0532 54.3438 48.8708 54.4739 48.7353 54.6405C48.5998 54.8124 48.5321 55.0104 48.5321 55.2344C48.5321 55.5625 48.6884 55.8203 49.0012 56.0078C49.3191 56.1953 49.7621 56.2891 50.3302 56.2891ZM50.7132 49.6641C51.1614 49.6641 51.4898 49.526 51.6983 49.25C51.9067 48.974 52.011 48.599 52.011 48.125C52.011 47.599 51.9015 47.2057 51.6826 46.9453C51.4689 46.6797 51.1458 46.5469 50.7132 46.5469C50.2754 46.5469 49.9471 46.6797 49.7282 46.9453C49.5093 47.2057 49.3999 47.599 49.3999 48.125C49.3999 48.599 49.5067 48.974 49.7204 49.25C49.9392 49.526 50.2702 49.6641 50.7132 49.6641ZM60.329 45.1016C61.1368 45.1016 61.8326 45.2578 62.4163 45.5703C63 45.8776 63.4509 46.3255 63.7688 46.9141C64.0867 47.5026 64.2456 48.2214 64.2456 49.0703V50.2266H58.6091C58.6352 50.8984 58.8358 51.4271 59.2111 51.8125C59.5915 52.1927 60.1179 52.3828 60.7902 52.3828C61.3479 52.3828 61.8586 52.3254 62.3224 52.2108C62.7863 52.0963 63.2632 51.9245 63.7531 51.6953V53.5391C63.3205 53.7526 62.8671 53.9089 62.3929 54.0078C61.9238 54.1068 61.3531 54.1562 60.6807 54.1562C59.8051 54.1562 59.0286 53.9948 58.3511 53.6719C57.6787 53.349 57.1498 52.8568 56.7641 52.1953C56.3837 51.5339 56.1934 50.7005 56.1934 49.6953C56.1934 48.6745 56.3654 47.8254 56.7094 47.1483C57.0585 46.466 57.5433 45.9556 58.1635 45.6171C58.7837 45.2733 59.5055 45.1016 60.329 45.1016ZM60.3446 46.7969C59.8807 46.7969 59.495 46.9452 59.1875 47.2421C58.8853 47.539 58.7107 48.0051 58.6638 48.6405H62.0098C62.0045 48.2864 61.9394 47.9714 61.8143 47.6953C61.6944 47.4193 61.5121 47.2005 61.2671 47.0391C61.0274 46.8776 60.7199 46.7969 60.3446 46.7969ZM69.8665 52.2578C70.1271 52.2578 70.3798 52.2317 70.6248 52.1796C70.875 52.1275 71.1225 52.0625 71.3675 51.9844V53.7578C71.1121 53.8724 70.7942 53.9661 70.4138 54.0391C70.0385 54.1172 69.6267 54.1562 69.1785 54.1562C68.6574 54.1562 68.1883 54.0729 67.7714 53.9062C67.3596 53.7344 67.0339 53.44 66.7942 53.0233C66.5596 52.6015 66.4423 52.0155 66.4423 51.2655V47.0546H65.301V46.0469L66.6143 45.25L67.3023 43.4062H68.8267V45.2655H71.2737V47.0546H68.8267V51.2655C68.8267 51.5989 68.9206 51.8489 69.1082 52.0155C69.301 52.177 69.5538 52.2578 69.8665 52.2578ZM75.5265 41.8438V44.3203C75.5265 44.7526 75.5108 45.164 75.4796 45.5546C75.4535 45.9452 75.4327 46.2214 75.4171 46.3828H75.5422C75.7298 46.0807 75.9512 45.8358 76.2066 45.6483C76.4673 45.4608 76.7539 45.3229 77.0666 45.2344C77.3793 45.1458 77.7155 45.1016 78.075 45.1016C78.7056 45.1016 79.2555 45.2135 79.7246 45.4375C80.1936 45.6562 80.5585 46.0026 80.819 46.4766C81.0796 46.9453 81.2099 47.5546 81.2099 48.3046V54H78.8255V48.8983C78.8255 48.2733 78.711 47.8021 78.4816 47.4844C78.2523 47.1667 77.8979 47.0078 77.4184 47.0078C76.9389 47.0078 76.561 47.1197 76.2848 47.3438C76.0086 47.5625 75.8131 47.888 75.6985 48.3203C75.5839 48.7474 75.5265 49.2707 75.5265 49.8905V54H73.1422V41.8438H75.5265ZM87.2686 45.1016C88.0764 45.1016 88.7722 45.2578 89.356 45.5703C89.9397 45.8776 90.3905 46.3255 90.7084 46.9141C91.0263 47.5026 91.1853 48.2214 91.1853 49.0703V50.2266H85.5488C85.5748 50.8984 85.7755 51.4271 86.1508 51.8125C86.5312 52.1927 87.0576 52.3828 87.7299 52.3828C88.2876 52.3828 88.7983 52.3254 89.2621 52.2108C89.726 52.0963 90.2028 51.9245 90.6928 51.6953V53.5391C90.2602 53.7526 89.8068 53.9089 89.3325 54.0078C88.8635 54.1068 88.2928 54.1562 87.6204 54.1562C86.7449 54.1562 85.9683 53.9948 85.2908 53.6719C84.6185 53.349 84.0895 52.8568 83.7038 52.1953C83.3233 51.5339 83.1331 50.7005 83.1331 49.6953C83.1331 48.6745 83.3051 47.8254 83.6491 47.1483C83.9983 46.466 84.483 45.9556 85.1032 45.6171C85.7234 45.2733 86.4452 45.1016 87.2686 45.1016ZM87.2843 46.7969C86.8204 46.7969 86.4348 46.9452 86.1273 47.2421C85.825 47.539 85.6504 48.0051 85.6035 48.6405H88.9494C88.9442 48.2864 88.8791 47.9714 88.754 47.6953C88.6341 47.4193 88.4517 47.2005 88.2067 47.0391C87.9671 46.8776 87.6596 46.7969 87.2843 46.7969ZM98.0023 45.1016C98.1222 45.1016 98.2603 45.1094 98.4167 45.125C98.5782 45.1354 98.7085 45.151 98.8075 45.1719L98.6277 47.4062C98.5496 47.3802 98.4375 47.362 98.2916 47.3516C98.1508 47.3359 98.0283 47.328 97.9242 47.328C97.6167 47.328 97.317 47.3672 97.0251 47.4453C96.7385 47.5234 96.4805 47.6509 96.2512 47.828C96.0218 47.9999 95.8394 48.2291 95.7039 48.5155C95.5736 48.7968 95.5085 49.1431 95.5085 49.5546V54H93.1241V45.2655H94.93L95.2818 46.7344H95.399C95.571 46.4375 95.7847 46.1667 96.0401 45.9219C96.3007 45.6719 96.5951 45.4739 96.9235 45.328C97.257 45.177 97.6167 45.1016 98.0023 45.1016Z" fill="currentColor" fill-opacity="1"></path></g><defs><clipPath id="clip0_252_330"><rect width="101.067" height="58" fill="currentColor"></rect></clipPath></defs></symbol></svg>