<svg width="0" height="0" class="hidden"><symbol viewBox="0 0 15 15" fill="none" xmlns="http://www.w3.org/2000/svg" id="gear"><path fill-rule="evenodd" clip-rule="evenodd" d="M7.07095 0.650238C6.67391 0.650238 6.32977 0.925096 6.24198 1.31231L6.0039 2.36247C5.6249 2.47269 5.26335 2.62363 4.92436 2.81013L4.01335 2.23585C3.67748 2.02413 3.23978 2.07312 2.95903 2.35386L2.35294 2.95996C2.0722 3.2407 2.0232 3.6784 2.23493 4.01427L2.80942 4.92561C2.62307 5.2645 2.47227 5.62594 2.36216 6.00481L1.31209 6.24287C0.924883 6.33065 0.650024 6.6748 0.650024 7.07183V7.92897C0.650024 8.32601 0.924883 8.67015 1.31209 8.75794L2.36228 8.99603C2.47246 9.375 2.62335 9.73652 2.80979 10.0755L2.2354 10.9867C2.02367 11.3225 2.07267 11.7602 2.35341 12.041L2.95951 12.6471C3.24025 12.9278 3.67795 12.9768 4.01382 12.7651L4.92506 12.1907C5.26384 12.377 5.62516 12.5278 6.0039 12.6379L6.24198 13.6881C6.32977 14.0753 6.67391 14.3502 7.07095 14.3502H7.92809C8.32512 14.3502 8.66927 14.0753 8.75705 13.6881L8.99505 12.6383C9.37411 12.5282 9.73573 12.3773 10.0748 12.1909L10.986 12.7653C11.3218 12.977 11.7595 12.928 12.0403 12.6473L12.6464 12.0412C12.9271 11.7604 12.9761 11.3227 12.7644 10.9869L12.1902 10.076C12.3768 9.73688 12.5278 9.37515 12.638 8.99596L13.6879 8.75794C14.0751 8.67015 14.35 8.32601 14.35 7.92897V7.07183C14.35 6.6748 14.0751 6.33065 13.6879 6.24287L12.6381 6.00488C12.528 5.62578 12.3771 5.26414 12.1906 4.92507L12.7648 4.01407C12.9766 3.6782 12.9276 3.2405 12.6468 2.95975L12.0407 2.35366C11.76 2.07292 11.3223 2.02392 10.9864 2.23565L10.0755 2.80989C9.73622 2.62328 9.37437 2.47229 8.99505 2.36209L8.75705 1.31231C8.66927 0.925096 8.32512 0.650238 7.92809 0.650238H7.07095ZM4.92053 3.81251C5.44724 3.44339 6.05665 3.18424 6.71543 3.06839L7.07095 1.50024H7.92809L8.28355 3.06816C8.94267 3.18387 9.5524 3.44302 10.0794 3.81224L11.4397 2.9547L12.0458 3.56079L11.1882 4.92117C11.5573 5.44798 11.8164 6.0575 11.9321 6.71638L13.5 7.07183V7.92897L11.932 8.28444C11.8162 8.94342 11.557 9.55301 11.1878 10.0798L12.0453 11.4402L11.4392 12.0462L10.0787 11.1886C9.55192 11.5576 8.94241 11.8166 8.28355 11.9323L7.92809 13.5002H7.07095L6.71543 11.932C6.0569 11.8162 5.44772 11.5572 4.92116 11.1883L3.56055 12.046L2.95445 11.4399L3.81213 10.0794C3.4431 9.55266 3.18403 8.94326 3.06825 8.2845L1.50002 7.92897V7.07183L3.06818 6.71632C3.18388 6.05765 3.44283 5.44833 3.81171 4.92165L2.95398 3.561L3.56008 2.95491L4.92053 3.81251ZM9.02496 7.50008C9.02496 8.34226 8.34223 9.02499 7.50005 9.02499C6.65786 9.02499 5.97513 8.34226 5.97513 7.50008C5.97513 6.65789 6.65786 5.97516 7.50005 5.97516C8.34223 5.97516 9.02496 6.65789 9.02496 7.50008ZM9.92496 7.50008C9.92496 8.83932 8.83929 9.92499 7.50005 9.92499C6.1608 9.92499 5.07513 8.83932 5.07513 7.50008C5.07513 6.16084 6.1608 5.07516 7.50005 5.07516C8.83929 5.07516 9.92496 6.16084 9.92496 7.50008Z" fill="currentColor"></path></symbol><symbol viewBox="0 0 15 15" fill="none" xmlns="http://www.w3.org/2000/svg" id="globe"><path fill-rule="evenodd" clip-rule="evenodd" d="M5.71111 2.08636C4.3215 2.54526 3.16848 3.52427 2.48255 4.79287C3.1118 4.54331 3.81828 4.35091 4.56556 4.21404C4.84371 3.44831 5.22506 2.72734 5.71111 2.08636ZM1.81372 7.09999C1.84617 6.63198 1.93511 6.17953 2.07378 5.7494C2.70145 5.41606 3.47364 5.15686 4.32668 4.97486C4.14234 5.66568 4.03633 6.38187 4.00765 7.09999H1.81372ZM4.70822 7.09999C4.74138 6.32556 4.87085 5.55987 5.09512 4.83494C5.73908 4.73671 6.41525 4.67891 7.09993 4.6627V7.09999H4.70822ZM7.89993 7.09999V4.6627C8.6076 4.67945 9.30619 4.74063 9.96952 4.84496C10.1993 5.56709 10.332 6.32933 10.3661 7.09999H7.89993ZM7.89993 3.96252C8.50276 3.97624 9.10489 4.02104 9.6903 4.09764C9.32213 3.24574 8.80653 2.47205 8.14611 1.83625C8.06456 1.82705 7.98249 1.81957 7.89993 1.81384V3.96252ZM11.0667 7.09999C11.0373 6.38685 10.9294 5.6758 10.7419 4.98972C11.5677 5.17084 12.3152 5.42498 12.926 5.74931C13.0647 6.17946 13.1536 6.63195 13.1861 7.09999H11.0667ZM10.4959 4.22545C11.2204 4.36151 11.9053 4.55013 12.5172 4.7928C11.8363 3.53347 10.6951 2.55954 9.31904 2.09647C9.81849 2.738 10.2103 3.45937 10.4959 4.22545ZM5.36524 4.09047C5.93312 4.01824 6.51619 3.97581 7.09993 3.96252V1.81384C7.01833 1.8195 6.9372 1.82687 6.85658 1.83593C6.21951 2.46985 5.72146 3.24106 5.36524 4.09047ZM4.00765 7.89999H1.81372C1.84045 8.28567 1.90555 8.66078 2.00523 9.02154C2.63236 9.36589 3.4112 9.63377 4.27491 9.82193C4.12237 9.19434 4.03353 8.54795 4.00765 7.89999ZM4.49381 10.5806C3.7239 10.4354 2.99887 10.2308 2.35896 9.96492C3.02467 11.3509 4.23432 12.426 5.71121 12.9137C5.18189 12.2157 4.77673 11.4228 4.49381 10.5806ZM5.28353 10.7069C5.87711 10.7856 6.48815 10.8315 7.09993 10.8454V13.1862C7.01836 13.1806 6.93727 13.1732 6.85668 13.1641C6.16927 12.4801 5.64371 11.6363 5.28353 10.7069ZM7.09993 10.1453C6.39413 10.1285 5.69736 10.0676 5.03561 9.96381C4.84784 9.29905 4.73833 8.60312 4.70822 7.89999H7.09993V10.1453ZM7.89993 10.8454V13.1862C7.98245 13.1805 8.0645 13.173 8.14602 13.1638C8.85864 12.4778 9.40266 11.6312 9.77479 10.699C9.1629 10.7825 8.5318 10.8311 7.89993 10.8454ZM10.0309 9.9532C9.34937 10.0635 8.62947 10.128 7.89993 10.1453V7.89999H10.3661C10.3352 8.59922 10.2231 9.29151 10.0309 9.9532ZM10.5698 10.5684C10.2794 11.4113 9.86302 12.2048 9.31896 12.9036C10.782 12.4113 11.9797 11.3414 12.6408 9.965C12.0186 10.2235 11.316 10.4241 10.5698 10.5684ZM12.9945 9.02164C12.3845 9.35661 11.6308 9.6192 10.7951 9.80645C10.9499 9.18383 11.0402 8.54276 11.0667 7.89999H13.1861C13.1594 8.2857 13.0942 8.66085 12.9945 9.02164ZM0.899902 7.50002C0.899902 3.85495 3.85482 0.900024 7.4999 0.900024C11.145 0.900024 14.0999 3.85495 14.0999 7.50002C14.0999 11.1451 11.145 14.1 7.4999 14.1C3.85482 14.1 0.899902 11.1451 0.899902 7.50002Z" fill="currentColor"></path></symbol><symbol viewBox="0 0 15 15" fill="none" xmlns="http://www.w3.org/2000/svg" id="magic-wand"><path fill-rule="evenodd" clip-rule="evenodd" d="M13.9 0.499976C13.9 0.279062 13.7209 0.0999756 13.5 0.0999756C13.2791 0.0999756 13.1 0.279062 13.1 0.499976V1.09998H12.5C12.2791 1.09998 12.1 1.27906 12.1 1.49998C12.1 1.72089 12.2791 1.89998 12.5 1.89998H13.1V2.49998C13.1 2.72089 13.2791 2.89998 13.5 2.89998C13.7209 2.89998 13.9 2.72089 13.9 2.49998V1.89998H14.5C14.7209 1.89998 14.9 1.72089 14.9 1.49998C14.9 1.27906 14.7209 1.09998 14.5 1.09998H13.9V0.499976ZM11.8536 3.14642C12.0488 3.34168 12.0488 3.65826 11.8536 3.85353L10.8536 4.85353C10.6583 5.04879 10.3417 5.04879 10.1465 4.85353C9.9512 4.65827 9.9512 4.34169 10.1465 4.14642L11.1464 3.14643C11.3417 2.95116 11.6583 2.95116 11.8536 3.14642ZM9.85357 5.14642C10.0488 5.34168 10.0488 5.65827 9.85357 5.85353L2.85355 12.8535C2.65829 13.0488 2.34171 13.0488 2.14645 12.8535C1.95118 12.6583 1.95118 12.3417 2.14645 12.1464L9.14646 5.14642C9.34172 4.95116 9.65831 4.95116 9.85357 5.14642ZM13.5 5.09998C13.7209 5.09998 13.9 5.27906 13.9 5.49998V6.09998H14.5C14.7209 6.09998 14.9 6.27906 14.9 6.49998C14.9 6.72089 14.7209 6.89998 14.5 6.89998H13.9V7.49998C13.9 7.72089 13.7209 7.89998 13.5 7.89998C13.2791 7.89998 13.1 7.72089 13.1 7.49998V6.89998H12.5C12.2791 6.89998 12.1 6.72089 12.1 6.49998C12.1 6.27906 12.2791 6.09998 12.5 6.09998H13.1V5.49998C13.1 5.27906 13.2791 5.09998 13.5 5.09998ZM8.90002 0.499976C8.90002 0.279062 8.72093 0.0999756 8.50002 0.0999756C8.2791 0.0999756 8.10002 0.279062 8.10002 0.499976V1.09998H7.50002C7.2791 1.09998 7.10002 1.27906 7.10002 1.49998C7.10002 1.72089 7.2791 1.89998 7.50002 1.89998H8.10002V2.49998C8.10002 2.72089 8.2791 2.89998 8.50002 2.89998C8.72093 2.89998 8.90002 2.72089 8.90002 2.49998V1.89998H9.50002C9.72093 1.89998 9.90002 1.72089 9.90002 1.49998C9.90002 1.27906 9.72093 1.09998 9.50002 1.09998H8.90002V0.499976Z" fill="currentColor"></path></symbol><symbol viewBox="0 0 15 15" fill="none" xmlns="http://www.w3.org/2000/svg" id="person"><path fill-rule="evenodd" clip-rule="evenodd" d="M7.5 0.875C5.49797 0.875 3.875 2.49797 3.875 4.5C3.875 6.15288 4.98124 7.54738 6.49373 7.98351C5.2997 8.12901 4.27557 8.55134 3.50407 9.31167C2.52216 10.2794 2.02502 11.72 2.02502 13.5999C2.02502 13.8623 2.23769 14.0749 2.50002 14.0749C2.76236 14.0749 2.97502 13.8623 2.97502 13.5999C2.97502 11.8799 3.42786 10.7206 4.17091 9.9883C4.91536 9.25463 6.02674 8.87499 7.49995 8.87499C8.97317 8.87499 10.0846 9.25463 10.8291 9.98831C11.5721 10.7206 12.025 11.8799 12.025 13.5999C12.025 13.8623 12.2376 14.0749 12.5 14.0749C12.7623 14.075 12.975 13.8623 12.975 13.6C12.975 11.72 12.4778 10.2794 11.4959 9.31166C10.7244 8.55135 9.70025 8.12903 8.50625 7.98352C10.0187 7.5474 11.125 6.15289 11.125 4.5C11.125 2.49797 9.50203 0.875 7.5 0.875ZM4.825 4.5C4.825 3.02264 6.02264 1.825 7.5 1.825C8.97736 1.825 10.175 3.02264 10.175 4.5C10.175 5.97736 8.97736 7.175 7.5 7.175C6.02264 7.175 4.825 5.97736 4.825 4.5Z" fill="currentColor"></path></symbol></svg>