<svg width="15" height="15" viewBox="0 0 15 15" fill="none" xmlns="http://www.w3.org/2000/svg">
<path fill-rule="evenodd" clip-rule="evenodd" d="M6.85257 0.650208C6.45553 0.650208 6.11139 0.925066 6.0236 1.31228L5.78552 2.36244C5.40652 2.47266 5.04497 2.6236 4.70598 2.8101L3.79497 2.23582C3.4591 2.0241 3.0214 2.07309 2.74065 2.35383L2.13456 2.95993C1.85382 3.24067 1.80482 3.67837 2.01655 4.01424L2.59104 4.92558C2.40469 5.26447 2.25389 5.62591 2.14378 6.00478L1.09371 6.24284C0.7065 6.33062 0.431641 6.67477 0.431641 7.0718V7.92894C0.431641 8.32598 0.7065 8.67012 1.09371 8.75791L2.1439 8.996C2.25408 9.37497 2.40497 9.73649 2.59141 10.0755L2.01702 10.9867C1.80529 11.3225 1.85429 11.7602 2.13503 12.041L2.74113 12.6471C3.02187 12.9278 3.45957 12.9768 3.79544 12.7651L4.70668 12.1907C5.04546 12.377 5.40678 12.5278 5.78552 12.6379L6.0236 13.6881C6.11139 14.0753 6.45553 14.3502 6.85257 14.3502H7.70971C8.10674 14.3502 8.45089 14.0753 8.53867 13.6881L8.77667 12.6383C9.15573 12.5282 9.51735 12.3773 9.85642 12.1909L10.7676 12.7653C11.1034 12.977 11.5411 12.928 11.8219 12.6473L12.428 12.0412C12.7087 11.7604 12.7577 11.3227 12.546 10.9869L11.9718 10.076C12.1584 9.73685 12.3094 9.37512 12.4196 8.99593L13.4695 8.75791C13.8567 8.67012 14.1316 8.32598 14.1316 7.92894V7.0718C14.1316 6.67477 13.8567 6.33062 13.4695 6.24284L12.4197 6.00485C12.3096 5.62575 12.1587 5.26411 11.9722 4.92504L12.5464 4.01404C12.7582 3.67817 12.7092 3.24047 12.4284 2.95972L11.8223 2.35363C11.5416 2.07289 11.1039 2.02389 10.768 2.23562L9.85712 2.80986C9.51784 2.62325 9.15599 2.47226 8.77667 2.36206L8.53867 1.31228C8.45089 0.925066 8.10674 0.650208 7.70971 0.650208H6.85257ZM4.70215 3.81248C5.22886 3.44336 5.83827 3.18421 6.49705 3.06836L6.85257 1.50021H7.70971L8.06517 3.06813C8.72429 3.18384 9.33402 3.44299 9.86102 3.81221L11.2213 2.95467L11.8274 3.56076L10.9698 4.92114C11.3389 5.44795 11.598 6.05747 11.7137 6.71635L13.2816 7.0718V7.92894L11.7136 8.28441C11.5978 8.94339 11.3386 9.55298 10.9694 10.0798L11.8269 11.4402L11.2208 12.0462L9.86032 11.1886C9.33354 11.5576 8.72403 11.8166 8.06517 11.9323L7.70971 13.5002H6.85257L6.49705 11.932C5.83852 11.8162 5.22934 11.5572 4.70278 11.1883L3.34217 12.046L2.73607 11.4399L3.59375 10.0794C3.22472 9.55263 2.96565 8.94323 2.84987 8.28447L1.28164 7.92894V7.0718L2.8498 6.71629C2.9655 6.05762 3.22445 5.4483 3.59333 4.92162L2.7356 3.56097L3.3417 2.95488L4.70215 3.81248ZM8.80658 7.50005C8.80658 8.34223 8.12385 9.02496 7.28167 9.02496C6.43948 9.02496 5.75675 8.34223 5.75675 7.50005C5.75675 6.65786 6.43948 5.97513 7.28167 5.97513C8.12385 5.97513 8.80658 6.65786 8.80658 7.50005ZM9.70658 7.50005C9.70658 8.83929 8.62091 9.92496 7.28167 9.92496C5.94242 9.92496 4.85675 8.83929 4.85675 7.50005C4.85675 6.16081 5.94242 5.07513 7.28167 5.07513C8.62091 5.07513 9.70658 6.16081 9.70658 7.50005Z" fill="#056DBC"/>
</svg>
