<svg width="24" height="24" viewBox="0 0 24 24" fill="none" xmlns="http://www.w3.org/2000/svg">
<g clip-path="url(#clip0_257_420)">
<path d="M16.555 3.84305L20.157 7.44505C20.4242 7.71221 20.6362 8.02939 20.7808 8.37847C20.9254 8.72755 20.9998 9.1017 20.9998 9.47955C20.9998 9.8574 20.9254 10.2316 20.7808 10.5806C20.6362 10.9297 20.4242 11.2469 20.157 11.5141L17.514 14.1571C17.2468 14.4243 16.9297 14.6362 16.5806 14.7808C16.2315 14.9254 15.8573 14.9999 15.4795 14.9999C15.1017 14.9999 14.7275 14.9254 14.3784 14.7808C14.0293 14.6362 13.7122 14.4243 13.445 14.1571L13.144 13.8561L6.586 20.4141C6.25372 20.7463 5.81507 20.9509 5.347 20.9921L5.172 21.0001H4C3.75507 21 3.51866 20.9101 3.33563 20.7473C3.15259 20.5846 3.03566 20.3603 3.007 20.1171L3 20.0001V18.8281C3.00011 18.3585 3.16543 17.904 3.467 17.5441L3.586 17.4141L4 17.0001H6V15.0001H8V13.0001L10.144 10.8561L9.843 10.5551C9.5758 10.2879 9.36384 9.97071 9.21923 9.62163C9.07462 9.27255 9.00019 8.8984 9.00019 8.52055C9.00019 8.1427 9.07462 7.76855 9.21923 7.41947C9.36384 7.07039 9.5758 6.75321 9.843 6.48605L12.486 3.84305C12.7532 3.57585 13.0703 3.36389 13.4194 3.21928C13.7685 3.07467 14.1427 3.00024 14.5205 3.00024C14.8983 3.00024 15.2725 3.07467 15.6216 3.21928C15.9707 3.36389 16.2878 3.57585 16.555 3.84305Z" stroke="#1C7DC8" stroke-width="2" stroke-linecap="round" stroke-linejoin="round"/>
<path d="M15 9H15.01" stroke="#1C7DC8" stroke-width="2" stroke-linecap="round" stroke-linejoin="round"/>
</g>
<defs>
<clipPath id="clip0_257_420">
<rect width="24" height="24" fill="white"/>
</clipPath>
</defs>
</svg>
