<svg width="15" height="15" viewBox="0 0 15 15" fill="none" xmlns="http://www.w3.org/2000/svg">
<g clip-path="url(#clip0_163_257)">
<path fill-rule="evenodd" clip-rule="evenodd" d="M11.475 4C9.47295 4 7.84998 5.62297 7.84998 7.625C7.84998 9.27788 8.95622 10.6724 10.4687 11.1085C9.27468 11.254 8.25055 11.6763 7.47905 12.4367C6.49714 13.4044 6 14.845 6 16.7249C6 16.9873 6.21267 17.1999 6.475 17.1999C6.73734 17.1999 6.95 16.9873 6.95 16.7249C6.95 15.0049 7.40284 13.8456 8.14589 13.1133C8.89034 12.3796 10.0017 12 11.4749 12C12.9481 12 14.0596 12.3796 14.8041 13.1133C15.5471 13.8456 16 15.0049 16 16.7249C16 16.9873 16.2126 17.1999 16.475 17.1999C16.7373 17.2 16.95 16.9873 16.95 16.725C16.95 14.845 16.4528 13.4044 15.4709 12.4367C14.6994 11.6763 13.6752 11.254 12.4812 11.1085C13.9937 10.6724 15.1 9.27789 15.1 7.625C15.1 5.62297 13.477 4 11.475 4ZM8.79998 7.625C8.79998 6.14764 9.99762 4.95 11.475 4.95C12.9523 4.95 14.15 6.14764 14.15 7.625C14.15 9.10236 12.9523 10.3 11.475 10.3C9.99762 10.3 8.79998 9.10236 8.79998 7.625Z" fill="#056DBC"/>
<path fill-rule="evenodd" clip-rule="evenodd" d="M4.47498 3C2.47295 3 0.84998 4.62297 0.84998 6.625C0.84998 8.27788 1.95622 9.67238 3.46871 10.1085C2.27468 10.254 1.25055 10.6763 0.47905 11.4367C-0.50286 12.4044 -1 13.845 -1 15.7249C-1 15.9873 -0.78733 16.1999 -0.525 16.1999C-0.26266 16.1999 -0.05 15.9873 -0.05 15.7249C-0.05 14.0049 0.40284 12.8456 1.14589 12.1133C1.89034 11.3796 3.00172 11 4.47493 11C5.94815 11 7.05958 11.3796 7.80408 12.1133C8.54708 12.8456 8.99998 14.0049 8.99998 15.7249C8.99998 15.9873 9.21258 16.1999 9.47498 16.1999C9.73728 16.2 9.94998 15.9873 9.94998 15.725C9.94998 13.845 9.45278 12.4044 8.47088 11.4367C7.69938 10.6763 6.67523 10.254 5.48123 10.1085C6.99368 9.6724 8.09998 8.27789 8.09998 6.625C8.09998 4.62297 6.47701 3 4.47498 3ZM1.79998 6.625C1.79998 5.14764 2.99762 3.95 4.47498 3.95C5.95234 3.95 7.14998 5.14764 7.14998 6.625C7.14998 8.10236 5.95234 9.3 4.47498 9.3C2.99762 9.3 1.79998 8.10236 1.79998 6.625Z" fill="#056DBC"/>
</g>
<defs>
<clipPath id="clip0_163_257">
<rect width="15" height="15" fill="white"/>
</clipPath>
</defs>
</svg>
