<svg width="12" height="15" viewBox="0 0 12 15" fill="none" xmlns="http://www.w3.org/2000/svg">
<path fill-rule="evenodd" clip-rule="evenodd" d="M6.28162 0.875C4.27959 0.875 2.65662 2.49797 2.65662 4.5C2.65662 6.15288 3.76286 7.54738 5.27535 7.98351C4.08132 8.12901 3.05719 8.55134 2.28569 9.31167C1.30378 10.2794 0.806641 11.72 0.806641 13.5999C0.806641 13.8623 1.01931 14.0749 1.28164 14.0749C1.54398 14.0749 1.75664 13.8623 1.75664 13.5999C1.75664 11.8799 2.20948 10.7206 2.95253 9.9883C3.69698 9.25463 4.80836 8.87499 6.28157 8.87499C7.75479 8.87499 8.86622 9.25463 9.61072 9.98831C10.3537 10.7206 10.8066 11.8799 10.8066 13.5999C10.8066 13.8623 11.0192 14.0749 11.2816 14.0749C11.5439 14.075 11.7566 13.8623 11.7566 13.6C11.7566 11.72 11.2594 10.2794 10.2775 9.31166C9.50602 8.55135 8.48187 8.12903 7.28787 7.98352C8.80032 7.5474 9.90662 6.15289 9.90662 4.5C9.90662 2.49797 8.28365 0.875 6.28162 0.875ZM3.60662 4.5C3.60662 3.02264 4.80426 1.825 6.28162 1.825C7.75898 1.825 8.95662 3.02264 8.95662 4.5C8.95662 5.97736 7.75898 7.175 6.28162 7.175C4.80426 7.175 3.60662 5.97736 3.60662 4.5Z" fill="#056DBC"/>
</svg>
