<svg width="16" height="15" viewBox="0 0 16 15" fill="none" xmlns="http://www.w3.org/2000/svg">
<path fill-rule="evenodd" clip-rule="evenodd" d="M8.28162 0C8.55776 0 8.78162 0.223858 8.78162 0.5V2.5C8.78162 2.77614 8.55776 3 8.28162 3C8.00548 3 7.78162 2.77614 7.78162 2.5V0.5C7.78162 0.223858 8.00548 0 8.28162 0ZM2.97832 2.1967C3.17358 2.00144 3.49016 2.00144 3.68543 2.1967L5.09964 3.61091C5.2949 3.80617 5.2949 4.12276 5.09964 4.31802C4.90438 4.51328 4.58779 4.51328 4.39253 4.31802L2.97832 2.90381C2.78306 2.70854 2.78306 2.39196 2.97832 2.1967ZM1.28162 7C1.00547 7 0.781616 7.22386 0.781616 7.5C0.781616 7.77614 1.00547 8 1.28162 8H3.28162C3.55776 8 3.78162 7.77614 3.78162 7.5C3.78162 7.22386 3.55776 7 3.28162 7H1.28162ZM2.97832 12.8033C2.78306 12.608 2.78306 12.2915 2.97832 12.0962L4.39253 10.682C4.58779 10.4867 4.90438 10.4867 5.09964 10.682C5.2949 10.8772 5.2949 11.1938 5.09964 11.3891L3.68543 12.8033C3.49016 12.9986 3.17358 12.9986 2.97832 12.8033ZM13.2816 7C13.0055 7 12.7816 7.22386 12.7816 7.5C12.7816 7.77614 13.0055 8 13.2816 8H15.2816C15.5577 8 15.7816 7.77614 15.7816 7.5C15.7816 7.22386 15.5577 7 15.2816 7H13.2816ZM11.4636 4.31802C11.2683 4.12276 11.2683 3.80617 11.4636 3.61091L12.8778 2.1967C13.0731 2.00144 13.3896 2.00144 13.5849 2.1967C13.7802 2.39196 13.7802 2.70854 13.5849 2.90381L12.1707 4.31802C11.9754 4.51328 11.6588 4.51328 11.4636 4.31802ZM8.78162 12.5C8.78162 12.2239 8.55776 12 8.28162 12C8.00548 12 7.78162 12.2239 7.78162 12.5V14.5C7.78162 14.7761 8.00548 15 8.28162 15C8.55776 15 8.78162 14.7761 8.78162 14.5V12.5ZM11.4636 10.682C11.6588 10.4867 11.9754 10.4867 12.1707 10.682L13.5849 12.0962C13.7802 12.2915 13.7802 12.608 13.5849 12.8033C13.3896 12.9986 13.0731 12.9986 12.8778 12.8033L11.4636 11.3891C11.2683 11.1938 11.2683 10.8772 11.4636 10.682ZM6.28162 7.5C6.28162 6.39543 7.17705 5.5 8.28162 5.5C9.38619 5.5 10.2816 6.39543 10.2816 7.5C10.2816 8.60457 9.38619 9.5 8.28162 9.5C7.17705 9.5 6.28162 8.60457 6.28162 7.5ZM8.28162 4.5C6.62477 4.5 5.28162 5.84315 5.28162 7.5C5.28162 9.15685 6.62477 10.5 8.28162 10.5C9.93847 10.5 11.2816 9.15685 11.2816 7.5C11.2816 5.84315 9.93847 4.5 8.28162 4.5Z" fill="#056DBC"/>
</svg>
