<svg width="0" height="0"><symbol xmlns="http://www.w3.org/2000/svg" id="arrowLeft" fill="none" viewBox="0 0 15 15"><path fill="currentColor" fill-rule="evenodd" d="M6.854 3.146a.5.5 0 0 1 0 .708L3.707 7H12.5a.5.5 0 0 1 0 1H3.707l3.147 3.146a.5.5 0 0 1-.708.708l-4-4a.5.5 0 0 1 0-.708l4-4a.5.5 0 0 1 .708 0Z" clip-rule="evenodd"/></symbol><symbol xmlns="http://www.w3.org/2000/svg" id="bookmark" fill="none" viewBox="0 0 10 12"><path fill="#056DBC" fill-rule="evenodd" d="M.782.5a.5.5 0 0 1 .5-.5h8a.5.5 0 0 1 .5.5v11a.5.5 0 0 1-.765.424L5.282 9.59l-3.735 2.334a.5.5 0 0 1-.765-.424V.5Zm1 .5v9.598l2.97-1.856a1 1 0 0 1 1.06 0l2.97 1.856V1h-7Z" clip-rule="evenodd"/></symbol><symbol xmlns="http://www.w3.org/2000/svg" id="cross" fill="none" viewBox="0 0 15 15"><path fill="currentColor" fill-rule="evenodd" d="M11.782 4.032a.575.575 0 1 0-.813-.814L7.5 6.687 4.032 3.218a.575.575 0 0 0-.814.814L6.687 7.5l-3.469 3.468a.575.575 0 0 0 .814.814L7.5 8.313l3.469 3.469a.575.575 0 0 0 .813-.814L8.313 7.5l3.469-3.468Z" clip-rule="evenodd"/></symbol><symbol xmlns="http://www.w3.org/2000/svg" id="exit" fill="none" viewBox="0 0 14 13"><path fill="#056DBC" fill-rule="evenodd" d="M1.782 0a1 1 0 0 0-1 1v11a1 1 0 0 0 1 1h7.5a.5.5 0 0 0 0-1h-7.5V1h7.5a.5.5 0 0 0 0-1h-7.5Zm9.603 3.896a.5.5 0 0 0-.707.708L12.074 6H5.283a.5.5 0 0 0 0 1h6.793l-1.397 1.396a.5.5 0 0 0 .707.708l2.25-2.25a.5.5 0 0 0 0-.708l-2.25-2.25Z" clip-rule="evenodd"/></symbol><symbol xmlns="http://www.w3.org/2000/svg" id="eye-none" fill="none" viewBox="0 0 20 20"><g stroke="currentColor" stroke-linecap="round" stroke-linejoin="round" stroke-width="2" clip-path="url(#a)"><path d="M8.82 8.823a1.667 1.667 0 1 0 2.358 2.356"/><path d="M13.9 13.894A7.264 7.264 0 0 1 10 15c-3 0-5.5-1.667-7.5-5 1.06-1.767 2.26-3.065 3.6-3.895m2.383-.955A7.546 7.546 0 0 1 10 5c3 0 5.5 1.667 7.5 5a13.81 13.81 0 0 1-1.782 2.392M2.5 2.5l15 15"/></g><defs><clipPath id="a"><path fill="#fff" d="M0 0h20v20H0z"/></clipPath></defs></symbol><symbol xmlns="http://www.w3.org/2000/svg" id="eye-open" fill="none" viewBox="0 0 20 20"><g stroke="#0063E0" stroke-linecap="round" stroke-linejoin="round" stroke-width="2" clip-path="url(#a)"><path d="M8.333 10a1.667 1.667 0 1 0 3.334 0 1.667 1.667 0 0 0-3.334 0Z"/><path d="M17.5 10c-2 3.333-4.5 5-7.5 5s-5.5-1.667-7.5-5C4.5 6.667 7 5 10 5s5.5 1.667 7.5 5Z"/></g></symbol><symbol xmlns="http://www.w3.org/2000/svg" id="gear" fill="none" viewBox="0 0 15 15"><path fill="#056DBC" fill-rule="evenodd" d="M6.853.65a.85.85 0 0 0-.83.662l-.237 1.05a5.32 5.32 0 0 0-1.08.448l-.911-.574a.85.85 0 0 0-1.054.118l-.606.606a.85.85 0 0 0-.118 1.054l.574.912c-.186.338-.337.7-.447 1.079l-1.05.238a.85.85 0 0 0-.662.829v.857a.85.85 0 0 0 .662.829l1.05.238c.11.379.261.74.447 1.08l-.574.91a.85.85 0 0 0 .118 1.055l.606.606a.85.85 0 0 0 1.054.118l.912-.574c.338.186.7.337 1.079.447l.238 1.05a.85.85 0 0 0 .829.662h.857a.85.85 0 0 0 .829-.662l.238-1.05c.379-.11.74-.26 1.08-.447l.91.574a.85.85 0 0 0 1.055-.118l.606-.606a.85.85 0 0 0 .118-1.054l-.574-.911c.186-.34.337-.7.448-1.08l1.05-.238a.85.85 0 0 0 .662-.83v-.856a.85.85 0 0 0-.662-.83l-1.05-.237c-.11-.38-.261-.74-.448-1.08l.574-.911a.85.85 0 0 0-.118-1.054l-.606-.606a.85.85 0 0 0-1.054-.118l-.91.574a5.323 5.323 0 0 0-1.081-.448l-.238-1.05a.85.85 0 0 0-.83-.662h-.856Zm-2.15 3.162a4.476 4.476 0 0 1 1.794-.744L6.853 1.5h.857l.355 1.568c.66.116 1.269.375 1.796.744l1.36-.857.606.606-.857 1.36a4.48 4.48 0 0 1 .744 1.795l1.568.356v.857l-1.568.355a4.476 4.476 0 0 1-.745 1.796l.858 1.36-.606.606-1.36-.857a4.476 4.476 0 0 1-1.796.743L7.71 13.5h-.857l-.356-1.568a4.475 4.475 0 0 1-1.794-.744l-1.36.858-.607-.606.858-1.36a4.476 4.476 0 0 1-.744-1.796L1.282 7.93v-.857l1.568-.356a4.476 4.476 0 0 1 .743-1.794L2.736 3.56l.606-.606 1.36.857ZM8.806 7.5a1.525 1.525 0 1 1-3.05 0 1.525 1.525 0 0 1 3.05 0Zm.9 0a2.425 2.425 0 1 1-4.85 0 2.425 2.425 0 0 1 4.85 0Z" clip-rule="evenodd"/></symbol><symbol xmlns="http://www.w3.org/2000/svg" id="globe" fill="none" viewBox="0 0 16 15"><path fill="#056DBC" fill-rule="evenodd" d="M8.282 1.8a5.7 5.7 0 1 0 0 11.4 5.7 5.7 0 0 0 0-11.4Zm-6.6 5.7a6.6 6.6 0 1 1 13.2 0 6.6 6.6 0 0 1-13.2 0Z" clip-rule="evenodd"/><path fill="#056DBC" fill-rule="evenodd" d="M14.281 7.9h-12v-.8h12v.8Z" clip-rule="evenodd"/><path fill="#056DBC" fill-rule="evenodd" d="M7.882 13.5v-12h.8v12h-.8Zm3.275-6c0-2.173-.782-4.322-2.314-5.743l.477-.514c1.701 1.58 2.537 3.93 2.537 6.257 0 2.327-.836 4.678-2.537 6.257l-.477-.514c1.532-1.42 2.314-3.57 2.314-5.743Zm-6.376 0c0-2.324.808-4.673 2.458-6.253l.484.506C6.24 3.173 5.481 5.323 5.481 7.5c0 2.176.759 4.327 2.242 5.747l-.484.506c-1.65-1.58-2.458-3.93-2.458-6.253Z" clip-rule="evenodd"/><path fill="#056DBC" fill-rule="evenodd" d="M8.282 3.958c2.169 0 4.375.401 5.87 1.236a.35.35 0 1 1-.341.612c-1.35-.754-3.421-1.148-5.53-1.148-2.107 0-4.179.394-5.529 1.148a.35.35 0 1 1-.341-.612c1.495-.835 3.701-1.236 5.87-1.236Zm0 6.892c2.169 0 4.375-.401 5.87-1.236a.35.35 0 1 0-.341-.612c-1.35.754-3.421 1.148-5.53 1.148-2.107 0-4.179-.394-5.529-1.148a.35.35 0 1 0-.341.611c1.495.836 3.701 1.237 5.87 1.237Z" clip-rule="evenodd"/></symbol><symbol xmlns="http://www.w3.org/2000/svg" id="horizontal-logo" fill="currentColor" viewBox="0 0 179 40"><path fill="#007DFF" d="M5.672 26.137c-.746.722-1.194 1.733-1.194 2.744 0 1.155.448 2.021 1.194 2.744.746.722 1.791 1.155 2.985 1.155 1.195 0 2.24-.433 2.986-1.155.746-.723 1.194-1.733 1.194-2.744 0-1.155-.448-2.022-1.194-2.744-.747-.722-1.791-1.155-2.986-1.155-1.194 0-2.239.433-2.985 1.155Zm56.87 2.744c0-1.155-.447-2.022-1.193-2.744-.747-.722-1.791-1.155-2.986-1.155-1.194 0-2.239.433-2.985 1.155s-1.194 1.733-1.194 2.744c0 1.155.448 2.021 1.194 2.744.746.722 1.791 1.155 2.985 1.155s2.24-.433 2.986-1.155c.746-.578 1.194-1.589 1.194-2.744ZM50.005 7.365c-.298-1.011-.895-1.878-1.94-2.455l-.15-.145c-.895-.433-2.09-.577-2.985-.288-1.045.288-1.94.866-2.537 1.877-.597.866-.597 2.021-.299 2.888.299 1.01.896 1.877 1.94 2.455 1.046.577 2.09.722 3.135.433s1.94-.867 2.538-1.877c.448-.867.597-1.878.298-2.888ZM29.256 24.837c-1.045 1.011-1.79 2.455-1.79 4.044 0 1.588.745 3.032 1.79 4.043 1.045 1.011 2.538 1.733 4.18 1.733s3.134-.578 4.328-1.733c1.045-1.01 1.792-2.455 1.792-4.043 0-1.589-.747-3.033-1.791-4.044a6.174 6.174 0 0 0-4.33-1.732c-1.79 0-2.985.722-4.179 1.732Zm-7.015 2.311c.448-2.31 1.492-4.332 3.284-5.92.298-.29.597-.434.895-.723l-2.388-3.898c-1.642.577-3.433.577-5.075.144-2.24-.578-4.18-1.877-5.374-4.043-1.194-2.022-1.492-4.333-.895-6.354.597-2.166 2.09-4.044 4.18-5.199C18.956 0 21.493-.289 23.733.29c2.238.577 4.179 1.877 5.373 4.043l.299.578c.895 1.877 1.045 3.899.597 5.92a8.537 8.537 0 0 1-2.687 4.188l2.388 3.899c1.194-.433 2.687-.722 4.03-.722 1.493 0 2.836.289 4.03.722l2.389-3.899a8.537 8.537 0 0 1-2.687-4.188c-.597-2.166-.299-4.476.896-6.498v-.144c1.194-2.022 3.134-3.322 5.373-3.9a9.124 9.124 0 0 1 6.717.867h.15c2.09 1.155 3.433 3.033 4.03 5.054.597 2.166.298 4.477-.896 6.499-1.194 2.021-3.284 3.465-5.373 4.043-1.642.433-3.434.433-5.076-.145l-2.388 3.9c.299.288.597.433.896.721 1.642 1.589 2.836 3.61 3.284 5.921h4.776c.299-1.588 1.194-3.177 2.388-4.188 1.642-1.588 3.881-2.455 6.27-2.455 2.388 0 4.627 1.011 6.269 2.455 1.642 1.589 2.687 3.61 2.687 6.065 0 2.31-1.045 4.477-2.687 6.065-1.642 1.589-3.881 2.455-6.27 2.455-2.537 0-4.776-1.01-6.269-2.455-1.194-1.155-2.09-2.599-2.388-4.188H45.08c-.448 2.311-1.493 4.333-3.284 5.921-2.09 2.022-4.926 3.177-8.06 3.177-3.135 0-5.971-1.3-8.061-3.177-1.642-1.588-2.836-3.61-3.284-5.92h-4.777c-.298 1.588-1.194 3.032-2.388 4.187-1.642 1.589-3.88 2.455-6.269 2.455-2.388 0-4.777-1.01-6.27-2.455C1.046 33.502 0 31.48 0 29.025c0-2.31 1.045-4.476 2.687-6.065 1.642-1.588 3.88-2.455 6.269-2.455 2.537 0 4.777 1.011 6.27 2.455 1.193 1.155 2.089 2.6 2.387 4.188h4.628ZM18.957 4.91c-1.045.577-1.642 1.444-1.94 2.455-.3 1.01-.15 2.021.447 3.032.597 1.01 1.493 1.589 2.538 1.877 1.045.29 2.239.145 3.134-.433 1.045-.577 1.642-1.444 1.94-2.455.3-1.01.15-2.021-.447-3.032-.597-.867-1.493-1.589-2.538-1.733-.895-.289-2.09-.144-3.134.289Z"/><path d="M72.469 18.266h2.697l1.704 4.914c.054.156.1.315.137.476a6.938 6.938 0 0 1 .162 1.04h.048c.032-.282.075-.545.13-.79.058-.244.131-.487.217-.726l1.672-4.914h2.64l-3.82 9.851c-.23.604-.532 1.107-.904 1.508-.371.406-.8.71-1.284.914a4.016 4.016 0 0 1-1.582.305 4.89 4.89 0 0 1-.727-.047 6.367 6.367 0 0 1-.525-.086v-1.89a4.495 4.495 0 0 0 .969.102c.344-.001.64-.071.888-.212.248-.14.455-.33.622-.57.167-.235.299-.493.396-.774l.145-.43-3.585-8.671Zm18.913 4.351c0 .73-.103 1.375-.307 1.938a3.821 3.821 0 0 1-.88 1.43 3.715 3.715 0 0 1-1.39.874c-.538.198-1.146.297-1.825.297a4.995 4.995 0 0 1-1.752-.297 3.909 3.909 0 0 1-1.381-.875 4.059 4.059 0 0 1-.904-1.43c-.21-.562-.315-1.208-.315-1.937 0-.969.177-1.789.533-2.46a3.594 3.594 0 0 1 1.518-1.532c.657-.349 1.44-.523 2.35-.523.845 0 1.593.174 2.245.523.657.349 1.17.86 1.542 1.531.377.672.566 1.492.566 2.461Zm-6.243 0c0 .573.065 1.055.194 1.445.13.391.331.685.606.883.274.198.632.297 1.074.297.436 0 .788-.099 1.058-.297.274-.198.473-.492.597-.883.13-.39.194-.872.194-1.445 0-.578-.065-1.057-.194-1.437-.124-.386-.323-.675-.597-.867-.275-.193-.633-.29-1.075-.29-.65 0-1.125.217-1.42.649-.291.432-.437 1.08-.437 1.945Zm16.563-4.351V27h-1.89l-.33-1.117h-.13a2.431 2.431 0 0 1-.727.726c-.29.188-.61.326-.96.414a4.41 4.41 0 0 1-1.09.133c-.647 0-1.21-.11-1.689-.328a2.48 2.48 0 0 1-1.122-1.039c-.264-.469-.396-1.078-.396-1.828v-5.695h2.463v5.101c0 .625.116 1.096.347 1.414.232.318.6.477 1.107.477.5 0 .894-.11 1.179-.328.285-.224.484-.55.597-.977.119-.432.178-.958.178-1.578v-4.11h2.463Zm6.388 6.992c.269 0 .53-.026.784-.078.258-.052.513-.117.766-.196v1.774a4.603 4.603 0 0 1-.985.281 6.466 6.466 0 0 1-1.276.117 4.01 4.01 0 0 1-1.454-.25 2.045 2.045 0 0 1-1.008-.883c-.243-.421-.364-1.007-.364-1.757v-4.211h-1.18v-1.008l1.358-.797.71-1.844h1.575v1.86h2.527v1.789h-2.527v4.21c0 .334.097.584.29.75.2.162.46.243.784.243Zm11.589-2.64c0 .728-.103 1.374-.307 1.937a3.823 3.823 0 0 1-.881 1.43 3.716 3.716 0 0 1-1.388.874c-.539.198-1.148.297-1.826.297-.636 0-1.22-.099-1.752-.297a3.906 3.906 0 0 1-1.381-.875 4.048 4.048 0 0 1-.904-1.43c-.21-.562-.316-1.208-.316-1.937 0-.969.178-1.789.534-2.46a3.585 3.585 0 0 1 1.518-1.532c.657-.349 1.44-.523 2.35-.523.845 0 1.594.174 2.245.523.656.349 1.171.86 1.542 1.531.377.672.566 1.492.566 2.461Zm-6.243 0c0 .572.064 1.054.193 1.445.13.39.332.684.606.882.275.198.633.297 1.074.297.436 0 .789-.099 1.059-.297.274-.198.473-.492.597-.883.129-.39.193-.872.193-1.445 0-.578-.064-1.057-.193-1.437-.124-.386-.323-.675-.597-.867-.275-.193-.633-.29-1.074-.29-.653 0-1.126.217-1.422.649-.291.432-.436 1.08-.436 1.945Zm10.918 8.226c-1.259 0-2.224-.214-2.891-.64-.662-.423-.993-1.017-.993-1.782 0-.526.17-.966.509-1.32.339-.355.837-.607 1.494-.758a1.653 1.653 0 0 1-.663-.508 1.209 1.209 0 0 1-.282-.758c0-.333.099-.61.298-.828.2-.224.487-.443.865-.656a2.424 2.424 0 0 1-1.131-.953c-.274-.438-.412-.953-.412-1.547 0-.636.143-1.175.428-1.617.291-.448.71-.79 1.26-1.024.554-.234 1.227-.351 2.019-.351.167 0 .361.01.581.03.221.022.423.045.606.071.188.026.315.047.379.063h3.15v1.21l-1.413.352c.129.193.226.399.29.617.065.22.097.45.097.696 0 .937-.339 1.669-1.017 2.195-.673.52-1.61.781-2.81.781a16.94 16.94 0 0 1-.808-.062 1.128 1.128 0 0 0-.283.297.618.618 0 0 0-.097.328c0 .114.049.21.146.289.102.073.253.13.452.172.204.036.457.054.759.054h1.534c.991 0 1.745.206 2.262.617.522.412.783 1.016.783 1.813 0 1.02-.441 1.813-1.325 2.375-.877.563-2.14.844-3.787.844Zm.105-1.555c.587 0 1.091-.055 1.51-.164.425-.104.751-.255.977-.453.227-.193.339-.425.339-.695a.696.696 0 0 0-.201-.524c-.129-.125-.329-.213-.598-.265a5.414 5.414 0 0 0-1.018-.079h-1.275c-.302 0-.574.047-.816.141a1.386 1.386 0 0 0-.565.39.913.913 0 0 0-.21.594c0 .328.161.586.485.774.327.187.785.281 1.372.281Zm.396-6.625c.463 0 .802-.138 1.017-.414.215-.276.324-.651.324-1.125 0-.526-.114-.92-.34-1.18-.22-.265-.554-.398-1.001-.398-.453 0-.792.133-1.018.398-.225.26-.339.654-.339 1.18 0 .474.111.849.332 1.125.225.276.567.414 1.025.414Zm9.933-4.562c.834 0 1.553.156 2.156.468a3.258 3.258 0 0 1 1.397 1.344c.328.589.493 1.307.493 2.156v1.157h-5.823c.027.671.234 1.2.622 1.585.393.38.937.57 1.631.57.576 0 1.104-.056 1.583-.171a8.255 8.255 0 0 0 1.478-.516v1.844c-.447.214-.915.37-1.405.469-.485.099-1.075.148-1.768.148-.905 0-1.707-.161-2.408-.484a3.695 3.695 0 0 1-1.638-1.477c-.394-.661-.59-1.494-.59-2.5 0-1.02.177-1.87.533-2.547.361-.682.861-1.192 1.502-1.53.641-.345 1.386-.516 2.237-.516Zm.016 1.695c-.479 0-.877.148-1.196.445-.312.297-.492.763-.54 1.399h3.456a2.287 2.287 0 0 0-.202-.946 1.475 1.475 0 0 0-.565-.656c-.248-.161-.565-.242-.953-.242Zm9.836 5.46c.269 0 .53-.025.783-.077a7.76 7.76 0 0 0 .767-.196v1.774a4.603 4.603 0 0 1-.985.281 6.463 6.463 0 0 1-1.275.117 3.998 3.998 0 0 1-1.454-.25 2.045 2.045 0 0 1-1.01-.883c-.242-.421-.364-1.007-.364-1.757v-4.211h-1.178v-1.008l1.356-.797.711-1.844h1.575v1.86h2.528v1.789h-2.528v4.21c0 .334.097.584.29.75.2.162.461.243.784.243Zm5.847-10.413v2.476c0 .433-.016.844-.048 1.235-.027.39-.049.666-.066.828h.13c.194-.302.422-.547.686-.735a2.87 2.87 0 0 1 .889-.414c.322-.088.67-.132 1.041-.132.652 0 1.22.111 1.704.335a2.42 2.42 0 0 1 1.131 1.04c.269.468.403 1.078.403 1.828V27h-2.463v-5.102c0-.625-.118-1.096-.354-1.414-.237-.317-.604-.476-1.099-.476s-.886.112-1.171.336c-.286.218-.487.544-.606.976-.118.427-.177.95-.177 1.57V27h-2.463V14.844h2.463Zm12.129 3.258c.834 0 1.554.156 2.157.468a3.26 3.26 0 0 1 1.396 1.344c.329.589.493 1.307.493 2.156v1.157h-5.823c.027.671.235 1.2.623 1.585.392.38.936.57 1.631.57.576 0 1.104-.056 1.582-.171a8.2 8.2 0 0 0 1.478-.516v1.844c-.446.214-.915.37-1.405.469-.484.099-1.074.148-1.769.148-.903 0-1.707-.161-2.406-.484a3.694 3.694 0 0 1-1.64-1.477c-.393-.661-.589-1.494-.589-2.5 0-1.02.178-1.87.533-2.547.361-.682.862-1.192 1.502-1.53.641-.345 1.387-.516 2.237-.516Zm.017 1.695c-.48 0-.878.148-1.196.445-.312.297-.492.763-.541 1.399h3.457a2.303 2.303 0 0 0-.203-.946 1.475 1.475 0 0 0-.565-.656c-.247-.161-.565-.242-.952-.242Zm11.071-1.695c.123 0 .266.007.428.023.167.01.301.026.404.047l-.187 2.234a1.527 1.527 0 0 0-.346-.054 3.607 3.607 0 0 0-.38-.024c-.318 0-.627.04-.928.117a2.284 2.284 0 0 0-.799.383 1.808 1.808 0 0 0-.566.688c-.135.28-.202.627-.202 1.039V27h-2.464v-8.734h1.866l.364 1.468h.121c.178-.297.398-.567.662-.812a3.17 3.17 0 0 1 .912-.594 2.748 2.748 0 0 1 1.115-.226Z"/></symbol><symbol xmlns="http://www.w3.org/2000/svg" id="key" fill="none" viewBox="0 0 24 24"><g stroke="#1C7DC8" stroke-linecap="round" stroke-linejoin="round" stroke-width="2" clip-path="url(#a)"><path d="m16.555 3.843 3.602 3.602a2.877 2.877 0 0 1 0 4.07l-2.643 2.642a2.877 2.877 0 0 1-4.069 0l-.301-.3-6.558 6.557a2 2 0 0 1-1.239.578L5.172 21H4a1 1 0 0 1-.993-.883L3 20v-1.172a2 2 0 0 1 .467-1.284l.119-.13L4 17h2v-2h2v-2l2.144-2.144-.301-.3a2.878 2.878 0 0 1 0-4.07l2.643-2.643a2.877 2.877 0 0 1 4.069 0ZM15 9h.01"/></g></symbol><symbol xmlns="http://www.w3.org/2000/svg" id="laptop" fill="none" viewBox="0 0 15 15"><path fill="#056DBC" fill-rule="evenodd" d="M2 4.25A.25.25 0 0 1 2.25 4h10.5a.25.25 0 0 1 .25.25v7.25H2V4.25ZM2.25 3C1.56 3 1 3.56 1 4.25V12H0v.5a.5.5 0 0 0 .5.5h14a.5.5 0 0 0 .5-.5V12h-1V4.25C14 3.56 13.44 3 12.75 3H2.25Z" clip-rule="evenodd"/></symbol><symbol xmlns="http://www.w3.org/2000/svg" id="loader" fill="currentColor" stroke="currentColor" stroke-width="0" viewBox="0 0 24 24"><path stroke="none" d="M12 22c5.421 0 10-4.579 10-10h-2c0 4.337-3.663 8-8 8s-8-3.663-8-8c0-4.336 3.663-8 8-8V2C6.579 2 2 6.58 2 12c0 5.421 4.579 10 10 10z"/></symbol><symbol xmlns="http://www.w3.org/2000/svg" id="mail" fill="none" viewBox="0 0 24 24"><g stroke="#0063E0" stroke-linecap="round" stroke-linejoin="round" stroke-width="2" clip-path="url(#a)"><path d="M3 7a2 2 0 0 1 2-2h14a2 2 0 0 1 2 2v10a2 2 0 0 1-2 2H5a2 2 0 0 1-2-2V7Z"/><path d="m3 7 9 6 9-6"/></g></symbol><symbol xmlns="http://www.w3.org/2000/svg" id="moon" fill="none" viewBox="0 0 15 15"><g clip-path="url(#a)"><path fill="#056DBC" fill-rule="evenodd" d="M2.9.5a.4.4 0 0 0-.8 0v.6h-.6a.4.4 0 1 0 0 .8h.6v.6a.4.4 0 1 0 .8 0v-.6h.6a.4.4 0 0 0 0-.8h-.6V.5Zm3 3a.4.4 0 1 0-.8 0v.6h-.6a.4.4 0 1 0 0 .8h.6v.6a.4.4 0 1 0 .8 0v-.6h.6a.4.4 0 0 0 0-.8h-.6v-.6Zm-4 3a.4.4 0 1 0-.8 0v.6H.5a.4.4 0 1 0 0 .8h.6v.6a.4.4 0 0 0 .8 0v-.6h.6a.4.4 0 0 0 0-.8h-.6v-.6ZM8.544.982l-.298-.04c-.213-.024-.34.224-.217.4A6.57 6.57 0 0 1 9.203 5.1a6.602 6.602 0 0 1-6.243 6.59c-.214.012-.333.264-.183.417a6.8 6.8 0 0 0 .21.206l.072.066.26.226.188.148.121.09.187.131.176.115c.12.076.244.149.37.217l.264.135.26.12.303.122.244.086a6.568 6.568 0 0 0 1.103.26l.317.04.267.02a6.6 6.6 0 0 0 6.943-7.328l-.037-.277a6.557 6.557 0 0 0-.384-1.415l-.113-.268-.077-.166-.074-.148a6.602 6.602 0 0 0-.546-.883l-.153-.2-.199-.24-.163-.18-.12-.124-.16-.158-.223-.2-.32-.26-.245-.177-.292-.19-.321-.186-.328-.165-.113-.052-.24-.101-.276-.104-.252-.082-.325-.09-.265-.06-.292-.053Zm1.86 4.318a7.578 7.578 0 0 0-.572-2.894 5.601 5.601 0 1 1-4.748 10.146 7.61 7.61 0 0 0 3.66-2.51.749.749 0 0 0 1.355-.442.75.75 0 0 0-.584-.732c.062-.116.122-.235.178-.355A1.25 1.25 0 1 0 10.35 6.2c.034-.295.052-.595.052-.9Z" clip-rule="evenodd"/></g></symbol><symbol xmlns="http://www.w3.org/2000/svg" id="person" fill="none" viewBox="0 0 12 15"><path fill="#056DBC" fill-rule="evenodd" d="M6.282.875a3.625 3.625 0 0 0-1.007 7.109c-1.194.145-2.218.567-2.99 1.328-.98.967-1.477 2.408-1.477 4.288a.475.475 0 1 0 .95 0c0-1.72.452-2.88 1.196-3.612.744-.733 1.855-1.113 3.329-1.113 1.473 0 2.584.38 3.329 1.113.743.733 1.196 1.892 1.196 3.612a.475.475 0 1 0 .95 0c0-1.88-.498-3.32-1.48-4.288-.771-.76-1.795-1.183-2.99-1.328A3.627 3.627 0 0 0 6.283.875ZM3.607 4.5a2.675 2.675 0 1 1 5.35 0 2.675 2.675 0 0 1-5.35 0Z" clip-rule="evenodd"/></symbol><symbol xmlns="http://www.w3.org/2000/svg" id="persons" fill="none" viewBox="0 0 15 15"><g fill="#056DBC" fill-rule="evenodd" clip-path="url(#a)" clip-rule="evenodd"><path d="M11.475 4a3.625 3.625 0 0 0-1.006 7.108c-1.194.146-2.218.568-2.99 1.329C6.497 13.404 6 14.845 6 16.725a.475.475 0 1 0 .95 0c0-1.72.453-2.88 1.196-3.612C8.89 12.38 10.002 12 11.475 12s2.585.38 3.33 1.113c.742.733 1.195 1.892 1.195 3.612a.475.475 0 1 0 .95 0c0-1.88-.497-3.32-1.48-4.288-.77-.76-1.795-1.183-2.989-1.329A3.627 3.627 0 0 0 11.475 4ZM8.8 7.625a2.675 2.675 0 1 1 5.35 0 2.675 2.675 0 0 1-5.35 0Z"/><path d="M4.475 3a3.625 3.625 0 0 0-1.006 7.108c-1.194.146-2.218.568-2.99 1.329C-.503 12.404-1 13.845-1 15.725a.475.475 0 1 0 .95 0c0-1.72.453-2.88 1.196-3.612C1.89 11.38 3.002 11 4.475 11s2.585.38 3.33 1.113C8.546 12.846 9 14.005 9 15.725a.475.475 0 1 0 .95 0c0-1.88-.497-3.32-1.48-4.288-.77-.76-1.795-1.183-2.989-1.329A3.627 3.627 0 0 0 4.475 3ZM1.8 6.625a2.675 2.675 0 1 1 5.35 0 2.675 2.675 0 0 1-5.35 0Z"/></g></symbol><symbol xmlns="http://www.w3.org/2000/svg" id="search" fill="currentColor" viewBox="0 0 15 15"><path fill-rule="evenodd" d="M10 6.5a3.5 3.5 0 1 1-7 0 3.5 3.5 0 0 1 7 0Zm-.691 3.516a4.5 4.5 0 1 1 .707-.707l2.838 2.837a.5.5 0 0 1-.708.708L9.31 10.016Z" clip-rule="evenodd"/></symbol><symbol xmlns="http://www.w3.org/2000/svg" id="sun" fill="none" viewBox="0 0 16 15"><path fill="#056DBC" fill-rule="evenodd" d="M8.282 0a.5.5 0 0 1 .5.5v2a.5.5 0 0 1-1 0v-2a.5.5 0 0 1 .5-.5ZM2.978 2.197a.5.5 0 0 1 .707 0L5.1 3.61a.5.5 0 0 1-.707.707L2.978 2.904a.5.5 0 0 1 0-.707ZM1.282 7a.5.5 0 1 0 0 1h2a.5.5 0 0 0 0-1h-2Zm1.696 5.803a.5.5 0 0 1 0-.707l1.415-1.414a.5.5 0 1 1 .707.707l-1.415 1.414a.5.5 0 0 1-.707 0ZM13.282 7a.5.5 0 0 0 0 1h2a.5.5 0 0 0 0-1h-2Zm-1.818-2.682a.5.5 0 0 1 0-.707l1.414-1.414a.5.5 0 1 1 .707.707L12.17 4.318a.5.5 0 0 1-.707 0ZM8.782 12.5a.5.5 0 0 0-1 0v2a.5.5 0 0 0 1 0v-2Zm2.682-1.818a.5.5 0 0 1 .707 0l1.414 1.414a.5.5 0 1 1-.707.707l-1.414-1.414a.5.5 0 0 1 0-.707ZM6.282 7.5a2 2 0 1 1 4 0 2 2 0 0 1-4 0Zm2-3a3 3 0 1 0 0 6 3 3 0 0 0 0-6Z" clip-rule="evenodd"/></symbol><symbol xmlns="http://www.w3.org/2000/svg" id="vertical-logo" fill="currentColor" viewBox="0 0 102 58"><g clip-path="url(#a)"><path fill="#007DFF" d="M23.503 26.137c-.723.722-1.156 1.733-1.156 2.744 0 1.155.433 2.021 1.156 2.744.722.722 1.734 1.155 2.89 1.155 1.156 0 2.167-.433 2.89-1.155.722-.723 1.156-1.733 1.156-2.744 0-1.155-.434-2.022-1.156-2.744-.723-.722-1.734-1.155-2.89-1.155-1.156 0-2.168.433-2.89 1.155Zm55.054 2.744c0-1.155-.433-2.022-1.156-2.744-.722-.722-1.734-1.155-2.89-1.155-1.156 0-2.167.433-2.89 1.155-.722.722-1.156 1.733-1.156 2.744 0 1.155.434 2.021 1.156 2.744.723.722 1.734 1.155 2.89 1.155 1.156 0 2.168-.433 2.89-1.155.723-.578 1.156-1.589 1.156-2.744ZM66.42 7.365c-.289-1.011-.867-1.878-1.878-2.455l-.145-.145c-.867-.433-2.023-.577-2.89-.288-1.011.288-1.878.866-2.456 1.877-.578.866-.578 2.021-.29 2.888.29 1.01.868 1.877 1.88 2.455 1.01.577 2.022.722 3.034.433 1.011-.289 1.878-.867 2.456-1.877.434-.867.578-1.878.29-2.888ZM46.334 24.837c-1.012 1.011-1.734 2.455-1.734 4.044 0 1.588.722 3.032 1.734 4.043 1.011 1.011 2.456 1.733 4.046 1.733 1.59 0 3.034-.578 4.19-1.733 1.012-1.01 1.734-2.455 1.734-4.043 0-1.589-.722-3.033-1.734-4.044a5.88 5.88 0 0 0-4.19-1.732c-1.734 0-2.89.722-4.046 1.732Zm-6.792 2.311c.434-2.31 1.445-4.332 3.18-5.92.288-.29.577-.434.866-.723l-2.312-3.898c-1.59.577-3.323.577-4.913.144-2.167-.578-4.046-1.877-5.202-4.043-1.156-2.022-1.445-4.333-.867-6.354.578-2.166 2.023-4.044 4.046-5.199A8.948 8.948 0 0 1 40.987.29c2.168.577 4.046 1.877 5.202 4.043l.29.578c.866 1.877 1.01 3.899.577 5.92a8.573 8.573 0 0 1-2.6 4.188l2.311 3.899c1.156-.433 2.601-.722 3.902-.722 1.445 0 2.745.289 3.901.722l2.312-3.899a8.573 8.573 0 0 1-2.6-4.188c-.579-2.166-.29-4.476.866-6.498v-.144c1.156-2.022 3.035-3.322 5.202-3.9 2.168-.577 4.48-.288 6.503.867h.144C69.02 2.31 70.321 4.188 70.9 6.21c.578 2.166.289 4.477-.867 6.499-1.156 2.021-3.18 3.465-5.202 4.043-1.59.433-3.324.433-4.913-.145l-2.312 3.9c.289.288.578.433.867.721 1.59 1.589 2.745 3.61 3.179 5.921h4.624c.289-1.588 1.156-3.177 2.312-4.188 1.59-1.588 3.757-2.455 6.069-2.455s4.48 1.011 6.069 2.455c1.59 1.589 2.6 3.61 2.6 6.065 0 2.31-1.01 4.477-2.6 6.065-1.59 1.589-3.757 2.455-6.07 2.455-2.456 0-4.623-1.01-6.068-2.455-1.156-1.155-2.023-2.599-2.312-4.188H61.65c-.434 2.311-1.445 4.333-3.18 5.921C56.45 38.845 53.704 40 50.67 40c-3.035 0-5.78-1.3-7.803-3.177-1.59-1.588-2.746-3.61-3.18-5.92h-4.623c-.29 1.588-1.156 3.032-2.312 4.187-1.59 1.589-3.757 2.455-6.07 2.455-2.311 0-4.623-1.01-6.068-2.455-1.59-1.588-2.601-3.61-2.601-6.065 0-2.31 1.011-4.476 2.6-6.065 1.59-1.588 3.758-2.455 6.07-2.455 2.456 0 4.624 1.011 6.069 2.455 1.156 1.155 2.023 2.6 2.312 4.188h4.48ZM36.363 4.91c-1.011.577-1.59 1.444-1.878 2.455-.29 1.01-.145 2.021.433 3.032.578 1.01 1.445 1.589 2.457 1.877 1.011.29 2.167.145 3.034-.433 1.012-.577 1.59-1.444 1.879-2.455.289-1.01.144-2.021-.434-3.032-.578-.867-1.445-1.589-2.456-1.733-.867-.289-2.023-.144-3.035.289Z"/><path d="M0 45.266h2.611l1.65 4.914c.052.156.096.315.133.476a7.113 7.113 0 0 1 .156 1.04h.047c.031-.282.073-.545.125-.79a7.22 7.22 0 0 1 .21-.726l1.62-4.914h2.556L5.41 55.117c-.224.604-.516 1.107-.876 1.508-.36.406-.774.71-1.243.914a3.78 3.78 0 0 1-1.532.305c-.271 0-.506-.016-.704-.047a5.985 5.985 0 0 1-.508-.086v-1.89a4.213 4.213 0 0 0 .938.102c.334-.001.62-.071.86-.212.24-.14.44-.33.602-.57.162-.235.29-.493.383-.774l.141-.43L0 45.267Zm18.309 4.351c0 .73-.1 1.375-.297 1.938a3.817 3.817 0 0 1-.852 1.43c-.37.385-.819.676-1.345.874-.521.198-1.11.297-1.767.297a4.7 4.7 0 0 1-1.696-.297 3.77 3.77 0 0 1-1.337-.875 4.078 4.078 0 0 1-.876-1.43c-.203-.562-.304-1.208-.304-1.937 0-.969.172-1.789.516-2.46a3.54 3.54 0 0 1 1.47-1.532c.635-.349 1.393-.523 2.274-.523.819 0 1.543.174 2.174.523.635.349 1.133.86 1.493 1.531.365.672.547 1.492.547 2.461Zm-6.043 0c0 .573.063 1.055.188 1.446.125.39.32.684.586.882.266.198.612.297 1.04.297.422 0 .763-.099 1.024-.297.266-.198.458-.492.578-.883.125-.39.188-.872.188-1.445 0-.578-.063-1.057-.188-1.437-.12-.386-.312-.675-.578-.867-.266-.193-.613-.29-1.04-.29-.63 0-1.09.217-1.376.649-.281.432-.422 1.08-.422 1.945ZM28.3 45.266V54h-1.83l-.32-1.117h-.125a2.393 2.393 0 0 1-.704.726 3.058 3.058 0 0 1-.93.414c-.339.089-.69.133-1.055.133-.626 0-1.17-.11-1.634-.328a2.433 2.433 0 0 1-1.087-1.039c-.255-.469-.383-1.078-.383-1.828v-5.695h2.385v5.101c0 .625.111 1.097.336 1.414.224.318.58.477 1.07.477.485 0 .866-.11 1.142-.328.276-.224.47-.55.579-.977.114-.432.172-.958.172-1.578v-4.11H28.3Zm6.184 6.992c.26 0 .513-.026.758-.078a7.43 7.43 0 0 0 .743-.196v1.774a4.364 4.364 0 0 1-.954.281 6.07 6.07 0 0 1-1.235.117c-.521 0-.99-.083-1.407-.25a2 2 0 0 1-.978-.883c-.234-.422-.351-1.008-.351-1.758v-4.21h-1.142v-1.008l1.314-.797.688-1.844h1.524v1.86h2.447v1.789h-2.447v4.21c0 .334.094.584.281.75.193.162.446.243.759.243Zm11.218-2.64c0 .728-.099 1.374-.297 1.937a3.818 3.818 0 0 1-.852 1.43c-.37.385-.818.676-1.345.874-.52.198-1.11.297-1.767.297a4.7 4.7 0 0 1-1.696-.297 3.77 3.77 0 0 1-1.337-.875 4.08 4.08 0 0 1-.875-1.43c-.204-.562-.305-1.208-.305-1.937 0-.969.172-1.789.516-2.46a3.54 3.54 0 0 1 1.47-1.532c.635-.349 1.394-.523 2.274-.523.819 0 1.543.174 2.174.523.636.349 1.133.86 1.493 1.531.365.672.547 1.492.547 2.461Zm-6.043 0c0 .572.063 1.054.188 1.444.125.391.32.685.586.883.266.198.612.297 1.04.297.422 0 .763-.099 1.024-.297.266-.198.459-.492.578-.883.125-.39.188-.872.188-1.445 0-.578-.063-1.057-.188-1.437-.12-.386-.312-.675-.578-.867-.266-.193-.612-.29-1.04-.29-.63 0-1.09.217-1.376.649-.281.432-.422 1.08-.422 1.945Zm10.57 8.226c-1.22 0-2.153-.214-2.8-.641-.64-.422-.96-1.016-.96-1.781 0-.526.163-.966.492-1.32.328-.355.81-.607 1.446-.758a1.607 1.607 0 0 1-.641-.508 1.232 1.232 0 0 1-.274-.758c0-.333.097-.61.29-.828.192-.224.471-.443.836-.656a2.368 2.368 0 0 1-1.094-.953c-.266-.438-.399-.954-.399-1.547 0-.636.138-1.175.414-1.617.282-.448.688-.79 1.22-1.024.537-.234 1.188-.351 1.954-.351.162 0 .35.01.563.03.214.022.41.045.586.071.183.026.305.047.368.063h3.049v1.21l-1.368.352c.125.193.219.399.281.617.063.22.094.45.094.696 0 .937-.328 1.669-.985 2.195-.652.52-1.559.781-2.72.781a15.936 15.936 0 0 1-.783-.062 1.11 1.11 0 0 0-.273.297.628.628 0 0 0-.094.328c0 .114.047.21.14.289.1.073.246.13.439.172.198.036.443.054.735.054h1.485c.959 0 1.689.206 2.189.617.505.412.758 1.016.758 1.813 0 1.02-.427 1.813-1.282 2.375-.85.563-2.072.844-3.667.844Zm.101-1.555c.568 0 1.056-.055 1.462-.164.412-.104.727-.255.946-.453a.895.895 0 0 0 .328-.695c0-.22-.065-.394-.195-.524-.125-.125-.318-.213-.579-.266a5.081 5.081 0 0 0-.985-.078h-1.235a2.11 2.11 0 0 0-.79.141 1.355 1.355 0 0 0-.547.39.932.932 0 0 0-.203.594c0 .328.156.586.47.774.317.187.76.281 1.328.281Zm.383-6.625c.448 0 .777-.138.985-.414.209-.276.313-.651.313-1.125 0-.526-.11-.92-.328-1.18-.214-.265-.537-.398-.97-.398-.438 0-.766.133-.985.398-.219.26-.328.654-.328 1.18 0 .474.107.849.32 1.125.22.276.55.414.993.414Zm9.616-4.562c.808 0 1.504.156 2.087.468a3.204 3.204 0 0 1 1.353 1.344c.318.589.477 1.307.477 2.156v1.157h-5.637c.026.671.227 1.2.602 1.586.38.38.907.57 1.58.57.557 0 1.068-.058 1.531-.172a7.79 7.79 0 0 0 1.431-.516v1.844c-.432.214-.886.37-1.36.469-.47.099-1.04.148-1.712.148-.876 0-1.652-.161-2.33-.484a3.617 3.617 0 0 1-1.587-1.477c-.38-.661-.57-1.495-.57-2.5 0-1.02.171-1.87.515-2.547.35-.682.834-1.192 1.454-1.53.62-.345 1.343-.516 2.166-.516Zm.016 1.695c-.464 0-.85.148-1.157.445-.303.297-.477.763-.524 1.399h3.346a2.354 2.354 0 0 0-.196-.946 1.468 1.468 0 0 0-.547-.656c-.24-.161-.547-.242-.922-.242Zm9.522 5.46c.26 0 .513-.025.758-.077.25-.053.498-.117.743-.196v1.774a4.364 4.364 0 0 1-.954.281 6.07 6.07 0 0 1-1.236.117c-.52 0-.99-.083-1.407-.25a2 2 0 0 1-.977-.883c-.234-.422-.352-1.008-.352-1.758v-4.21h-1.141v-1.008l1.313-.797.688-1.844h1.525v1.86h2.447v1.789h-2.447v4.21c0 .334.094.584.281.75.193.162.446.243.758.243Zm5.66-10.413v2.476c0 .433-.016.844-.047 1.235-.026.39-.047.666-.063.828h.125c.188-.302.41-.547.665-.735a2.75 2.75 0 0 1 .86-.414 3.686 3.686 0 0 1 1.008-.132c.63 0 1.18.112 1.65.336a2.37 2.37 0 0 1 1.094 1.039c.26.468.39 1.078.39 1.828V54h-2.383v-5.102c0-.625-.115-1.096-.344-1.414-.23-.317-.584-.476-1.064-.476-.48 0-.857.112-1.133.336-.276.218-.472.544-.587.976-.114.427-.171.95-.171 1.57V54h-2.385V41.844h2.385Zm11.742 3.258c.807 0 1.503.156 2.087.468a3.204 3.204 0 0 1 1.352 1.344c.318.589.477 1.307.477 2.156v1.157H85.55c.026.671.226 1.2.602 1.586.38.38.907.57 1.579.57.558 0 1.068-.058 1.532-.172.464-.115.94-.286 1.43-.516v1.844c-.432.214-.885.37-1.36.469-.468.099-1.04.148-1.712.148-.875 0-1.652-.161-2.33-.484a3.618 3.618 0 0 1-1.586-1.477c-.38-.661-.57-1.495-.57-2.5 0-1.02.171-1.87.515-2.547.35-.682.834-1.192 1.454-1.53.62-.345 1.342-.516 2.166-.516Zm.015 1.695c-.464 0-.85.148-1.157.445-.302.297-.477.763-.523 1.399h3.345a2.352 2.352 0 0 0-.195-.946 1.468 1.468 0 0 0-.547-.656c-.24-.161-.547-.242-.923-.242Zm10.718-1.695c.12 0 .258.007.415.023.161.01.291.026.39.047l-.18 2.234a1.447 1.447 0 0 0-.335-.054 3.376 3.376 0 0 0-.368-.024c-.307 0-.607.04-.899.117a2.198 2.198 0 0 0-.774.383 1.79 1.79 0 0 0-.547.688c-.13.28-.195.627-.195 1.039V54h-2.385v-8.734h1.806l.352 1.468h.117c.172-.297.386-.567.641-.812.26-.25.555-.448.883-.594a2.585 2.585 0 0 1 1.08-.226Z"/></g></symbol></svg>