<svg width="0" height="0" class="hidden"><symbol viewBox="0 0 15 15" fill="none" xmlns="http://www.w3.org/2000/svg" id="arrowLeft"><path fill-rule="evenodd" clip-rule="evenodd" d="M6.85355 3.14645C7.04882 3.34171 7.04882 3.65829 6.85355 3.85355L3.70711 7H12.5C12.7761 7 13 7.22386 13 7.5C13 7.77614 12.7761 8 12.5 8H3.70711L6.85355 11.1464C7.04882 11.3417 7.04882 11.6583 6.85355 11.8536C6.65829 12.0488 6.34171 12.0488 6.14645 11.8536L2.14645 7.85355C1.95118 7.65829 1.95118 7.34171 2.14645 7.14645L6.14645 3.14645C6.34171 2.95118 6.65829 2.95118 6.85355 3.14645Z" fill="currentColor"></path></symbol><symbol viewBox="0 0 10 12" fill="none" xmlns="http://www.w3.org/2000/svg" id="bookmark"><path fill-rule="evenodd" clip-rule="evenodd" d="M0.781616 0.5C0.781616 0.22386 1.00548 0 1.28162 0H9.28162C9.55772 0 9.78162 0.22386 9.78162 0.5V11.5C9.78162 11.6818 9.68302 11.8492 9.52402 11.9373C9.36502 12.0254 9.17072 12.0203 9.01662 11.924L5.28162 9.5896L1.54662 11.924C1.39249 12.0203 1.19821 12.0254 1.03924 11.9373C0.880256 11.8492 0.781616 11.6818 0.781616 11.5V0.5ZM1.78162 1V10.5979L4.75162 8.7416C5.07589 8.539 5.48735 8.539 5.81162 8.7416L8.78162 10.5979V1H1.78162Z" fill="currentColor"></path></symbol><symbol viewBox="0 0 15 15" fill="none" xmlns="http://www.w3.org/2000/svg" id="cross"><path fill-rule="evenodd" clip-rule="evenodd" d="M11.7816 4.03157C12.0062 3.80702 12.0062 3.44295 11.7816 3.2184C11.5571 2.99385 11.193 2.99385 10.9685 3.2184L7.50005 6.68682L4.03164 3.2184C3.80708 2.99385 3.44301 2.99385 3.21846 3.2184C2.99391 3.44295 2.99391 3.80702 3.21846 4.03157L6.68688 7.49999L3.21846 10.9684C2.99391 11.193 2.99391 11.557 3.21846 11.7816C3.44301 12.0061 3.80708 12.0061 4.03164 11.7816L7.50005 8.31316L10.9685 11.7816C11.193 12.0061 11.5571 12.0061 11.7816 11.7816C12.0062 11.557 12.0062 11.193 11.7816 10.9684L8.31322 7.49999L11.7816 4.03157Z" fill="currentColor"></path></symbol><symbol viewBox="0 0 14 13" fill="none" xmlns="http://www.w3.org/2000/svg" id="exit"><path fill-rule="evenodd" clip-rule="evenodd" d="M1.78162 0C1.22933 0 0.781616 0.44772 0.781616 1V12C0.781616 12.5523 1.22934 13 1.78162 13H9.28162C9.55772 13 9.78162 12.7761 9.78162 12.5C9.78162 12.2239 9.55772 12 9.28162 12H1.78162V1H9.28162C9.55772 1 9.78162 0.77614 9.78162 0.5C9.78162 0.22386 9.55772 0 9.28162 0H1.78162ZM11.3852 3.89645C11.1899 3.70118 10.8733 3.70118 10.678 3.89645C10.4828 4.09171 10.4828 4.40829 10.678 4.60355L12.0745 6H5.28162C5.00548 6 4.78162 6.22386 4.78162 6.5C4.78162 6.77614 5.00548 7 5.28162 7H12.0745L10.678 8.39645C10.4828 8.59171 10.4828 8.90829 10.678 9.1036C10.8733 9.2988 11.1899 9.2988 11.3852 9.1036L13.6352 6.85355C13.8304 6.65829 13.8304 6.34171 13.6352 6.14645L11.3852 3.89645Z" fill="currentColor"></path></symbol><symbol viewBox="0 0 20 20" fill="none" xmlns="http://www.w3.org/2000/svg" id="eye-none"><g clip-path="url(#clip0_252_380)"><path d="M8.82085 8.82251C8.50833 9.13513 8.33281 9.5591 8.33289 10.0011C8.33296 10.4432 8.50864 10.8671 8.82126 11.1796C9.13389 11.4921 9.55785 11.6676 9.99989 11.6676C10.4419 11.6675 10.8658 11.4918 11.1783 11.1792" stroke="currentColor" stroke-width="2" stroke-linecap="round" stroke-linejoin="round"></path><path d="M13.9008 13.8942C12.7319 14.6256 11.3789 15.0091 10 15C7 15 4.5 13.3334 2.5 10C3.56 8.23336 4.76 6.93503 6.1 6.10503M8.48333 5.15002C8.98253 5.04897 9.49068 4.99871 10 5.00003C13 5.00003 15.5 6.66669 17.5 10C16.945 10.925 16.3508 11.7225 15.7183 12.3917" stroke="currentColor" stroke-width="2" stroke-linecap="round" stroke-linejoin="round"></path><path d="M2.5 2.5L17.5 17.5" stroke="currentColor" stroke-width="2" stroke-linecap="round" stroke-linejoin="round"></path></g><defs><clipPath id="clip0_252_380"><rect width="20" height="20" fill="currentColor"></rect></clipPath></defs></symbol><symbol viewBox="0 0 20 20" fill="none" xmlns="http://www.w3.org/2000/svg" id="eye-open"><g clip-path="url(#clip0_252_316)"><path d="M8.33331 10C8.33331 10.4421 8.50891 10.866 8.82147 11.1786C9.13403 11.4911 9.55795 11.6667 9.99998 11.6667C10.442 11.6667 10.8659 11.4911 11.1785 11.1786C11.4911 10.866 11.6666 10.4421 11.6666 10C11.6666 9.55801 11.4911 9.13409 11.1785 8.82153C10.8659 8.50897 10.442 8.33337 9.99998 8.33337C9.55795 8.33337 9.13403 8.50897 8.82147 8.82153C8.50891 9.13409 8.33331 9.55801 8.33331 10Z" stroke="currentColor" stroke-width="2" stroke-linecap="round" stroke-linejoin="round"></path><path d="M17.5 10C15.5 13.3333 13 15 10 15C7 15 4.5 13.3333 2.5 10C4.5 6.66667 7 5 10 5C13 5 15.5 6.66667 17.5 10Z" stroke="currentColor" stroke-width="2" stroke-linecap="round" stroke-linejoin="round"></path></g><defs><clipPath id="clip0_252_316"><rect width="20" height="20" fill="currentColor"></rect></clipPath></defs></symbol><symbol viewBox="0 0 16 15" fill="none" xmlns="http://www.w3.org/2000/svg" id="globe"><path fill-rule="evenodd" clip-rule="evenodd" d="M8.28158 1.80002C5.13356 1.80002 2.58158 4.352 2.58158 7.50002C2.58158 10.648 5.13356 13.2 8.28158 13.2C11.4296 13.2 13.9816 10.648 13.9816 7.50002C13.9816 4.352 11.4296 1.80002 8.28158 1.80002ZM1.68158 7.50002C1.68158 3.85494 4.6365 0.900024 8.28158 0.900024C11.9266 0.900024 14.8816 3.85494 14.8816 7.50002C14.8816 11.1451 11.9266 14.1 8.28158 14.1C4.6365 14.1 1.68158 11.1451 1.68158 7.50002Z" fill="currentColor"></path><path fill-rule="evenodd" clip-rule="evenodd" d="M14.2815 7.89998H2.28156V7.09998H14.2815V7.89998Z" fill="currentColor"></path><path fill-rule="evenodd" clip-rule="evenodd" d="M7.88153 13.5V1.5H8.68153V13.5H7.88153ZM11.1566 7.49998C11.1566 5.32724 10.3753 3.17778 8.84345 1.75656L9.31955 1.24341C11.0212 2.82218 11.8566 5.17273 11.8566 7.49998C11.8566 9.82724 11.0212 12.1778 9.31955 13.7566L8.84345 13.2434C10.3753 11.8222 11.1566 9.67273 11.1566 7.49998ZM4.78131 7.5C4.78131 5.17611 5.58948 2.82678 7.2393 1.24719L7.72339 1.75281C6.23982 3.17323 5.48131 5.32389 5.48131 7.5C5.48132 9.67611 6.23984 11.8268 7.72341 13.2472L7.23931 13.7528C5.5895 12.1732 4.78132 9.8239 4.78131 7.5Z" fill="currentColor"></path><path fill-rule="evenodd" clip-rule="evenodd" d="M8.28158 3.95801C10.4509 3.95801 12.6569 4.35915 14.1522 5.19448C14.321 5.28875 14.3814 5.50197 14.2871 5.67073C14.1929 5.83948 13.9796 5.89987 13.8109 5.8056C12.461 5.05155 10.3896 4.65801 8.28158 4.65801C6.17354 4.65801 4.10214 5.05155 2.75226 5.8056C2.5835 5.89987 2.37028 5.83948 2.27601 5.67073C2.18175 5.50197 2.24213 5.28875 2.41089 5.19448C3.90628 4.35915 6.11225 3.95801 8.28158 3.95801ZM8.28158 10.85C10.4509 10.85 12.6569 10.4488 14.1522 9.6135C14.321 9.51924 14.3814 9.30601 14.2871 9.13726C14.1929 8.9685 13.9796 8.90812 13.8109 9.00238C12.461 9.75643 10.3896 10.15 8.28158 10.15C6.17354 10.15 4.10214 9.75643 2.75226 9.00239C2.5835 8.90812 2.37028 8.9685 2.27601 9.13726C2.18175 9.30601 2.24213 9.51924 2.41089 9.6135C3.90628 10.4488 6.11225 10.85 8.28158 10.85Z" fill="currentColor"></path></symbol><symbol viewBox="0 0 24 24" fill="none" xmlns="http://www.w3.org/2000/svg" id="key"><g clip-path="url(#clip0_257_420)"><path d="M16.555 3.84305L20.157 7.44505C20.4242 7.71221 20.6362 8.02939 20.7808 8.37847C20.9254 8.72755 20.9998 9.1017 20.9998 9.47955C20.9998 9.8574 20.9254 10.2316 20.7808 10.5806C20.6362 10.9297 20.4242 11.2469 20.157 11.5141L17.514 14.1571C17.2468 14.4243 16.9297 14.6362 16.5806 14.7808C16.2315 14.9254 15.8573 14.9999 15.4795 14.9999C15.1017 14.9999 14.7275 14.9254 14.3784 14.7808C14.0293 14.6362 13.7122 14.4243 13.445 14.1571L13.144 13.8561L6.586 20.4141C6.25372 20.7463 5.81507 20.9509 5.347 20.9921L5.172 21.0001H4C3.75507 21 3.51866 20.9101 3.33563 20.7473C3.15259 20.5846 3.03566 20.3603 3.007 20.1171L3 20.0001V18.8281C3.00011 18.3585 3.16543 17.904 3.467 17.5441L3.586 17.4141L4 17.0001H6V15.0001H8V13.0001L10.144 10.8561L9.843 10.5551C9.5758 10.2879 9.36384 9.97071 9.21923 9.62163C9.07462 9.27255 9.00019 8.8984 9.00019 8.52055C9.00019 8.1427 9.07462 7.76855 9.21923 7.41947C9.36384 7.07039 9.5758 6.75321 9.843 6.48605L12.486 3.84305C12.7532 3.57585 13.0703 3.36389 13.4194 3.21928C13.7685 3.07467 14.1427 3.00024 14.5205 3.00024C14.8983 3.00024 15.2725 3.07467 15.6216 3.21928C15.9707 3.36389 16.2878 3.57585 16.555 3.84305Z" stroke="currentColor" stroke-width="2" stroke-linecap="round" stroke-linejoin="round"></path><path d="M15 9H15.01" stroke="currentColor" stroke-width="2" stroke-linecap="round" stroke-linejoin="round"></path></g><defs><clipPath id="clip0_257_420"><rect width="24" height="24" fill="currentColor"></rect></clipPath></defs></symbol><symbol viewBox="0 0 15 15" fill="none" xmlns="http://www.w3.org/2000/svg" id="laptop"><path fill-rule="evenodd" clip-rule="evenodd" d="M2 4.25C2 4.11193 2.11193 4 2.25 4H12.75C12.8881 4 13 4.11193 13 4.25V11.5H2V4.25ZM2.25 3C1.55964 3 1 3.55964 1 4.25V12H0V12.5C0 12.7761 0.223858 13 0.5 13H14.5C14.7761 13 15 12.7761 15 12.5V12H14V4.25C14 3.55964 13.4404 3 12.75 3H2.25Z" fill="currentColor"></path></symbol><symbol stroke="currentColor" fill="currentColor" stroke-width="0" viewBox="0 0 24 24" xmlns="http://www.w3.org/2000/svg" id="loader"><path d="M12 22c5.421 0 10-4.579 10-10h-2c0 4.337-3.663 8-8 8s-8-3.663-8-8c0-4.336 3.663-8 8-8V2C6.579 2 2 6.58 2 12c0 5.421 4.579 10 10 10z"></path></symbol><symbol viewBox="0 0 24 24" fill="none" xmlns="http://www.w3.org/2000/svg" id="mail"><g clip-path="url(#clip0_252_362)"><path d="M3 7C3 6.46957 3.21071 5.96086 3.58579 5.58579C3.96086 5.21071 4.46957 5 5 5H19C19.5304 5 20.0391 5.21071 20.4142 5.58579C20.7893 5.96086 21 6.46957 21 7V17C21 17.5304 20.7893 18.0391 20.4142 18.4142C20.0391 18.7893 19.5304 19 19 19H5C4.46957 19 3.96086 18.7893 3.58579 18.4142C3.21071 18.0391 3 17.5304 3 17V7Z" stroke="currentColor" stroke-width="2" stroke-linecap="round" stroke-linejoin="round"></path><path d="M3 7L12 13L21 7" stroke="currentColor" stroke-width="2" stroke-linecap="round" stroke-linejoin="round"></path></g><defs><clipPath id="clip0_252_362"><rect width="24" height="24" fill="currentColor"></rect></clipPath></defs></symbol><symbol viewBox="0 0 15 15" fill="none" xmlns="http://www.w3.org/2000/svg" id="moon"><g clip-path="url(#clip0_160_249)"><path fill-rule="evenodd" clip-rule="evenodd" d="M2.89998 0.499976C2.89998 0.279062 2.72089 0.0999756 2.49998 0.0999756C2.27906 0.0999756 2.09998 0.279062 2.09998 0.499976V1.09998H1.49998C1.27906 1.09998 1.09998 1.27906 1.09998 1.49998C1.09998 1.72089 1.27906 1.89998 1.49998 1.89998H2.09998V2.49998C2.09998 2.72089 2.27906 2.89998 2.49998 2.89998C2.72089 2.89998 2.89998 2.72089 2.89998 2.49998V1.89998H3.49998C3.72089 1.89998 3.89998 1.72089 3.89998 1.49998C3.89998 1.27906 3.72089 1.09998 3.49998 1.09998H2.89998V0.499976ZM5.89998 3.49998C5.89998 3.27906 5.72089 3.09998 5.49998 3.09998C5.27906 3.09998 5.09998 3.27906 5.09998 3.49998V4.09998H4.49998C4.27906 4.09998 4.09998 4.27906 4.09998 4.49998C4.09998 4.72089 4.27906 4.89998 4.49998 4.89998H5.09998V5.49998C5.09998 5.72089 5.27906 5.89998 5.49998 5.89998C5.72089 5.89998 5.89998 5.72089 5.89998 5.49998V4.89998H6.49998C6.72089 4.89998 6.89998 4.72089 6.89998 4.49998C6.89998 4.27906 6.72089 4.09998 6.49998 4.09998H5.89998V3.49998ZM1.89998 6.49998C1.89998 6.27906 1.72089 6.09998 1.49998 6.09998C1.27906 6.09998 1.09998 6.27906 1.09998 6.49998V7.09998H0.499976C0.279062 7.09998 0.0999756 7.27906 0.0999756 7.49998C0.0999756 7.72089 0.279062 7.89998 0.499976 7.89998H1.09998V8.49998C1.09998 8.72089 1.27906 8.89997 1.49998 8.89997C1.72089 8.89997 1.89998 8.72089 1.89998 8.49998V7.89998H2.49998C2.72089 7.89998 2.89998 7.72089 2.89998 7.49998C2.89998 7.27906 2.72089 7.09998 2.49998 7.09998H1.89998V6.49998ZM8.54406 0.98184L8.24618 0.941586C8.03275 0.917676 7.90692 1.1655 8.02936 1.34194C8.17013 1.54479 8.29981 1.75592 8.41754 1.97445C8.91878 2.90485 9.20322 3.96932 9.20322 5.10022C9.20322 8.37201 6.82247 11.0878 3.69887 11.6097C3.45736 11.65 3.20988 11.6772 2.96008 11.6906C2.74563 11.702 2.62729 11.9535 2.77721 12.1072C2.84551 12.1773 2.91535 12.2458 2.98667 12.3128L3.05883 12.3795L3.31883 12.6045L3.50684 12.7532L3.62796 12.8433L3.81491 12.9742L3.99079 13.089C4.11175 13.1651 4.23536 13.2375 4.36157 13.3059L4.62496 13.4412L4.88553 13.5607L5.18837 13.6828L5.43169 13.7686C5.56564 13.8128 5.70149 13.8529 5.83857 13.8885C5.94262 13.9155 6.04767 13.9401 6.15405 13.9622C6.27993 13.9883 6.40713 14.0109 6.53544 14.0298L6.85241 14.0685L7.11934 14.0892C7.24637 14.0965 7.37436 14.1002 7.50322 14.1002C11.1483 14.1002 14.1032 11.1453 14.1032 7.50023C14.1032 7.25044 14.0893 7.00389 14.0623 6.76131L14.0255 6.48407C13.991 6.26083 13.9453 6.04129 13.8891 5.82642C13.8213 5.56709 13.7382 5.31398 13.6409 5.06881L13.5279 4.80132L13.4507 4.63542L13.3766 4.48666C13.2178 4.17773 13.0353 3.88295 12.8312 3.60423L12.6782 3.40352L12.4793 3.16432L12.3157 2.98361L12.1961 2.85951L12.0355 2.70246L11.8134 2.50184L11.4925 2.24191L11.2483 2.06498L10.9562 1.87446L10.6346 1.68894L10.3073 1.52378L10.1938 1.47176L9.95488 1.3706L9.67791 1.2669L9.42566 1.1846L9.10075 1.09489L8.83599 1.03486L8.54406 0.98184ZM10.4032 5.30023C10.4032 4.27588 10.2002 3.29829 9.83244 2.40604C11.7623 3.28995 13.1032 5.23862 13.1032 7.50023C13.1032 10.593 10.596 13.1002 7.50322 13.1002C6.63646 13.1002 5.81597 12.9036 5.08355 12.5522C6.5419 12.0941 7.81081 11.2082 8.74322 10.0416C8.87963 10.2284 9.10028 10.3497 9.34928 10.3497C9.76349 10.3497 10.0993 10.0139 10.0993 9.59971C10.0993 9.24256 9.84965 8.94373 9.51535 8.86816C9.57741 8.75165 9.63653 8.63334 9.6926 8.51332C9.88358 8.63163 10.1088 8.69993 10.35 8.69993C11.0403 8.69993 11.6 8.14028 11.6 7.44993C11.6 6.75976 11.0406 6.20024 10.3505 6.19993C10.3853 5.90487 10.4032 5.60464 10.4032 5.30023Z" fill="currentColor"></path></g><defs><clipPath id="clip0_160_249"><rect width="15" height="15" fill="currentColor"></rect></clipPath></defs></symbol><symbol viewBox="0 0 12 15" fill="none" xmlns="http://www.w3.org/2000/svg" id="person"><path fill-rule="evenodd" clip-rule="evenodd" d="M6.28162 0.875C4.27959 0.875 2.65662 2.49797 2.65662 4.5C2.65662 6.15288 3.76286 7.54738 5.27535 7.98351C4.08132 8.12901 3.05719 8.55134 2.28569 9.31167C1.30378 10.2794 0.806641 11.72 0.806641 13.5999C0.806641 13.8623 1.01931 14.0749 1.28164 14.0749C1.54398 14.0749 1.75664 13.8623 1.75664 13.5999C1.75664 11.8799 2.20948 10.7206 2.95253 9.9883C3.69698 9.25463 4.80836 8.87499 6.28157 8.87499C7.75479 8.87499 8.86622 9.25463 9.61072 9.98831C10.3537 10.7206 10.8066 11.8799 10.8066 13.5999C10.8066 13.8623 11.0192 14.0749 11.2816 14.0749C11.5439 14.075 11.7566 13.8623 11.7566 13.6C11.7566 11.72 11.2594 10.2794 10.2775 9.31166C9.50602 8.55135 8.48187 8.12903 7.28787 7.98352C8.80032 7.5474 9.90662 6.15289 9.90662 4.5C9.90662 2.49797 8.28365 0.875 6.28162 0.875ZM3.60662 4.5C3.60662 3.02264 4.80426 1.825 6.28162 1.825C7.75898 1.825 8.95662 3.02264 8.95662 4.5C8.95662 5.97736 7.75898 7.175 6.28162 7.175C4.80426 7.175 3.60662 5.97736 3.60662 4.5Z" fill="currentColor"></path></symbol><symbol viewBox="0 0 15 15" fill="none" xmlns="http://www.w3.org/2000/svg" id="persons"><g clip-path="url(#clip0_163_257)"><path fill-rule="evenodd" clip-rule="evenodd" d="M11.475 4C9.47295 4 7.84998 5.62297 7.84998 7.625C7.84998 9.27788 8.95622 10.6724 10.4687 11.1085C9.27468 11.254 8.25055 11.6763 7.47905 12.4367C6.49714 13.4044 6 14.845 6 16.7249C6 16.9873 6.21267 17.1999 6.475 17.1999C6.73734 17.1999 6.95 16.9873 6.95 16.7249C6.95 15.0049 7.40284 13.8456 8.14589 13.1133C8.89034 12.3796 10.0017 12 11.4749 12C12.9481 12 14.0596 12.3796 14.8041 13.1133C15.5471 13.8456 16 15.0049 16 16.7249C16 16.9873 16.2126 17.1999 16.475 17.1999C16.7373 17.2 16.95 16.9873 16.95 16.725C16.95 14.845 16.4528 13.4044 15.4709 12.4367C14.6994 11.6763 13.6752 11.254 12.4812 11.1085C13.9937 10.6724 15.1 9.27789 15.1 7.625C15.1 5.62297 13.477 4 11.475 4ZM8.79998 7.625C8.79998 6.14764 9.99762 4.95 11.475 4.95C12.9523 4.95 14.15 6.14764 14.15 7.625C14.15 9.10236 12.9523 10.3 11.475 10.3C9.99762 10.3 8.79998 9.10236 8.79998 7.625Z" fill="currentColor"></path><path fill-rule="evenodd" clip-rule="evenodd" d="M4.47498 3C2.47295 3 0.84998 4.62297 0.84998 6.625C0.84998 8.27788 1.95622 9.67238 3.46871 10.1085C2.27468 10.254 1.25055 10.6763 0.47905 11.4367C-0.50286 12.4044 -1 13.845 -1 15.7249C-1 15.9873 -0.78733 16.1999 -0.525 16.1999C-0.26266 16.1999 -0.05 15.9873 -0.05 15.7249C-0.05 14.0049 0.40284 12.8456 1.14589 12.1133C1.89034 11.3796 3.00172 11 4.47493 11C5.94815 11 7.05958 11.3796 7.80408 12.1133C8.54708 12.8456 8.99998 14.0049 8.99998 15.7249C8.99998 15.9873 9.21258 16.1999 9.47498 16.1999C9.73728 16.2 9.94998 15.9873 9.94998 15.725C9.94998 13.845 9.45278 12.4044 8.47088 11.4367C7.69938 10.6763 6.67523 10.254 5.48123 10.1085C6.99368 9.6724 8.09998 8.27789 8.09998 6.625C8.09998 4.62297 6.47701 3 4.47498 3ZM1.79998 6.625C1.79998 5.14764 2.99762 3.95 4.47498 3.95C5.95234 3.95 7.14998 5.14764 7.14998 6.625C7.14998 8.10236 5.95234 9.3 4.47498 9.3C2.99762 9.3 1.79998 8.10236 1.79998 6.625Z" fill="currentColor"></path></g><defs><clipPath id="clip0_163_257"><rect width="15" height="15" fill="currentColor"></rect></clipPath></defs></symbol><symbol viewBox="0 0 15 15" fill="currentColor" xmlns="http://www.w3.org/2000/svg" id="search"><path fill-rule="evenodd" clip-rule="evenodd" d="M10 6.5C10 8.433 8.433 10 6.5 10C4.567 10 3 8.433 3 6.5C3 4.567 4.567 3 6.5 3C8.433 3 10 4.567 10 6.5ZM9.30884 10.0159C8.53901 10.6318 7.56251 11 6.5 11C4.01472 11 2 8.98528 2 6.5C2 4.01472 4.01472 2 6.5 2C8.98528 2 11 4.01472 11 6.5C11 7.56251 10.6318 8.53901 10.0159 9.30884L12.8536 12.1464C13.0488 12.3417 13.0488 12.6583 12.8536 12.8536C12.6583 13.0488 12.3417 13.0488 12.1464 12.8536L9.30884 10.0159Z" fill="currentColor"></path></symbol><symbol viewBox="0 0 16 15" fill="none" xmlns="http://www.w3.org/2000/svg" id="sun"><path fill-rule="evenodd" clip-rule="evenodd" d="M8.28162 0C8.55776 0 8.78162 0.223858 8.78162 0.5V2.5C8.78162 2.77614 8.55776 3 8.28162 3C8.00548 3 7.78162 2.77614 7.78162 2.5V0.5C7.78162 0.223858 8.00548 0 8.28162 0ZM2.97832 2.1967C3.17358 2.00144 3.49016 2.00144 3.68543 2.1967L5.09964 3.61091C5.2949 3.80617 5.2949 4.12276 5.09964 4.31802C4.90438 4.51328 4.58779 4.51328 4.39253 4.31802L2.97832 2.90381C2.78306 2.70854 2.78306 2.39196 2.97832 2.1967ZM1.28162 7C1.00547 7 0.781616 7.22386 0.781616 7.5C0.781616 7.77614 1.00547 8 1.28162 8H3.28162C3.55776 8 3.78162 7.77614 3.78162 7.5C3.78162 7.22386 3.55776 7 3.28162 7H1.28162ZM2.97832 12.8033C2.78306 12.608 2.78306 12.2915 2.97832 12.0962L4.39253 10.682C4.58779 10.4867 4.90438 10.4867 5.09964 10.682C5.2949 10.8772 5.2949 11.1938 5.09964 11.3891L3.68543 12.8033C3.49016 12.9986 3.17358 12.9986 2.97832 12.8033ZM13.2816 7C13.0055 7 12.7816 7.22386 12.7816 7.5C12.7816 7.77614 13.0055 8 13.2816 8H15.2816C15.5577 8 15.7816 7.77614 15.7816 7.5C15.7816 7.22386 15.5577 7 15.2816 7H13.2816ZM11.4636 4.31802C11.2683 4.12276 11.2683 3.80617 11.4636 3.61091L12.8778 2.1967C13.0731 2.00144 13.3896 2.00144 13.5849 2.1967C13.7802 2.39196 13.7802 2.70854 13.5849 2.90381L12.1707 4.31802C11.9754 4.51328 11.6588 4.51328 11.4636 4.31802ZM8.78162 12.5C8.78162 12.2239 8.55776 12 8.28162 12C8.00548 12 7.78162 12.2239 7.78162 12.5V14.5C7.78162 14.7761 8.00548 15 8.28162 15C8.55776 15 8.78162 14.7761 8.78162 14.5V12.5ZM11.4636 10.682C11.6588 10.4867 11.9754 10.4867 12.1707 10.682L13.5849 12.0962C13.7802 12.2915 13.7802 12.608 13.5849 12.8033C13.3896 12.9986 13.0731 12.9986 12.8778 12.8033L11.4636 11.3891C11.2683 11.1938 11.2683 10.8772 11.4636 10.682ZM6.28162 7.5C6.28162 6.39543 7.17705 5.5 8.28162 5.5C9.38619 5.5 10.2816 6.39543 10.2816 7.5C10.2816 8.60457 9.38619 9.5 8.28162 9.5C7.17705 9.5 6.28162 8.60457 6.28162 7.5ZM8.28162 4.5C6.62477 4.5 5.28162 5.84315 5.28162 7.5C5.28162 9.15685 6.62477 10.5 8.28162 10.5C9.93847 10.5 11.2816 9.15685 11.2816 7.5C11.2816 5.84315 9.93847 4.5 8.28162 4.5Z" fill="currentColor"></path></symbol></svg>