<svg width="179" height="40" viewBox="0 0 179 40" fill="none" xmlns="http://www.w3.org/2000/svg">
<path d="M5.67214 26.1372C4.92581 26.8592 4.47801 27.87 4.47801 28.8809C4.47801 30.0361 4.92581 30.9025 5.67214 31.6245C6.41847 32.3466 7.46334 32.7798 8.65748 32.7798C9.85161 32.7798 10.8965 32.3466 11.6428 31.6245C12.3892 30.9025 12.837 29.8917 12.837 28.8809C12.837 27.7256 12.3892 26.8592 11.6428 26.1372C10.8965 25.4152 9.85161 24.9819 8.65748 24.9819C7.46334 24.9819 6.41847 25.4152 5.67214 26.1372ZM62.5428 28.8809C62.5428 27.7256 62.095 26.8592 61.3486 26.1372C60.6023 25.4152 59.5575 24.9819 58.3634 24.9819C57.1692 24.9819 56.1243 25.4152 55.378 26.1372C54.6316 26.8592 54.1838 27.87 54.1838 28.8809C54.1838 30.0361 54.6316 30.9025 55.378 31.6245C56.1243 32.3466 57.1692 32.7798 58.3634 32.7798C59.5575 32.7798 60.6023 32.3466 61.3486 31.6245C62.095 31.0469 62.5428 30.0361 62.5428 28.8809ZM50.0044 7.36462C49.7058 6.35379 49.1088 5.48736 48.064 4.90975L47.9147 4.76534C47.019 4.33213 45.8249 4.18772 44.9293 4.47653C43.8844 4.76534 42.9888 5.34296 42.3918 6.35379C41.7947 7.22022 41.7947 8.37545 42.0933 9.24187C42.3918 10.2527 42.9888 11.1191 44.0337 11.6967C45.0786 12.2744 46.1234 12.4188 47.1683 12.13C48.2132 11.8412 49.1088 11.2635 49.7058 10.2527C50.1536 9.38628 50.3029 8.37545 50.0044 7.36462ZM29.2563 24.8375C28.2114 25.8484 27.4651 27.2924 27.4651 28.8809C27.4651 30.4693 28.2114 31.9134 29.2563 32.9242C30.3012 33.935 31.7938 34.657 33.4357 34.657C35.0777 34.657 36.5703 34.0794 37.7645 32.9242C38.8094 31.9134 39.5557 30.4693 39.5557 28.8809C39.5557 27.2924 38.8094 25.8484 37.7645 24.8375C36.7196 23.8267 35.227 23.1047 33.4357 23.1047C31.6446 23.1047 30.4505 23.8267 29.2563 24.8375ZM22.2407 27.148C22.6885 24.8375 23.7335 22.8159 25.5246 21.2274C25.8231 20.9386 26.1217 20.7942 26.4202 20.5054L24.032 16.6065C22.39 17.1841 20.5988 17.1841 18.9568 16.7509C16.7179 16.1733 14.7774 14.8736 13.5833 12.7076C12.3891 10.6859 12.0906 8.37545 12.6877 6.35379C13.2848 4.18773 14.7774 2.31047 16.8672 1.15523C18.9568 7.15256e-07 21.4944 -0.288809 23.7335 0.288809C25.9724 0.866426 27.9129 2.16607 29.107 4.33213L29.4055 4.90975C30.3012 6.787 30.4505 8.80866 30.0026 10.8303C29.5548 12.4188 28.6592 13.8628 27.3159 15.018L29.7041 18.917C30.8983 18.4838 32.3909 18.1949 33.7343 18.1949C35.227 18.1949 36.5703 18.4838 37.7645 18.917L40.1527 15.018C38.8094 13.8628 37.9138 12.4188 37.466 10.8303C36.8689 8.66426 37.1675 6.35379 38.3616 4.33213V4.18773C39.5557 2.16607 41.4962 0.866426 43.7351 0.288809C45.9742 -0.288809 48.3625 7.15256e-07 50.4522 1.15523H50.6014C52.6912 2.31047 54.0346 4.18773 54.6316 6.20939C55.2288 8.37545 54.9302 10.6859 53.736 12.7076C52.5419 14.7292 50.4522 16.1733 48.3625 16.7509C46.7205 17.1841 44.9293 17.1841 43.2874 16.6065L40.8992 20.5054C41.1977 20.7942 41.4962 20.9386 41.7947 21.2274C43.4366 22.8159 44.6308 24.8375 45.0786 27.148H49.8551C50.1536 25.5596 51.0492 23.9711 52.2434 22.9603C53.8853 21.3718 56.1243 20.5054 58.5126 20.5054C60.9008 20.5054 63.1399 21.5162 64.7818 22.9603C66.4238 24.5487 67.4686 26.5704 67.4686 29.0253C67.4686 31.3357 66.4238 33.5018 64.7818 35.0903C63.1399 36.6787 60.9008 37.5451 58.5126 37.5451C55.9751 37.5451 53.736 36.5343 52.2434 35.0903C51.0492 33.935 50.1536 32.491 49.8551 30.9025H45.0786C44.6308 33.213 43.5859 35.2347 41.7947 36.8231C39.705 38.8448 36.8689 40 33.7343 40C30.5997 40 27.7636 38.7004 25.6739 36.8231C24.032 35.2347 22.8378 33.213 22.39 30.9025H17.6135C17.315 32.491 16.4194 33.935 15.2252 35.0903C13.5833 36.6787 11.3443 37.5451 8.95601 37.5451C6.56774 37.5451 4.17947 36.5343 2.68681 35.0903C1.04487 33.5018 0 31.4801 0 29.0253C0 26.7148 1.04487 24.5487 2.68681 22.9603C4.32874 21.3718 6.56774 20.5054 8.95601 20.5054C11.4935 20.5054 13.7326 21.5162 15.2252 22.9603C16.4194 24.1155 17.315 25.5596 17.6135 27.148C17.4642 27.148 22.2407 27.148 22.2407 27.148ZM18.9568 4.90975C17.912 5.48736 17.315 6.35379 17.0164 7.36462C16.7179 8.37545 16.8672 9.38628 17.4642 10.3971C18.0613 11.4079 18.9569 11.9856 20.0018 12.2744C21.0466 12.5632 22.2407 12.4188 23.1364 11.8412C24.1812 11.2635 24.7783 10.3971 25.0768 9.38628C25.3753 8.37545 25.2261 7.36462 24.629 6.35379C24.032 5.48736 23.1364 4.76534 22.0915 4.62094C21.1959 4.33213 20.0018 4.47653 18.9568 4.90975Z" fill="#349FF1"/>
<path d="M72.4686 18.2656H75.1658L76.8697 23.1797C76.9236 23.3359 76.9694 23.4948 77.007 23.6562C77.0447 23.8177 77.077 23.9844 77.104 24.1562C77.1308 24.3281 77.1523 24.5078 77.1686 24.6953H77.2171C77.2493 24.4141 77.2924 24.151 77.3463 23.9062C77.4054 23.6615 77.4782 23.4193 77.5643 23.1797L79.2359 18.2656H81.8767L78.0568 28.1172C77.8254 28.7214 77.5238 29.224 77.1523 29.625C76.7809 30.0312 76.3529 30.3359 75.8684 30.5391C75.3892 30.7422 74.8616 30.8438 74.2856 30.8438C74.0056 30.8438 73.7633 30.8281 73.5588 30.7969C73.3542 30.7708 73.1792 30.7422 73.0339 30.7109V28.8203C73.1469 28.8464 73.2896 28.8698 73.4618 28.8906C73.6341 28.9115 73.8145 28.9219 74.0029 28.9219C74.3475 28.9219 74.6436 28.8516 74.8913 28.7109C75.1389 28.5703 75.3462 28.3802 75.513 28.1406C75.68 27.9062 75.8119 27.6484 75.9087 27.3672L76.0542 26.9375L72.4686 18.2656ZM91.3816 22.6172C91.3816 23.3464 91.2793 23.9922 91.0747 24.5547C90.8755 25.1172 90.582 25.5938 90.1944 25.9844C89.8122 26.3698 89.3492 26.6615 88.8055 26.8594C88.2671 27.0573 87.6587 27.1562 86.9804 27.1562C86.3451 27.1562 85.761 27.0573 85.228 26.8594C84.7003 26.6615 84.24 26.3698 83.847 25.9844C83.4594 25.5938 83.1579 25.1172 82.9426 24.5547C82.7326 23.9922 82.6276 23.3464 82.6276 22.6172C82.6276 21.6484 82.8053 20.8281 83.1607 20.1562C83.516 19.4844 84.022 18.974 84.6788 18.625C85.3356 18.276 86.1189 18.1016 87.0288 18.1016C87.874 18.1016 88.6224 18.276 89.2738 18.625C89.9306 18.974 90.4448 19.4844 90.8163 20.1562C91.1931 20.8281 91.3816 21.6484 91.3816 22.6172ZM85.1391 22.6172C85.1391 23.1901 85.2037 23.6719 85.3329 24.0625C85.4622 24.4531 85.664 24.7474 85.9386 24.9453C86.2132 25.1432 86.5712 25.2422 87.0127 25.2422C87.4488 25.2422 87.8014 25.1432 88.0706 24.9453C88.3452 24.7474 88.5444 24.4531 88.6682 24.0625C88.7974 23.6719 88.862 23.1901 88.862 22.6172C88.862 22.0391 88.7974 21.5599 88.6682 21.1797C88.5444 20.7943 88.3452 20.5052 88.0706 20.3125C87.796 20.1198 87.438 20.0234 86.9965 20.0234C86.3451 20.0234 85.8713 20.2396 85.5752 20.6719C85.2845 21.1042 85.1391 21.7526 85.1391 22.6172ZM101.702 18.2656V27H99.8124L99.4813 25.8828H99.3521C99.1583 26.1797 98.916 26.4219 98.6254 26.6094C98.3346 26.7969 98.0143 26.9349 97.6644 27.0234C97.3145 27.112 96.951 27.1562 96.5741 27.1562C95.9281 27.1562 95.3655 27.0469 94.8864 26.8281C94.4073 26.6042 94.0331 26.2578 93.7639 25.7891C93.5001 25.3203 93.3682 24.7109 93.3682 23.9609V18.2656H95.8312V23.3672C95.8312 23.9922 95.9469 24.4635 96.1785 24.7812C96.41 25.099 96.7787 25.2578 97.2848 25.2578C97.7855 25.2578 98.1785 25.1484 98.4638 24.9297C98.7492 24.7057 98.9484 24.3802 99.0615 23.9531C99.1798 23.5208 99.2391 22.9948 99.2391 22.375V18.2656H101.702ZM108.09 25.2578C108.359 25.2578 108.62 25.2318 108.874 25.1797C109.132 25.1276 109.387 25.0625 109.64 24.9844V26.7578C109.377 26.8724 109.048 26.9661 108.655 27.0391C108.268 27.1172 107.842 27.1562 107.379 27.1562C106.841 27.1562 106.357 27.0729 105.925 26.9062C105.501 26.7344 105.164 26.4401 104.917 26.0234C104.674 25.6016 104.553 25.0156 104.553 24.2656V20.0547H103.373V19.0469L104.731 18.25L105.441 16.4062H107.016V18.2656H109.543V20.0547H107.016V24.2656C107.016 24.599 107.113 24.849 107.306 25.0156C107.506 25.1771 107.766 25.2578 108.09 25.2578ZM119.679 22.6172C119.679 23.3464 119.576 23.9922 119.372 24.5547C119.172 25.1172 118.878 25.5938 118.491 25.9844C118.109 26.3698 117.646 26.6615 117.103 26.8594C116.564 27.0573 115.955 27.1562 115.277 27.1562C114.641 27.1562 114.057 27.0573 113.525 26.8594C112.997 26.6615 112.537 26.3698 112.144 25.9844C111.756 25.5938 111.455 25.1172 111.24 24.5547C111.03 23.9922 110.924 23.3464 110.924 22.6172C110.924 21.6484 111.102 20.8281 111.458 20.1562C111.812 19.4844 112.319 18.974 112.976 18.625C113.633 18.276 114.416 18.1016 115.326 18.1016C116.171 18.1016 116.92 18.276 117.571 18.625C118.227 18.974 118.742 19.4844 119.113 20.1562C119.49 20.8281 119.679 21.6484 119.679 22.6172ZM113.436 22.6172C113.436 23.1901 113.5 23.6719 113.629 24.0625C113.759 24.4531 113.961 24.7474 114.235 24.9453C114.51 25.1432 114.868 25.2422 115.309 25.2422C115.745 25.2422 116.098 25.1432 116.368 24.9453C116.642 24.7474 116.841 24.4531 116.965 24.0625C117.094 23.6719 117.158 23.1901 117.158 22.6172C117.158 22.0391 117.094 21.5599 116.965 21.1797C116.841 20.7943 116.642 20.5052 116.368 20.3125C116.093 20.1198 115.735 20.0234 115.294 20.0234C114.641 20.0234 114.168 20.2396 113.872 20.6719C113.581 21.1042 113.436 21.7526 113.436 22.6172ZM124.354 30.8438C123.095 30.8438 122.13 30.6302 121.463 30.2031C120.801 29.7812 120.47 29.1875 120.47 28.4219C120.47 27.8958 120.64 27.4557 120.979 27.1016C121.318 26.7474 121.816 26.4948 122.473 26.3438C122.219 26.2396 121.999 26.0703 121.81 25.8359C121.622 25.5964 121.528 25.3438 121.528 25.0781C121.528 24.7448 121.627 24.4688 121.826 24.25C122.026 24.026 122.313 23.8073 122.691 23.5938C122.217 23.3958 121.84 23.0781 121.56 22.6406C121.286 22.2031 121.148 21.6875 121.148 21.0938C121.148 20.4583 121.291 19.9193 121.576 19.4766C121.867 19.0286 122.286 18.6875 122.836 18.4531C123.39 18.2188 124.063 18.1016 124.855 18.1016C125.022 18.1016 125.216 18.112 125.436 18.1328C125.657 18.1536 125.859 18.1771 126.042 18.2031C126.23 18.2292 126.357 18.25 126.421 18.2656H129.571V19.4766L128.158 19.8281C128.287 20.0208 128.384 20.2266 128.448 20.4453C128.513 20.6641 128.545 20.8958 128.545 21.1406C128.545 22.0781 128.206 22.8099 127.528 23.3359C126.855 23.8568 125.918 24.1172 124.718 24.1172C124.432 24.1016 124.163 24.0807 123.91 24.0547C123.786 24.1484 123.692 24.2474 123.627 24.3516C123.563 24.4557 123.53 24.5651 123.53 24.6797C123.53 24.7943 123.579 24.8906 123.676 24.9688C123.778 25.0417 123.929 25.099 124.128 25.1406C124.332 25.1771 124.585 25.1953 124.887 25.1953H126.421C127.412 25.1953 128.166 25.401 128.683 25.8125C129.205 26.224 129.466 26.8281 129.466 27.625C129.466 28.6458 129.025 29.4375 128.141 30C127.264 30.5625 126.001 30.8438 124.354 30.8438ZM124.459 29.2891C125.046 29.2891 125.55 29.2344 125.969 29.125C126.394 29.0208 126.72 28.8698 126.946 28.6719C127.173 28.4792 127.285 28.2474 127.285 27.9766C127.285 27.7578 127.218 27.5833 127.084 27.4531C126.955 27.3281 126.755 27.2396 126.486 27.1875C126.223 27.1354 125.883 27.1094 125.468 27.1094H124.193C123.891 27.1094 123.619 27.1562 123.377 27.25C123.14 27.3438 122.952 27.474 122.812 27.6406C122.672 27.8125 122.602 28.0104 122.602 28.2344C122.602 28.5625 122.763 28.8203 123.087 29.0078C123.414 29.1953 123.872 29.2891 124.459 29.2891ZM124.855 22.6641C125.318 22.6641 125.657 22.526 125.872 22.25C126.087 21.974 126.196 21.599 126.196 21.125C126.196 20.599 126.082 20.2057 125.856 19.9453C125.636 19.6797 125.302 19.5469 124.855 19.5469C124.402 19.5469 124.063 19.6797 123.837 19.9453C123.612 20.2057 123.498 20.599 123.498 21.125C123.498 21.599 123.609 21.974 123.83 22.25C124.055 22.526 124.397 22.6641 124.855 22.6641ZM134.788 18.1016C135.622 18.1016 136.341 18.2578 136.944 18.5703C137.547 18.8776 138.013 19.3255 138.341 19.9141C138.669 20.5026 138.834 21.2214 138.834 22.0703V23.2266H133.011C133.038 23.8984 133.245 24.4271 133.633 24.8125C134.026 25.1927 134.57 25.3828 135.264 25.3828C135.84 25.3828 136.368 25.3255 136.847 25.2109C137.326 25.0964 137.818 24.9245 138.325 24.6953V26.5391C137.878 26.7526 137.41 26.9089 136.92 27.0078C136.435 27.1068 135.845 27.1562 135.152 27.1562C134.247 27.1562 133.445 26.9948 132.744 26.6719C132.051 26.349 131.504 25.8568 131.106 25.1953C130.712 24.5339 130.516 23.7005 130.516 22.6953C130.516 21.6745 130.693 20.8255 131.049 20.1484C131.41 19.4661 131.91 18.9557 132.551 18.6172C133.192 18.2734 133.937 18.1016 134.788 18.1016ZM134.804 19.7969C134.325 19.7969 133.927 19.9453 133.608 20.2422C133.296 20.5391 133.116 21.0052 133.068 21.6406H136.524C136.519 21.2865 136.451 20.9714 136.322 20.6953C136.199 20.4193 136.01 20.2005 135.757 20.0391C135.509 19.8776 135.192 19.7969 134.804 19.7969ZM144.64 25.2578C144.909 25.2578 145.17 25.2318 145.423 25.1797C145.682 25.1276 145.938 25.0625 146.19 24.9844V26.7578C145.927 26.8724 145.598 26.9661 145.205 27.0391C144.817 27.1172 144.393 27.1562 143.93 27.1562C143.391 27.1562 142.906 27.0729 142.476 26.9062C142.05 26.7344 141.714 26.4401 141.466 26.0234C141.224 25.6016 141.102 25.0156 141.102 24.2656V20.0547H139.924V19.0469L141.28 18.25L141.991 16.4062H143.566V18.2656H146.094V20.0547H143.566V24.2656C143.566 24.599 143.663 24.849 143.856 25.0156C144.056 25.1771 144.317 25.2578 144.64 25.2578ZM150.487 14.8438V17.3203C150.487 17.7526 150.471 18.1641 150.439 18.5547C150.412 18.9453 150.39 19.2214 150.373 19.3828H150.503C150.697 19.0807 150.925 18.8359 151.189 18.6484C151.459 18.4609 151.754 18.3229 152.078 18.2344C152.4 18.1458 152.748 18.1016 153.119 18.1016C153.771 18.1016 154.339 18.2135 154.823 18.4375C155.308 18.6562 155.684 19.0026 155.954 19.4766C156.223 19.9453 156.357 20.5547 156.357 21.3047V27H153.894V21.8984C153.894 21.2734 153.776 20.8021 153.54 20.4844C153.303 20.1667 152.936 20.0078 152.441 20.0078C151.946 20.0078 151.555 20.1198 151.27 20.3438C150.984 20.5625 150.783 20.888 150.664 21.3203C150.546 21.7474 150.487 22.2708 150.487 22.8906V27H148.024V14.8438H150.487ZM162.616 18.1016C163.45 18.1016 164.17 18.2578 164.773 18.5703C165.375 18.8776 165.841 19.3255 166.169 19.9141C166.498 20.5026 166.662 21.2214 166.662 22.0703V23.2266H160.839C160.866 23.8984 161.074 24.4271 161.462 24.8125C161.854 25.1927 162.398 25.3828 163.093 25.3828C163.669 25.3828 164.197 25.3255 164.675 25.2109C165.155 25.0964 165.647 24.9245 166.153 24.6953V26.5391C165.707 26.7526 165.238 26.9089 164.748 27.0078C164.264 27.1068 163.674 27.1562 162.979 27.1562C162.076 27.1562 161.272 26.9948 160.573 26.6719C159.878 26.349 159.332 25.8568 158.933 25.1953C158.54 24.5339 158.344 23.7005 158.344 22.6953C158.344 21.6745 158.522 20.8255 158.877 20.1484C159.238 19.4661 159.739 18.9557 160.379 18.6172C161.02 18.2734 161.766 18.1016 162.616 18.1016ZM162.633 19.7969C162.153 19.7969 161.755 19.9453 161.437 20.2422C161.125 20.5391 160.945 21.0052 160.896 21.6406H164.353C164.347 21.2865 164.279 20.9714 164.15 20.6953C164.027 20.4193 163.838 20.2005 163.585 20.0391C163.338 19.8776 163.02 19.7969 162.633 19.7969ZM173.704 18.1016C173.827 18.1016 173.97 18.1094 174.132 18.125C174.299 18.1354 174.433 18.151 174.536 18.1719L174.349 20.4062C174.269 20.3802 174.153 20.362 174.003 20.3516C173.857 20.3359 173.731 20.3281 173.623 20.3281C173.305 20.3281 172.996 20.3672 172.695 20.4453C172.398 20.5234 172.132 20.651 171.896 20.8281C171.658 21 171.47 21.2292 171.33 21.5156C171.195 21.7969 171.128 22.1432 171.128 22.5547V27H168.664V18.2656H170.53L170.894 19.7344H171.015C171.193 19.4375 171.413 19.1667 171.677 18.9219C171.946 18.6719 172.25 18.474 172.589 18.3281C172.934 18.1771 173.305 18.1016 173.704 18.1016Z" fill="black"/>
</svg>
