<svg version="1.1" id="svg3074" xmlns:svg="http://www.w3.org/2000/svg" xmlns:dc="http://purl.org/dc/elements/1.1/" xmlns:sodipodi="http://sodipodi.sourceforge.net/DTD/sodipodi-0.dtd" xmlns:rdf="http://www.w3.org/1999/02/22-rdf-syntax-ns#" xmlns:cc="http://creativecommons.org/ns#" xmlns:inkscape="http://www.inkscape.org/namespaces/inkscape" xmlns="http://www.w3.org/2000/svg" xmlns:xlink="http://www.w3.org/1999/xlink" x="0px" y="0px" style="enable-background:new 0 0 120 60;" xml:space="preserve" viewBox="2.41 25.65 51.79 31.74"> <style type="text/css"> 	.st0{fill:#231F20;} </style> <sodipodi:namedview bordercolor="#666666" borderopacity="1" gridtolerance="10" guidetolerance="10" id="namedview3080" inkscape:current-layer="svg3074" inkscape:cx="105.80545" inkscape:cy="23.346305" inkscape:pageopacity="0" inkscape:pageshadow="2" inkscape:window-height="953" inkscape:window-maximized="0" inkscape:window-width="1418" inkscape:window-x="65" inkscape:window-y="24" inkscape:zoom="4.3913796" objecttolerance="10" pagecolor="#ffffff" showgrid="false"> 	</sodipodi:namedview> <g transform="matrix(1.1458335,0,0,1.1458344,-8.815396,-4.3755997)"> 	<path id="path3139" inkscape:connector-curvature="0" class="st0" d="M13.6,44.3L13.6,44.3c-0.5,0.5-0.8,1.2-0.8,1.9 		c0,0.8,0.3,1.4,0.8,1.9v0c0.5,0.5,1.2,0.8,2,0.8c0.8,0,1.5-0.3,2-0.8l0,0c0.5-0.5,0.8-1.2,0.8-1.9c0-0.8-0.3-1.4-0.8-1.9l0,0 		c-0.5-0.5-1.2-0.8-2-0.8C14.8,43.5,14.1,43.8,13.6,44.3C13.6,44.3,13.6,44.3,13.6,44.3z M51.7,46.2L51.7,46.2 		c0-0.8-0.3-1.4-0.8-1.9l0,0c-0.5-0.5-1.2-0.8-2-0.8c-0.8,0-1.5,0.3-2,0.8v0c-0.5,0.5-0.8,1.2-0.8,1.9c0,0.8,0.3,1.4,0.8,1.9v0 		c0.5,0.5,1.2,0.8,2,0.8c0.8,0,1.5-0.3,2-0.8l0,0C51.4,47.7,51.7,47,51.7,46.2L51.7,46.2z M43.3,31.3L43.3,31.3 		c-0.2-0.7-0.6-1.3-1.3-1.7l-0.1-0.1l0,0c-0.6-0.3-1.4-0.4-2-0.2c-0.7,0.2-1.3,0.6-1.7,1.3l0,0c-0.4,0.6-0.4,1.4-0.2,2 		c0.2,0.7,0.6,1.3,1.3,1.7c0.7,0.4,1.4,0.5,2.1,0.3c0.7-0.2,1.3-0.6,1.7-1.3v0C43.4,32.7,43.5,32,43.3,31.3L43.3,31.3L43.3,31.3z 		 M29.4,43.4L29.4,43.4c-0.7,0.7-1.2,1.7-1.2,2.8c0,1.1,0.5,2.1,1.2,2.8c0.7,0.7,1.7,1.2,2.8,1.2s2.1-0.4,2.9-1.2 		c0.7-0.7,1.2-1.7,1.2-2.8c0-1.1-0.5-2.1-1.2-2.8c-0.7-0.7-1.7-1.2-2.9-1.2S30.2,42.7,29.4,43.4C29.4,43.4,29.4,43.4,29.4,43.4z 		 M24.7,45L24.7,45c0.3-1.6,1-3,2.2-4.1v0c0.2-0.2,0.4-0.3,0.6-0.5l-1.6-2.7c-1.1,0.4-2.3,0.4-3.4,0.1c-1.5-0.4-2.8-1.3-3.6-2.8l0,0 		c-0.8-1.4-1-3-0.6-4.4c0.4-1.5,1.4-2.8,2.8-3.6h0c1.4-0.8,3.1-1,4.6-0.6c1.5,0.4,2.8,1.3,3.6,2.8l0.2,0.4v0 		c0.6,1.3,0.7,2.7,0.4,4.1c-0.3,1.1-0.9,2.1-1.8,2.9l1.6,2.7c0.8-0.3,1.8-0.5,2.7-0.5c1,0,1.9,0.2,2.7,0.5l1.6-2.7 		c-0.9-0.8-1.5-1.8-1.8-2.9c-0.4-1.5-0.2-3.1,0.6-4.5l0-0.1h0c0.8-1.4,2.1-2.3,3.6-2.7c1.5-0.4,3.1-0.2,4.5,0.6l0.1,0l0,0l0,0 		c1.4,0.8,2.3,2.1,2.7,3.5c0.4,1.5,0.2,3.1-0.6,4.5h0c-0.8,1.4-2.2,2.4-3.6,2.8c-1.1,0.3-2.3,0.3-3.4-0.1l-1.6,2.7 		c0.2,0.2,0.4,0.3,0.6,0.5l0,0c1.1,1.1,1.9,2.5,2.2,4.1h3.2c0.2-1.1,0.8-2.2,1.6-2.9l0,0l0,0c1.1-1.1,2.6-1.7,4.2-1.7 		c1.6,0,3.1,0.7,4.2,1.7l0,0l0,0c1.1,1.1,1.8,2.5,1.8,4.2c0,1.6-0.7,3.1-1.8,4.2v0h0c-1.1,1.1-2.6,1.7-4.2,1.7 		c-1.7,0-3.2-0.7-4.2-1.7h0v0c-0.8-0.8-1.4-1.8-1.6-2.9h-3.2c-0.3,1.6-1,3-2.2,4.1l0,0c-1.4,1.4-3.3,2.2-5.4,2.2 		c-2.1,0-4-0.9-5.4-2.2v0c-1.1-1.1-1.9-2.5-2.2-4.1h-3.2c-0.2,1.1-0.8,2.1-1.6,2.9v0h0c-1.1,1.1-2.6,1.7-4.2,1.7 		c-1.6,0-3.2-0.7-4.2-1.7l0,0l0,0c-1.1-1.1-1.8-2.5-1.8-4.2c0-1.6,0.7-3.1,1.8-4.2h0v0c1.1-1.1,2.6-1.7,4.2-1.7 		c1.7,0,3.2,0.7,4.2,1.7l0,0c0.8,0.8,1.4,1.8,1.6,2.9C21.5,45,24.7,45,24.7,45z M22.5,29.6L22.5,29.6c-0.7,0.4-1.1,1-1.3,1.7 		c-0.2,0.7-0.1,1.4,0.3,2.1v0c0.4,0.7,1,1.1,1.7,1.3c0.7,0.2,1.5,0.1,2.1-0.3l0,0c0.7-0.4,1.1-1,1.3-1.7c0.2-0.7,0.1-1.4-0.3-2.1 		l0,0c-0.4-0.6-1-1.1-1.7-1.2C24,29.2,23.2,29.3,22.5,29.6L22.5,29.6"></path> </g> </svg>