<svg width="10" height="12" viewBox="0 0 10 12" fill="none" xmlns="http://www.w3.org/2000/svg">
<path fill-rule="evenodd" clip-rule="evenodd" d="M0.781616 0.5C0.781616 0.22386 1.00548 0 1.28162 0H9.28162C9.55772 0 9.78162 0.22386 9.78162 0.5V11.5C9.78162 11.6818 9.68302 11.8492 9.52402 11.9373C9.36502 12.0254 9.17072 12.0203 9.01662 11.924L5.28162 9.5896L1.54662 11.924C1.39249 12.0203 1.19821 12.0254 1.03924 11.9373C0.880256 11.8492 0.781616 11.6818 0.781616 11.5V0.5ZM1.78162 1V10.5979L4.75162 8.7416C5.07589 8.539 5.48735 8.539 5.81162 8.7416L8.78162 10.5979V1H1.78162Z" fill="#056DBC"/>
</svg>
