<svg width="14" height="13" viewBox="0 0 14 13" fill="none" xmlns="http://www.w3.org/2000/svg">
<path fill-rule="evenodd" clip-rule="evenodd" d="M1.78162 0C1.22933 0 0.781616 0.44772 0.781616 1V12C0.781616 12.5523 1.22934 13 1.78162 13H9.28162C9.55772 13 9.78162 12.7761 9.78162 12.5C9.78162 12.2239 9.55772 12 9.28162 12H1.78162V1H9.28162C9.55772 1 9.78162 0.77614 9.78162 0.5C9.78162 0.22386 9.55772 0 9.28162 0H1.78162ZM11.3852 3.89645C11.1899 3.70118 10.8733 3.70118 10.678 3.89645C10.4828 4.09171 10.4828 4.40829 10.678 4.60355L12.0745 6H5.28162C5.00548 6 4.78162 6.22386 4.78162 6.5C4.78162 6.77614 5.00548 7 5.28162 7H12.0745L10.678 8.39645C10.4828 8.59171 10.4828 8.90829 10.678 9.1036C10.8733 9.2988 11.1899 9.2988 11.3852 9.1036L13.6352 6.85355C13.8304 6.65829 13.8304 6.34171 13.6352 6.14645L11.3852 3.89645Z" fill="#056DBC"/>
</svg>
