<svg width="20" height="20" viewBox="0 0 20 20" fill="none" xmlns="http://www.w3.org/2000/svg">
<g clip-path="url(#clip0_252_380)">
<path d="M8.82085 8.82251C8.50833 9.13513 8.33281 9.5591 8.33289 10.0011C8.33296 10.4432 8.50864 10.8671 8.82126 11.1796C9.13389 11.4921 9.55785 11.6676 9.99989 11.6676C10.4419 11.6675 10.8658 11.4918 11.1783 11.1792" stroke="black" stroke-width="2" stroke-linecap="round" stroke-linejoin="round"/>
<path d="M13.9008 13.8942C12.7319 14.6256 11.3789 15.0091 10 15C7 15 4.5 13.3334 2.5 10C3.56 8.23336 4.76 6.93503 6.1 6.10503M8.48333 5.15002C8.98253 5.04897 9.49068 4.99871 10 5.00003C13 5.00003 15.5 6.66669 17.5 10C16.945 10.925 16.3508 11.7225 15.7183 12.3917" stroke="black" stroke-width="2" stroke-linecap="round" stroke-linejoin="round"/>
<path d="M2.5 2.5L17.5 17.5" stroke="black" stroke-width="2" stroke-linecap="round" stroke-linejoin="round"/>
</g>
<defs>
<clipPath id="clip0_252_380">
<rect width="20" height="20" fill="white"/>
</clipPath>
</defs>
</svg>
