<svg width="16" height="15" viewBox="0 0 16 15" fill="none" xmlns="http://www.w3.org/2000/svg">
<path fill-rule="evenodd" clip-rule="evenodd" d="M8.28158 1.80002C5.13356 1.80002 2.58158 4.352 2.58158 7.50002C2.58158 10.648 5.13356 13.2 8.28158 13.2C11.4296 13.2 13.9816 10.648 13.9816 7.50002C13.9816 4.352 11.4296 1.80002 8.28158 1.80002ZM1.68158 7.50002C1.68158 3.85494 4.6365 0.900024 8.28158 0.900024C11.9266 0.900024 14.8816 3.85494 14.8816 7.50002C14.8816 11.1451 11.9266 14.1 8.28158 14.1C4.6365 14.1 1.68158 11.1451 1.68158 7.50002Z" fill="#056DBC"/>
<path fill-rule="evenodd" clip-rule="evenodd" d="M14.2815 7.89998H2.28156V7.09998H14.2815V7.89998Z" fill="#056DBC"/>
<path fill-rule="evenodd" clip-rule="evenodd" d="M7.88153 13.5V1.5H8.68153V13.5H7.88153ZM11.1566 7.49998C11.1566 5.32724 10.3753 3.17778 8.84345 1.75656L9.31955 1.24341C11.0212 2.82218 11.8566 5.17273 11.8566 7.49998C11.8566 9.82724 11.0212 12.1778 9.31955 13.7566L8.84345 13.2434C10.3753 11.8222 11.1566 9.67273 11.1566 7.49998ZM4.78131 7.5C4.78131 5.17611 5.58948 2.82678 7.2393 1.24719L7.72339 1.75281C6.23982 3.17323 5.48131 5.32389 5.48131 7.5C5.48132 9.67611 6.23984 11.8268 7.72341 13.2472L7.23931 13.7528C5.5895 12.1732 4.78132 9.8239 4.78131 7.5Z" fill="#056DBC"/>
<path fill-rule="evenodd" clip-rule="evenodd" d="M8.28158 3.95801C10.4509 3.95801 12.6569 4.35915 14.1522 5.19448C14.321 5.28875 14.3814 5.50197 14.2871 5.67073C14.1929 5.83948 13.9796 5.89987 13.8109 5.8056C12.461 5.05155 10.3896 4.65801 8.28158 4.65801C6.17354 4.65801 4.10214 5.05155 2.75226 5.8056C2.5835 5.89987 2.37028 5.83948 2.27601 5.67073C2.18175 5.50197 2.24213 5.28875 2.41089 5.19448C3.90628 4.35915 6.11225 3.95801 8.28158 3.95801ZM8.28158 10.85C10.4509 10.85 12.6569 10.4488 14.1522 9.6135C14.321 9.51924 14.3814 9.30601 14.2871 9.13726C14.1929 8.9685 13.9796 8.90812 13.8109 9.00238C12.461 9.75643 10.3896 10.15 8.28158 10.15C6.17354 10.15 4.10214 9.75643 2.75226 9.00239C2.5835 8.90812 2.37028 8.9685 2.27601 9.13726C2.18175 9.30601 2.24213 9.51924 2.41089 9.6135C3.90628 10.4488 6.11225 10.85 8.28158 10.85Z" fill="#056DBC"/>
</svg>
