<svg width="101" height="58" viewBox="0 0 101 58" fill="none" xmlns="http://www.w3.org/2000/svg">
    <path d="M23.4874 26.1372C22.7653 26.8592 22.3321 27.87 22.3321 28.8809C22.3321 30.0361 22.7653 30.9025 23.4874 31.6245C24.2094 32.3466 25.2202 32.7798 26.3755 32.7798C27.5307 32.7798 28.5415 32.3466 29.2635 31.6245C29.9856 30.9025 30.4188 29.8917 30.4188 28.8809C30.4188 27.7256 29.9856 26.8592 29.2635 26.1372C28.5415 25.4152 27.5307 24.9819 26.3755 24.9819C25.2202 24.9819 24.2094 25.4152 23.4874 26.1372ZM78.5054 28.8809C78.5054 27.7256 78.0722 26.8592 77.3501 26.1372C76.6281 25.4152 75.6173 24.9819 74.4621 24.9819C73.3068 24.9819 72.296 25.4152 71.574 26.1372C70.8519 26.8592 70.4187 27.87 70.4187 28.8809C70.4187 30.0361 70.8519 30.9025 71.574 31.6245C72.296 32.3466 73.3068 32.7798 74.4621 32.7798C75.6173 32.7798 76.6281 32.3466 77.3501 31.6245C78.0722 31.0469 78.5054 30.0361 78.5054 28.8809ZM66.3754 7.36462C66.0866 6.35379 65.509 5.48736 64.4982 4.90975L64.3538 4.76534C63.4873 4.33213 62.3321 4.18772 61.4657 4.47653C60.4548 4.76534 59.5884 5.34296 59.0108 6.35379C58.4332 7.22022 58.4332 8.37545 58.722 9.24187C59.0108 10.2527 59.5884 11.1191 60.5992 11.6967C61.6101 12.2744 62.6209 12.4188 63.6317 12.13C64.6426 11.8412 65.509 11.2635 66.0866 10.2527C66.5198 9.38628 66.6642 8.37545 66.3754 7.36462ZM46.3032 24.8375C45.2924 25.8484 44.5704 27.2924 44.5704 28.8809C44.5704 30.4693 45.2924 31.9134 46.3032 32.9242C47.3141 33.935 48.7581 34.657 50.3465 34.657C51.935 34.657 53.379 34.0794 54.5343 32.9242C55.5451 31.9134 56.2671 30.4693 56.2671 28.8809C56.2671 27.2924 55.5451 25.8484 54.5343 24.8375C53.5234 23.8267 52.0794 23.1047 50.3465 23.1047C48.6137 23.1047 47.4585 23.8267 46.3032 24.8375ZM39.5162 27.148C39.9494 24.8375 40.9603 22.8159 42.6931 21.2274C42.9819 20.9386 43.2707 20.7942 43.5595 20.5054L41.2491 16.6065C39.6606 17.1841 37.9278 17.1841 36.3393 16.7509C34.1733 16.1733 32.296 14.8736 31.1408 12.7076C29.9855 10.6859 29.6967 8.37545 30.2744 6.35379C30.852 4.18773 32.296 2.31047 34.3177 1.15523C36.3393 5.96046e-07 38.7942 -0.288809 40.9603 0.288809C43.1263 0.866426 45.0036 2.16607 46.1588 4.33213L46.4476 4.90975C47.3141 6.787 47.4585 8.80866 47.0252 10.8303C46.592 12.4188 45.7256 13.8628 44.426 15.018L46.7364 18.917C47.8917 18.4838 49.3357 18.1949 50.6354 18.1949C52.0794 18.1949 53.379 18.4838 54.5343 18.917L56.8447 15.018C55.5451 13.8628 54.6787 12.4188 54.2455 10.8303C53.6678 8.66426 53.9567 6.35379 55.1119 4.33213V4.18773C56.2671 2.16607 58.1444 0.866426 60.3104 0.288809C62.4765 -0.288809 64.787 5.96046e-07 66.8086 1.15523H66.953C68.9747 2.31047 70.2743 4.18773 70.8519 6.20939C71.4296 8.37545 71.1408 10.6859 69.9855 12.7076C68.8303 14.7292 66.8086 16.1733 64.787 16.7509C63.1985 17.1841 61.4657 17.1841 59.8772 16.6065L57.5668 20.5054C57.8556 20.7942 58.1444 20.9386 58.4332 21.2274C60.0216 22.8159 61.1769 24.8375 61.6101 27.148H66.231C66.5198 25.5596 67.3862 23.9711 68.5415 22.9603C70.1299 21.3718 72.296 20.5054 74.6065 20.5054C76.9169 20.5054 79.083 21.5162 80.6714 22.9603C82.2599 24.5487 83.2707 26.5704 83.2707 29.0253C83.2707 31.3357 82.2599 33.5018 80.6714 35.0903C79.083 36.6787 76.9169 37.5451 74.6065 37.5451C72.1516 37.5451 69.9855 36.5343 68.5415 35.0903C67.3862 33.935 66.5198 32.491 66.231 30.9025H61.6101C61.1769 33.213 60.166 35.2347 58.4332 36.8231C56.4115 38.8448 53.6678 40 50.6354 40C47.6029 40 44.8592 38.7004 42.8375 36.8231C41.2491 35.2347 40.0938 33.213 39.6606 30.9025H35.0397C34.7509 32.491 33.8845 33.935 32.7292 35.0903C31.1408 36.6787 28.9747 37.5451 26.6643 37.5451C24.3538 37.5451 22.0433 36.5343 20.5993 35.0903C19.0108 33.5018 18 31.4801 18 29.0253C18 26.7148 19.0108 24.5487 20.5993 22.9603C22.1877 21.3718 24.3538 20.5054 26.6643 20.5054C29.1191 20.5054 31.2852 21.5162 32.7292 22.9603C33.8845 24.1155 34.7509 25.5596 35.0397 27.148C34.8953 27.148 39.5162 27.148 39.5162 27.148ZM36.3393 4.90975C35.3285 5.48736 34.7509 6.35379 34.4621 7.36462C34.1733 8.37545 34.3177 9.38628 34.8953 10.3971C35.4729 11.4079 36.3393 11.9856 37.3502 12.2744C38.361 12.5632 39.5162 12.4188 40.3827 11.8412C41.3935 11.2635 41.9711 10.3971 42.2599 9.38628C42.5487 8.37545 42.4043 7.36462 41.8267 6.35379C41.2491 5.48736 40.3827 4.76534 39.3718 4.62094C38.5054 4.33213 37.3502 4.47653 36.3393 4.90975Z"
          fill="url(#paint0_linear_78_25)"/>
    <path d="M0 45.2656H2.60938L4.25781 50.1797C4.3099 50.3359 4.35417 50.4948 4.39062 50.6562C4.42708 50.8177 4.45833 50.9844 4.48438 51.1562C4.51042 51.3281 4.53125 51.5078 4.54688 51.6953H4.59375C4.625 51.4141 4.66667 51.151 4.71875 50.9062C4.77604 50.6615 4.84635 50.4193 4.92969 50.1797L6.54688 45.2656H9.10156L5.40625 55.1172C5.18229 55.7214 4.89062 56.224 4.53125 56.625C4.17188 57.0312 3.75781 57.3359 3.28906 57.5391C2.82552 57.7422 2.3151 57.8438 1.75781 57.8438C1.48698 57.8438 1.2526 57.8281 1.05469 57.7969C0.856771 57.7708 0.6875 57.7422 0.546875 57.7109V55.8203C0.65625 55.8464 0.794271 55.8698 0.960938 55.8906C1.1276 55.9115 1.30208 55.9219 1.48438 55.9219C1.81771 55.9219 2.10417 55.8516 2.34375 55.7109C2.58333 55.5703 2.78385 55.3802 2.94531 55.1406C3.10677 54.9062 3.23438 54.6484 3.32812 54.3672L3.46875 53.9375L0 45.2656ZM18.2969 49.6172C18.2969 50.3464 18.1979 50.9922 18 51.5547C17.8073 52.1172 17.5234 52.5938 17.1484 52.9844C16.7786 53.3698 16.3307 53.6615 15.8047 53.8594C15.2839 54.0573 14.6953 54.1562 14.0391 54.1562C13.4245 54.1562 12.8594 54.0573 12.3438 53.8594C11.8333 53.6615 11.388 53.3698 11.0078 52.9844C10.6328 52.5938 10.3411 52.1172 10.1328 51.5547C9.92969 50.9922 9.82812 50.3464 9.82812 49.6172C9.82812 48.6484 10 47.8281 10.3438 47.1562C10.6875 46.4844 11.1771 45.974 11.8125 45.625C12.4479 45.276 13.2057 45.1016 14.0859 45.1016C14.9036 45.1016 15.6276 45.276 16.2578 45.625C16.8932 45.974 17.3906 46.4844 17.75 47.1562C18.1146 47.8281 18.2969 48.6484 18.2969 49.6172ZM12.2578 49.6172C12.2578 50.1901 12.3203 50.6719 12.4453 51.0625C12.5703 51.4531 12.7656 51.7474 13.0312 51.9453C13.2969 52.1432 13.6432 52.2422 14.0703 52.2422C14.4922 52.2422 14.8333 52.1432 15.0938 51.9453C15.3594 51.7474 15.5521 51.4531 15.6719 51.0625C15.7969 50.6719 15.8594 50.1901 15.8594 49.6172C15.8594 49.0391 15.7969 48.5599 15.6719 48.1797C15.5521 47.7943 15.3594 47.5052 15.0938 47.3125C14.8281 47.1198 14.4818 47.0234 14.0547 47.0234C13.4245 47.0234 12.9661 47.2396 12.6797 47.6719C12.3984 48.1042 12.2578 48.7526 12.2578 49.6172ZM28.2812 45.2656V54H26.4531L26.1328 52.8828H26.0078C25.8203 53.1797 25.5859 53.4219 25.3047 53.6094C25.0234 53.7969 24.7135 53.9349 24.375 54.0234C24.0365 54.112 23.6849 54.1562 23.3203 54.1562C22.6953 54.1562 22.151 54.0469 21.6875 53.8281C21.224 53.6042 20.862 53.2578 20.6016 52.7891C20.3464 52.3203 20.2188 51.7109 20.2188 50.9609V45.2656H22.6016V50.3672C22.6016 50.9922 22.7135 51.4635 22.9375 51.7812C23.1615 52.099 23.5182 52.2578 24.0078 52.2578C24.4922 52.2578 24.8724 52.1484 25.1484 51.9297C25.4245 51.7057 25.6172 51.3802 25.7266 50.9531C25.8411 50.5208 25.8984 49.9948 25.8984 49.375V45.2656H28.2812ZM34.4609 52.2578C34.7214 52.2578 34.974 52.2318 35.2188 52.1797C35.4688 52.1276 35.7161 52.0625 35.9609 51.9844V53.7578C35.7057 53.8724 35.388 53.9661 35.0078 54.0391C34.6328 54.1172 34.2214 54.1562 33.7734 54.1562C33.2526 54.1562 32.7839 54.0729 32.3672 53.9062C31.9557 53.7344 31.6302 53.4401 31.3906 53.0234C31.1562 52.6016 31.0391 52.0156 31.0391 51.2656V47.0547H29.8984V46.0469L31.2109 45.25L31.8984 43.4062H33.4219V45.2656H35.8672V47.0547H33.4219V51.2656C33.4219 51.599 33.5156 51.849 33.7031 52.0156C33.8958 52.1771 34.1484 52.2578 34.4609 52.2578ZM45.6719 49.6172C45.6719 50.3464 45.5729 50.9922 45.375 51.5547C45.1823 52.1172 44.8984 52.5938 44.5234 52.9844C44.1536 53.3698 43.7057 53.6615 43.1797 53.8594C42.6589 54.0573 42.0703 54.1562 41.4141 54.1562C40.7995 54.1562 40.2344 54.0573 39.7188 53.8594C39.2083 53.6615 38.763 53.3698 38.3828 52.9844C38.0078 52.5938 37.7161 52.1172 37.5078 51.5547C37.3047 50.9922 37.2031 50.3464 37.2031 49.6172C37.2031 48.6484 37.375 47.8281 37.7188 47.1562C38.0625 46.4844 38.5521 45.974 39.1875 45.625C39.8229 45.276 40.5807 45.1016 41.4609 45.1016C42.2786 45.1016 43.0026 45.276 43.6328 45.625C44.2682 45.974 44.7656 46.4844 45.125 47.1562C45.4896 47.8281 45.6719 48.6484 45.6719 49.6172ZM39.6328 49.6172C39.6328 50.1901 39.6953 50.6719 39.8203 51.0625C39.9453 51.4531 40.1406 51.7474 40.4062 51.9453C40.6719 52.1432 41.0182 52.2422 41.4453 52.2422C41.8672 52.2422 42.2083 52.1432 42.4688 51.9453C42.7344 51.7474 42.9271 51.4531 43.0469 51.0625C43.1719 50.6719 43.2344 50.1901 43.2344 49.6172C43.2344 49.0391 43.1719 48.5599 43.0469 48.1797C42.9271 47.7943 42.7344 47.5052 42.4688 47.3125C42.2031 47.1198 41.8568 47.0234 41.4297 47.0234C40.7995 47.0234 40.3411 47.2396 40.0547 47.6719C39.7734 48.1042 39.6328 48.7526 39.6328 49.6172ZM50.1953 57.8438C48.9766 57.8438 48.0443 57.6302 47.3984 57.2031C46.7578 56.7812 46.4375 56.1875 46.4375 55.4219C46.4375 54.8958 46.6016 54.4557 46.9297 54.1016C47.2578 53.7474 47.7396 53.4948 48.375 53.3438C48.1302 53.2396 47.9167 53.0703 47.7344 52.8359C47.5521 52.5964 47.4609 52.3438 47.4609 52.0781C47.4609 51.7448 47.5573 51.4688 47.75 51.25C47.9427 51.026 48.2214 50.8073 48.5859 50.5938C48.1276 50.3958 47.763 50.0781 47.4922 49.6406C47.2266 49.2031 47.0938 48.6875 47.0938 48.0938C47.0938 47.4583 47.2318 46.9193 47.5078 46.4766C47.7891 46.0286 48.1953 45.6875 48.7266 45.4531C49.263 45.2188 49.9141 45.1016 50.6797 45.1016C50.8411 45.1016 51.0286 45.112 51.2422 45.1328C51.4557 45.1536 51.651 45.1771 51.8281 45.2031C52.0104 45.2292 52.1328 45.25 52.1953 45.2656H55.2422V46.4766L53.875 46.8281C54 47.0208 54.0938 47.2266 54.1562 47.4453C54.2188 47.6641 54.25 47.8958 54.25 48.1406C54.25 49.0781 53.9219 49.8099 53.2656 50.3359C52.6146 50.8568 51.7083 51.1172 50.5469 51.1172C50.2708 51.1016 50.0104 51.0807 49.7656 51.0547C49.6458 51.1484 49.5547 51.2474 49.4922 51.3516C49.4297 51.4557 49.3984 51.5651 49.3984 51.6797C49.3984 51.7943 49.4453 51.8906 49.5391 51.9688C49.638 52.0417 49.7839 52.099 49.9766 52.1406C50.1745 52.1771 50.4193 52.1953 50.7109 52.1953H52.1953C53.1536 52.1953 53.8828 52.401 54.3828 52.8125C54.888 53.224 55.1406 53.8281 55.1406 54.625C55.1406 55.6458 54.7135 56.4375 53.8594 57C53.0104 57.5625 51.7891 57.8438 50.1953 57.8438ZM50.2969 56.2891C50.8646 56.2891 51.3516 56.2344 51.7578 56.125C52.1693 56.0208 52.4844 55.8698 52.7031 55.6719C52.9219 55.4792 53.0312 55.2474 53.0312 54.9766C53.0312 54.7578 52.9661 54.5833 52.8359 54.4531C52.7109 54.3281 52.5182 54.2396 52.2578 54.1875C52.0026 54.1354 51.6745 54.1094 51.2734 54.1094H50.0391C49.7474 54.1094 49.4844 54.1562 49.25 54.25C49.0208 54.3438 48.8385 54.474 48.7031 54.6406C48.5677 54.8125 48.5 55.0104 48.5 55.2344C48.5 55.5625 48.6562 55.8203 48.9688 56.0078C49.2865 56.1953 49.7292 56.2891 50.2969 56.2891ZM50.6797 49.6641C51.1276 49.6641 51.4557 49.526 51.6641 49.25C51.8724 48.974 51.9766 48.599 51.9766 48.125C51.9766 47.599 51.8672 47.2057 51.6484 46.9453C51.4349 46.6797 51.112 46.5469 50.6797 46.5469C50.2422 46.5469 49.9141 46.6797 49.6953 46.9453C49.4766 47.2057 49.3672 47.599 49.3672 48.125C49.3672 48.599 49.474 48.974 49.6875 49.25C49.9062 49.526 50.237 49.6641 50.6797 49.6641ZM60.2891 45.1016C61.0964 45.1016 61.7917 45.2578 62.375 45.5703C62.9583 45.8776 63.4089 46.3255 63.7266 46.9141C64.0443 47.5026 64.2031 48.2214 64.2031 49.0703V50.2266H58.5703C58.5964 50.8984 58.7969 51.4271 59.1719 51.8125C59.5521 52.1927 60.0781 52.3828 60.75 52.3828C61.3073 52.3828 61.8177 52.3255 62.2812 52.2109C62.7448 52.0964 63.2214 51.9245 63.7109 51.6953V53.5391C63.2786 53.7526 62.8255 53.9089 62.3516 54.0078C61.8828 54.1068 61.3125 54.1562 60.6406 54.1562C59.7656 54.1562 58.9896 53.9948 58.3125 53.6719C57.6406 53.349 57.112 52.8568 56.7266 52.1953C56.3464 51.5339 56.1562 50.7005 56.1562 49.6953C56.1562 48.6745 56.3281 47.8255 56.6719 47.1484C57.0208 46.4661 57.5052 45.9557 58.125 45.6172C58.7448 45.2734 59.4661 45.1016 60.2891 45.1016ZM60.3047 46.7969C59.8411 46.7969 59.4557 46.9453 59.1484 47.2422C58.8464 47.5391 58.6719 48.0052 58.625 48.6406H61.9688C61.9635 48.2865 61.8984 47.9714 61.7734 47.6953C61.6536 47.4193 61.4714 47.2005 61.2266 47.0391C60.987 46.8776 60.6797 46.7969 60.3047 46.7969ZM69.8203 52.2578C70.0807 52.2578 70.3333 52.2318 70.5781 52.1797C70.8281 52.1276 71.0755 52.0625 71.3203 51.9844V53.7578C71.0651 53.8724 70.7474 53.9661 70.3672 54.0391C69.9922 54.1172 69.5807 54.1562 69.1328 54.1562C68.612 54.1562 68.1432 54.0729 67.7266 53.9062C67.3151 53.7344 66.9896 53.4401 66.75 53.0234C66.5156 52.6016 66.3984 52.0156 66.3984 51.2656V47.0547H65.2578V46.0469L66.5703 45.25L67.2578 43.4062H68.7812V45.2656H71.2266V47.0547H68.7812V51.2656C68.7812 51.599 68.875 51.849 69.0625 52.0156C69.2552 52.1771 69.5078 52.2578 69.8203 52.2578ZM75.4766 41.8438V44.3203C75.4766 44.7526 75.4609 45.1641 75.4297 45.5547C75.4036 45.9453 75.3828 46.2214 75.3672 46.3828H75.4922C75.6797 46.0807 75.901 45.8359 76.1562 45.6484C76.4167 45.4609 76.7031 45.3229 77.0156 45.2344C77.3281 45.1458 77.6641 45.1016 78.0234 45.1016C78.6536 45.1016 79.2031 45.2135 79.6719 45.4375C80.1406 45.6562 80.5052 46.0026 80.7656 46.4766C81.026 46.9453 81.1562 47.5547 81.1562 48.3047V54H78.7734V48.8984C78.7734 48.2734 78.6589 47.8021 78.4297 47.4844C78.2005 47.1667 77.8464 47.0078 77.3672 47.0078C76.888 47.0078 76.5104 47.1198 76.2344 47.3438C75.9583 47.5625 75.763 47.888 75.6484 48.3203C75.5339 48.7474 75.4766 49.2708 75.4766 49.8906V54H73.0938V41.8438H75.4766ZM87.2109 45.1016C88.0182 45.1016 88.7135 45.2578 89.2969 45.5703C89.8802 45.8776 90.3307 46.3255 90.6484 46.9141C90.9661 47.5026 91.125 48.2214 91.125 49.0703V50.2266H85.4922C85.5182 50.8984 85.7188 51.4271 86.0938 51.8125C86.474 52.1927 87 52.3828 87.6719 52.3828C88.2292 52.3828 88.7396 52.3255 89.2031 52.2109C89.6667 52.0964 90.1432 51.9245 90.6328 51.6953V53.5391C90.2005 53.7526 89.7474 53.9089 89.2734 54.0078C88.8047 54.1068 88.2344 54.1562 87.5625 54.1562C86.6875 54.1562 85.9115 53.9948 85.2344 53.6719C84.5625 53.349 84.0339 52.8568 83.6484 52.1953C83.2682 51.5339 83.0781 50.7005 83.0781 49.6953C83.0781 48.6745 83.25 47.8255 83.5938 47.1484C83.9427 46.4661 84.4271 45.9557 85.0469 45.6172C85.6667 45.2734 86.388 45.1016 87.2109 45.1016ZM87.2266 46.7969C86.763 46.7969 86.3776 46.9453 86.0703 47.2422C85.7682 47.5391 85.5938 48.0052 85.5469 48.6406H88.8906C88.8854 48.2865 88.8203 47.9714 88.6953 47.6953C88.5755 47.4193 88.3932 47.2005 88.1484 47.0391C87.9089 46.8776 87.6016 46.7969 87.2266 46.7969ZM97.9375 45.1016C98.0573 45.1016 98.1953 45.1094 98.3516 45.125C98.513 45.1354 98.6432 45.151 98.7422 45.1719L98.5625 47.4062C98.4844 47.3802 98.3724 47.362 98.2266 47.3516C98.0859 47.3359 97.9635 47.3281 97.8594 47.3281C97.5521 47.3281 97.2526 47.3672 96.9609 47.4453C96.6745 47.5234 96.4167 47.651 96.1875 47.8281C95.9583 48 95.776 48.2292 95.6406 48.5156C95.5104 48.7969 95.4453 49.1432 95.4453 49.5547V54H93.0625V45.2656H94.8672L95.2188 46.7344H95.3359C95.5078 46.4375 95.7214 46.1667 95.9766 45.9219C96.237 45.6719 96.5312 45.474 96.8594 45.3281C97.1927 45.1771 97.5521 45.1016 97.9375 45.1016Z"
          fill="white"/>
    <defs>
        <linearGradient id="paint0_linear_78_25" x1="51" y1="20" x2="50.6354" y2="40" gradientUnits="userSpaceOnUse">
            <stop stop-color="#5EB0EF"/>
            <stop offset="1" stop-color="#016BDC"/>
        </linearGradient>
    </defs>
</svg>
