<svg width="173" height="40" viewBox="0 0 173 40" fill="none" xmlns="http://www.w3.org/2000/svg">
<path d="M5.48736 26.1372C4.76534 26.8592 4.33213 27.87 4.33213 28.8809C4.33213 30.0361 4.76534 30.9025 5.48736 31.6245C6.20938 32.3466 7.22021 32.7798 8.37545 32.7798C9.53068 32.7798 10.5415 32.3466 11.2635 31.6245C11.9856 30.9025 12.4188 29.8917 12.4188 28.8809C12.4188 27.7256 11.9856 26.8592 11.2635 26.1372C10.5415 25.4152 9.53068 24.9819 8.37545 24.9819C7.22021 24.9819 6.20938 25.4152 5.48736 26.1372ZM60.5054 28.8809C60.5054 27.7256 60.0722 26.8592 59.3501 26.1372C58.6281 25.4152 57.6173 24.9819 56.4621 24.9819C55.3068 24.9819 54.296 25.4152 53.574 26.1372C52.8519 26.8592 52.4187 27.87 52.4187 28.8809C52.4187 30.0361 52.8519 30.9025 53.574 31.6245C54.296 32.3466 55.3068 32.7798 56.4621 32.7798C57.6173 32.7798 58.6281 32.3466 59.3501 31.6245C60.0722 31.0469 60.5054 30.0361 60.5054 28.8809ZM48.3754 7.36462C48.0866 6.35379 47.509 5.48736 46.4982 4.90975L46.3538 4.76534C45.4873 4.33213 44.3321 4.18772 43.4657 4.47653C42.4548 4.76534 41.5884 5.34296 41.0108 6.35379C40.4332 7.22022 40.4332 8.37545 40.722 9.24187C41.0108 10.2527 41.5884 11.1191 42.5992 11.6967C43.6101 12.2744 44.6209 12.4188 45.6317 12.13C46.6426 11.8412 47.509 11.2635 48.0866 10.2527C48.5198 9.38628 48.6642 8.37545 48.3754 7.36462ZM28.3032 24.8375C27.2924 25.8484 26.5704 27.2924 26.5704 28.8809C26.5704 30.4693 27.2924 31.9134 28.3032 32.9242C29.3141 33.935 30.7581 34.657 32.3465 34.657C33.935 34.657 35.379 34.0794 36.5343 32.9242C37.5451 31.9134 38.2671 30.4693 38.2671 28.8809C38.2671 27.2924 37.5451 25.8484 36.5343 24.8375C35.5234 23.8267 34.0794 23.1047 32.3465 23.1047C30.6137 23.1047 29.4585 23.8267 28.3032 24.8375ZM21.5162 27.148C21.9494 24.8375 22.9603 22.8159 24.6931 21.2274C24.9819 20.9386 25.2707 20.7942 25.5595 20.5054L23.2491 16.6065C21.6606 17.1841 19.9278 17.1841 18.3393 16.7509C16.1733 16.1733 14.296 14.8736 13.1408 12.7076C11.9855 10.6859 11.6967 8.37545 12.2744 6.35379C12.852 4.18773 14.296 2.31047 16.3177 1.15523C18.3393 5.96046e-07 20.7942 -0.288809 22.9603 0.288809C25.1263 0.866426 27.0036 2.16607 28.1588 4.33213L28.4476 4.90975C29.3141 6.787 29.4585 8.80866 29.0252 10.8303C28.592 12.4188 27.7256 13.8628 26.426 15.018L28.7364 18.917C29.8917 18.4838 31.3357 18.1949 32.6354 18.1949C34.0794 18.1949 35.379 18.4838 36.5343 18.917L38.8447 15.018C37.5451 13.8628 36.6787 12.4188 36.2455 10.8303C35.6678 8.66426 35.9567 6.35379 37.1119 4.33213V4.18773C38.2671 2.16607 40.1444 0.866426 42.3104 0.288809C44.4765 -0.288809 46.787 5.96046e-07 48.8086 1.15523H48.953C50.9747 2.31047 52.2743 4.18773 52.8519 6.20939C53.4296 8.37545 53.1408 10.6859 51.9855 12.7076C50.8303 14.7292 48.8086 16.1733 46.787 16.7509C45.1985 17.1841 43.4657 17.1841 41.8772 16.6065L39.5668 20.5054C39.8556 20.7942 40.1444 20.9386 40.4332 21.2274C42.0216 22.8159 43.1769 24.8375 43.6101 27.148H48.231C48.5198 25.5596 49.3862 23.9711 50.5415 22.9603C52.1299 21.3718 54.296 20.5054 56.6065 20.5054C58.9169 20.5054 61.083 21.5162 62.6714 22.9603C64.2599 24.5487 65.2707 26.5704 65.2707 29.0253C65.2707 31.3357 64.2599 33.5018 62.6714 35.0903C61.083 36.6787 58.9169 37.5451 56.6065 37.5451C54.1516 37.5451 51.9855 36.5343 50.5415 35.0903C49.3862 33.935 48.5198 32.491 48.231 30.9025H43.6101C43.1769 33.213 42.166 35.2347 40.4332 36.8231C38.4115 38.8448 35.6678 40 32.6354 40C29.6029 40 26.8592 38.7004 24.8375 36.8231C23.2491 35.2347 22.0938 33.213 21.6606 30.9025H17.0397C16.7509 32.491 15.8845 33.935 14.7292 35.0903C13.1408 36.6787 10.9747 37.5451 8.66425 37.5451C6.35379 37.5451 4.04332 36.5343 2.59928 35.0903C1.01083 33.5018 0 31.4801 0 29.0253C0 26.7148 1.01083 24.5487 2.59928 22.9603C4.18772 21.3718 6.35379 20.5054 8.66425 20.5054C11.1191 20.5054 13.2852 21.5162 14.7292 22.9603C15.8845 24.1155 16.7509 25.5596 17.0397 27.148C16.8953 27.148 21.5162 27.148 21.5162 27.148ZM18.3393 4.90975C17.3285 5.48736 16.7509 6.35379 16.4621 7.36462C16.1733 8.37545 16.3177 9.38628 16.8953 10.3971C17.4729 11.4079 18.3393 11.9856 19.3502 12.2744C20.361 12.5632 21.5162 12.4188 22.3827 11.8412C23.3935 11.2635 23.9711 10.3971 24.2599 9.38628C24.5487 8.37545 24.4043 7.36462 23.8267 6.35379C23.2491 5.48736 22.3827 4.76534 21.3718 4.62094C20.5054 4.33213 19.3502 4.47653 18.3393 4.90975Z" fill="url(#paint0_linear_78_24)"/>
<path d="M71 18.2656H73.6094L75.2578 23.1797C75.3099 23.3359 75.3542 23.4948 75.3906 23.6562C75.4271 23.8177 75.4583 23.9844 75.4844 24.1562C75.5104 24.3281 75.5312 24.5078 75.5469 24.6953H75.5938C75.625 24.4141 75.6667 24.151 75.7188 23.9062C75.776 23.6615 75.8464 23.4193 75.9297 23.1797L77.5469 18.2656H80.1016L76.4062 28.1172C76.1823 28.7214 75.8906 29.224 75.5312 29.625C75.1719 30.0312 74.7578 30.3359 74.2891 30.5391C73.8255 30.7422 73.3151 30.8438 72.7578 30.8438C72.487 30.8438 72.2526 30.8281 72.0547 30.7969C71.8568 30.7708 71.6875 30.7422 71.5469 30.7109V28.8203C71.6562 28.8464 71.7943 28.8698 71.9609 28.8906C72.1276 28.9115 72.3021 28.9219 72.4844 28.9219C72.8177 28.9219 73.1042 28.8516 73.3438 28.7109C73.5833 28.5703 73.7839 28.3802 73.9453 28.1406C74.1068 27.9062 74.2344 27.6484 74.3281 27.3672L74.4688 26.9375L71 18.2656ZM89.2969 22.6172C89.2969 23.3464 89.1979 23.9922 89 24.5547C88.8073 25.1172 88.5234 25.5938 88.1484 25.9844C87.7786 26.3698 87.3307 26.6615 86.8047 26.8594C86.2839 27.0573 85.6953 27.1562 85.0391 27.1562C84.4245 27.1562 83.8594 27.0573 83.3438 26.8594C82.8333 26.6615 82.388 26.3698 82.0078 25.9844C81.6328 25.5938 81.3411 25.1172 81.1328 24.5547C80.9297 23.9922 80.8281 23.3464 80.8281 22.6172C80.8281 21.6484 81 20.8281 81.3438 20.1562C81.6875 19.4844 82.1771 18.974 82.8125 18.625C83.4479 18.276 84.2057 18.1016 85.0859 18.1016C85.9036 18.1016 86.6276 18.276 87.2578 18.625C87.8932 18.974 88.3906 19.4844 88.75 20.1562C89.1146 20.8281 89.2969 21.6484 89.2969 22.6172ZM83.2578 22.6172C83.2578 23.1901 83.3203 23.6719 83.4453 24.0625C83.5703 24.4531 83.7656 24.7474 84.0312 24.9453C84.2969 25.1432 84.6432 25.2422 85.0703 25.2422C85.4922 25.2422 85.8333 25.1432 86.0938 24.9453C86.3594 24.7474 86.5521 24.4531 86.6719 24.0625C86.7969 23.6719 86.8594 23.1901 86.8594 22.6172C86.8594 22.0391 86.7969 21.5599 86.6719 21.1797C86.5521 20.7943 86.3594 20.5052 86.0938 20.3125C85.8281 20.1198 85.4818 20.0234 85.0547 20.0234C84.4245 20.0234 83.9661 20.2396 83.6797 20.6719C83.3984 21.1042 83.2578 21.7526 83.2578 22.6172ZM99.2812 18.2656V27H97.4531L97.1328 25.8828H97.0078C96.8203 26.1797 96.5859 26.4219 96.3047 26.6094C96.0234 26.7969 95.7135 26.9349 95.375 27.0234C95.0365 27.112 94.6849 27.1562 94.3203 27.1562C93.6953 27.1562 93.151 27.0469 92.6875 26.8281C92.224 26.6042 91.862 26.2578 91.6016 25.7891C91.3464 25.3203 91.2188 24.7109 91.2188 23.9609V18.2656H93.6016V23.3672C93.6016 23.9922 93.7135 24.4635 93.9375 24.7812C94.1615 25.099 94.5182 25.2578 95.0078 25.2578C95.4922 25.2578 95.8724 25.1484 96.1484 24.9297C96.4245 24.7057 96.6172 24.3802 96.7266 23.9531C96.8411 23.5208 96.8984 22.9948 96.8984 22.375V18.2656H99.2812ZM105.461 25.2578C105.721 25.2578 105.974 25.2318 106.219 25.1797C106.469 25.1276 106.716 25.0625 106.961 24.9844V26.7578C106.706 26.8724 106.388 26.9661 106.008 27.0391C105.633 27.1172 105.221 27.1562 104.773 27.1562C104.253 27.1562 103.784 27.0729 103.367 26.9062C102.956 26.7344 102.63 26.4401 102.391 26.0234C102.156 25.6016 102.039 25.0156 102.039 24.2656V20.0547H100.898V19.0469L102.211 18.25L102.898 16.4062H104.422V18.2656H106.867V20.0547H104.422V24.2656C104.422 24.599 104.516 24.849 104.703 25.0156C104.896 25.1771 105.148 25.2578 105.461 25.2578ZM116.672 22.6172C116.672 23.3464 116.573 23.9922 116.375 24.5547C116.182 25.1172 115.898 25.5938 115.523 25.9844C115.154 26.3698 114.706 26.6615 114.18 26.8594C113.659 27.0573 113.07 27.1562 112.414 27.1562C111.799 27.1562 111.234 27.0573 110.719 26.8594C110.208 26.6615 109.763 26.3698 109.383 25.9844C109.008 25.5938 108.716 25.1172 108.508 24.5547C108.305 23.9922 108.203 23.3464 108.203 22.6172C108.203 21.6484 108.375 20.8281 108.719 20.1562C109.062 19.4844 109.552 18.974 110.188 18.625C110.823 18.276 111.581 18.1016 112.461 18.1016C113.279 18.1016 114.003 18.276 114.633 18.625C115.268 18.974 115.766 19.4844 116.125 20.1562C116.49 20.8281 116.672 21.6484 116.672 22.6172ZM110.633 22.6172C110.633 23.1901 110.695 23.6719 110.82 24.0625C110.945 24.4531 111.141 24.7474 111.406 24.9453C111.672 25.1432 112.018 25.2422 112.445 25.2422C112.867 25.2422 113.208 25.1432 113.469 24.9453C113.734 24.7474 113.927 24.4531 114.047 24.0625C114.172 23.6719 114.234 23.1901 114.234 22.6172C114.234 22.0391 114.172 21.5599 114.047 21.1797C113.927 20.7943 113.734 20.5052 113.469 20.3125C113.203 20.1198 112.857 20.0234 112.43 20.0234C111.799 20.0234 111.341 20.2396 111.055 20.6719C110.773 21.1042 110.633 21.7526 110.633 22.6172ZM121.195 30.8438C119.977 30.8438 119.044 30.6302 118.398 30.2031C117.758 29.7812 117.438 29.1875 117.438 28.4219C117.438 27.8958 117.602 27.4557 117.93 27.1016C118.258 26.7474 118.74 26.4948 119.375 26.3438C119.13 26.2396 118.917 26.0703 118.734 25.8359C118.552 25.5964 118.461 25.3438 118.461 25.0781C118.461 24.7448 118.557 24.4688 118.75 24.25C118.943 24.026 119.221 23.8073 119.586 23.5938C119.128 23.3958 118.763 23.0781 118.492 22.6406C118.227 22.2031 118.094 21.6875 118.094 21.0938C118.094 20.4583 118.232 19.9193 118.508 19.4766C118.789 19.0286 119.195 18.6875 119.727 18.4531C120.263 18.2188 120.914 18.1016 121.68 18.1016C121.841 18.1016 122.029 18.112 122.242 18.1328C122.456 18.1536 122.651 18.1771 122.828 18.2031C123.01 18.2292 123.133 18.25 123.195 18.2656H126.242V19.4766L124.875 19.8281C125 20.0208 125.094 20.2266 125.156 20.4453C125.219 20.6641 125.25 20.8958 125.25 21.1406C125.25 22.0781 124.922 22.8099 124.266 23.3359C123.615 23.8568 122.708 24.1172 121.547 24.1172C121.271 24.1016 121.01 24.0807 120.766 24.0547C120.646 24.1484 120.555 24.2474 120.492 24.3516C120.43 24.4557 120.398 24.5651 120.398 24.6797C120.398 24.7943 120.445 24.8906 120.539 24.9688C120.638 25.0417 120.784 25.099 120.977 25.1406C121.174 25.1771 121.419 25.1953 121.711 25.1953H123.195C124.154 25.1953 124.883 25.401 125.383 25.8125C125.888 26.224 126.141 26.8281 126.141 27.625C126.141 28.6458 125.714 29.4375 124.859 30C124.01 30.5625 122.789 30.8438 121.195 30.8438ZM121.297 29.2891C121.865 29.2891 122.352 29.2344 122.758 29.125C123.169 29.0208 123.484 28.8698 123.703 28.6719C123.922 28.4792 124.031 28.2474 124.031 27.9766C124.031 27.7578 123.966 27.5833 123.836 27.4531C123.711 27.3281 123.518 27.2396 123.258 27.1875C123.003 27.1354 122.674 27.1094 122.273 27.1094H121.039C120.747 27.1094 120.484 27.1562 120.25 27.25C120.021 27.3438 119.839 27.474 119.703 27.6406C119.568 27.8125 119.5 28.0104 119.5 28.2344C119.5 28.5625 119.656 28.8203 119.969 29.0078C120.286 29.1953 120.729 29.2891 121.297 29.2891ZM121.68 22.6641C122.128 22.6641 122.456 22.526 122.664 22.25C122.872 21.974 122.977 21.599 122.977 21.125C122.977 20.599 122.867 20.2057 122.648 19.9453C122.435 19.6797 122.112 19.5469 121.68 19.5469C121.242 19.5469 120.914 19.6797 120.695 19.9453C120.477 20.2057 120.367 20.599 120.367 21.125C120.367 21.599 120.474 21.974 120.688 22.25C120.906 22.526 121.237 22.6641 121.68 22.6641ZM131.289 18.1016C132.096 18.1016 132.792 18.2578 133.375 18.5703C133.958 18.8776 134.409 19.3255 134.727 19.9141C135.044 20.5026 135.203 21.2214 135.203 22.0703V23.2266H129.57C129.596 23.8984 129.797 24.4271 130.172 24.8125C130.552 25.1927 131.078 25.3828 131.75 25.3828C132.307 25.3828 132.818 25.3255 133.281 25.2109C133.745 25.0964 134.221 24.9245 134.711 24.6953V26.5391C134.279 26.7526 133.826 26.9089 133.352 27.0078C132.883 27.1068 132.312 27.1562 131.641 27.1562C130.766 27.1562 129.99 26.9948 129.312 26.6719C128.641 26.349 128.112 25.8568 127.727 25.1953C127.346 24.5339 127.156 23.7005 127.156 22.6953C127.156 21.6745 127.328 20.8255 127.672 20.1484C128.021 19.4661 128.505 18.9557 129.125 18.6172C129.745 18.2734 130.466 18.1016 131.289 18.1016ZM131.305 19.7969C130.841 19.7969 130.456 19.9453 130.148 20.2422C129.846 20.5391 129.672 21.0052 129.625 21.6406H132.969C132.964 21.2865 132.898 20.9714 132.773 20.6953C132.654 20.4193 132.471 20.2005 132.227 20.0391C131.987 19.8776 131.68 19.7969 131.305 19.7969ZM140.82 25.2578C141.081 25.2578 141.333 25.2318 141.578 25.1797C141.828 25.1276 142.076 25.0625 142.32 24.9844V26.7578C142.065 26.8724 141.747 26.9661 141.367 27.0391C140.992 27.1172 140.581 27.1562 140.133 27.1562C139.612 27.1562 139.143 27.0729 138.727 26.9062C138.315 26.7344 137.99 26.4401 137.75 26.0234C137.516 25.6016 137.398 25.0156 137.398 24.2656V20.0547H136.258V19.0469L137.57 18.25L138.258 16.4062H139.781V18.2656H142.227V20.0547H139.781V24.2656C139.781 24.599 139.875 24.849 140.062 25.0156C140.255 25.1771 140.508 25.2578 140.82 25.2578ZM146.477 14.8438V17.3203C146.477 17.7526 146.461 18.1641 146.43 18.5547C146.404 18.9453 146.383 19.2214 146.367 19.3828H146.492C146.68 19.0807 146.901 18.8359 147.156 18.6484C147.417 18.4609 147.703 18.3229 148.016 18.2344C148.328 18.1458 148.664 18.1016 149.023 18.1016C149.654 18.1016 150.203 18.2135 150.672 18.4375C151.141 18.6562 151.505 19.0026 151.766 19.4766C152.026 19.9453 152.156 20.5547 152.156 21.3047V27H149.773V21.8984C149.773 21.2734 149.659 20.8021 149.43 20.4844C149.201 20.1667 148.846 20.0078 148.367 20.0078C147.888 20.0078 147.51 20.1198 147.234 20.3438C146.958 20.5625 146.763 20.888 146.648 21.3203C146.534 21.7474 146.477 22.2708 146.477 22.8906V27H144.094V14.8438H146.477ZM158.211 18.1016C159.018 18.1016 159.714 18.2578 160.297 18.5703C160.88 18.8776 161.331 19.3255 161.648 19.9141C161.966 20.5026 162.125 21.2214 162.125 22.0703V23.2266H156.492C156.518 23.8984 156.719 24.4271 157.094 24.8125C157.474 25.1927 158 25.3828 158.672 25.3828C159.229 25.3828 159.74 25.3255 160.203 25.2109C160.667 25.0964 161.143 24.9245 161.633 24.6953V26.5391C161.201 26.7526 160.747 26.9089 160.273 27.0078C159.805 27.1068 159.234 27.1562 158.562 27.1562C157.688 27.1562 156.911 26.9948 156.234 26.6719C155.562 26.349 155.034 25.8568 154.648 25.1953C154.268 24.5339 154.078 23.7005 154.078 22.6953C154.078 21.6745 154.25 20.8255 154.594 20.1484C154.943 19.4661 155.427 18.9557 156.047 18.6172C156.667 18.2734 157.388 18.1016 158.211 18.1016ZM158.227 19.7969C157.763 19.7969 157.378 19.9453 157.07 20.2422C156.768 20.5391 156.594 21.0052 156.547 21.6406H159.891C159.885 21.2865 159.82 20.9714 159.695 20.6953C159.576 20.4193 159.393 20.2005 159.148 20.0391C158.909 19.8776 158.602 19.7969 158.227 19.7969ZM168.938 18.1016C169.057 18.1016 169.195 18.1094 169.352 18.125C169.513 18.1354 169.643 18.151 169.742 18.1719L169.562 20.4062C169.484 20.3802 169.372 20.362 169.227 20.3516C169.086 20.3359 168.964 20.3281 168.859 20.3281C168.552 20.3281 168.253 20.3672 167.961 20.4453C167.674 20.5234 167.417 20.651 167.188 20.8281C166.958 21 166.776 21.2292 166.641 21.5156C166.51 21.7969 166.445 22.1432 166.445 22.5547V27H164.062V18.2656H165.867L166.219 19.7344H166.336C166.508 19.4375 166.721 19.1667 166.977 18.9219C167.237 18.6719 167.531 18.474 167.859 18.3281C168.193 18.1771 168.552 18.1016 168.938 18.1016Z" fill="black"/>
<defs>
<linearGradient id="paint0_linear_78_24" x1="33" y1="20" x2="32.6354" y2="40" gradientUnits="userSpaceOnUse">
<stop stop-color="#5EB0EF"/>
<stop offset="1" stop-color="#0081F1"/>
</linearGradient>
</defs>
</svg>
